<svg id="Layer_1" data-name="Layer 1" xmlns="http://www.w3.org/2000/svg" width="269.27" height="148.83" viewBox="0 0 269.27 148.83">
  <title>flowers-line</title>
  <g>
    <path d="M483.64,224.56c0.07,0.19.15,0.07,0-.48l-0.22-.37Z" transform="translate(-261.04 -75.82)" fill="#2b2721"/>
    <path d="M483.35,220.81c-0.19-.64-0.45-1.36-0.53-0.92,0.26,0.62.22,0.78,0.53,1.44a1.2,1.2,0,0,1,0,.89,9.22,9.22,0,0,0,.25,1.14,9.21,9.21,0,0,0-.39-2.58C483.23,220.57,483.31,220.77,483.35,220.81Z" transform="translate(-261.04 -75.82)" fill="#2b2721"/>
    <path d="M515,185l-0.32.15Z" transform="translate(-261.04 -75.82)" fill="#2b2721"/>
    <path d="M522.61,160.94a1.15,1.15,0,0,0,.35.15A1.07,1.07,0,0,0,522.61,160.94Z" transform="translate(-261.04 -75.82)" fill="#2b2721"/>
    <path d="M517.38,158.34l0.32,0.13A1.51,1.51,0,0,0,517.38,158.34Z" transform="translate(-261.04 -75.82)" fill="#2b2721"/>
    <path d="M515,185l0.83-.37A3.24,3.24,0,0,0,515,185Z" transform="translate(-261.04 -75.82)" fill="#2b2721"/>
    <path d="M481.94,213.37c0,0.19.05,0.35,0.08,0.49L482,213.4Z" transform="translate(-261.04 -75.82)" fill="#2b2721"/>
    <path d="M501.5,191.47l-0.25.11-0.18.15Z" transform="translate(-261.04 -75.82)" fill="#2b2721"/>
    <path d="M491.2,196.4a0.63,0.63,0,0,0,.3-0.38,1.81,1.81,0,0,1-.45.35A0.15,0.15,0,0,0,491.2,196.4Z" transform="translate(-261.04 -75.82)" fill="#2b2721"/>
    <path d="M482.42,210.77v0Z" transform="translate(-261.04 -75.82)" fill="#2b2721"/>
    <path d="M509,188.11a0.23,0.23,0,0,0,.12,0A0.14,0.14,0,0,0,509,188.11Z" transform="translate(-261.04 -75.82)" fill="#2b2721"/>
    <path d="M265.06,88.7s0,0,0,0S265,88.62,265.06,88.7Z" transform="translate(-261.04 -75.82)" fill="#2b2721"/>
    <path d="M261.45,75.87l0,0.18a0.15,0.15,0,0,0,.08,0Z" transform="translate(-261.04 -75.82)" fill="#2b2721"/>
    <path d="M507.12,155.43h0C507.44,155.47,507.28,155.45,507.12,155.43Z" transform="translate(-261.04 -75.82)" fill="#2b2721"/>
    <path d="M410.15,149.23c1.1,0.09-1.79.21-.13,0.3C409.87,149.48,411.52,149.27,410.15,149.23Z" transform="translate(-261.04 -75.82)" fill="#2b2721"/>
    <path d="M481.93,213.07c0-.16,0-0.32,0-0.47A4,4,0,0,0,481.93,213.07Z" transform="translate(-261.04 -75.82)" fill="#2b2721"/>
    <path d="M410,149.53h0Z" transform="translate(-261.04 -75.82)" fill="#2b2721"/>
    <path d="M482.88,152.34a1.14,1.14,0,0,0,.24.09A0.6,0.6,0,0,0,482.88,152.34Z" transform="translate(-261.04 -75.82)" fill="#2b2721"/>
    <path d="M500.91,154.7l-0.44-.08Z" transform="translate(-261.04 -75.82)" fill="#2b2721"/>
    <path d="M473.46,151.64a4.64,4.64,0,0,0-.66-0.07l0.1,0A2.33,2.33,0,0,1,473.46,151.64Z" transform="translate(-261.04 -75.82)" fill="#2b2721"/>
    <path d="M463.67,150.87l0.18,0h0.31Z" transform="translate(-261.04 -75.82)" fill="#2b2721"/>
    <path d="M282.29,113.13a2.16,2.16,0,0,1-.23-0.41C282.09,112.9,281,111.91,282.29,113.13Z" transform="translate(-261.04 -75.82)" fill="#2b2721"/>
    <path d="M482,213.36a0.64,0.64,0,0,1-.08-0.29l0,0.33S482,213.43,482,213.36Z" transform="translate(-261.04 -75.82)" fill="#2b2721"/>
    <path d="M473,152.7l-1.55-.15Z" transform="translate(-261.04 -75.82)" fill="#2b2721"/>
    <path d="M344.34,145.1L344,145A2,2,0,0,0,344.34,145.1Z" transform="translate(-261.04 -75.82)" fill="#2b2721"/>
    <path d="M466.81,152.21a7.76,7.76,0,0,0-.87-0.16l-0.18,0Z" transform="translate(-261.04 -75.82)" fill="#2b2721"/>
    <path d="M282.05,112.72h0Z" transform="translate(-261.04 -75.82)" fill="#2b2721"/>
    <path d="M275,105.18c0.95,1.16.59,0.43,0.87,0.61,1.17,1.35.42,0.72,0.73,1.26,0.75,0.83,1.4,1.4,2,2,0,0.07.12,0.19,0,.08,0.92,0.76,2.33,2.62,3.45,3.44a0.62,0.62,0,0,1,.09.16c-0.09-.22,0-0.31,0-0.33a5.69,5.69,0,0,1,1.06,1,1.88,1.88,0,0,0-.51-0.39l0.54,0.45c0.33,0.57-.72-0.63-0.81-0.54,1,0.92,2.23,1.95,3,2.69,0,0.3-1.79-1.67-.9-0.57l-1.11-1.19c0.7,1.06-.69-0.71-0.08.3,0.75,0.77,1.18,1.18,1.63,1.58s0.92,0.76,1.71,1.48c0.42,0.25,0-.21.4,0,2.38,1.87,1.49,1.93,3.39,3.13a5.55,5.55,0,0,1,2,1.31l-0.54-.18c1.63,1.27,1.06.56,2.76,1.9-0.36-.16-1.36-0.89-1.12-0.69a8,8,0,0,0,1.75,1.1l0.08,0.27,2.87,1.9c1,0.64,2.07,1.21,3.11,1.85-0.14,0-.52-0.2-0.07.14,2.62,1.62,5.67,3.3,8.22,4.81L310,133l0.54,0.18c0.24,0.11.41,0.27,0.14,0.17,1,0.54.1-.06,0.62,0.13s0.75,0.45.35,0.31c1.9,0.76,5.34,2.28,7.29,3.17l-0.4-.12c1.53,0.69,1.86.43,3.24,1.15l-0.28-.09c1.65,0.75,3.47,1.34,5.17,1.93s3.29,1.18,4.57,1.71c0.57-.06,3.42,1.09,3.73.87,1.95,0.71,1.36.6,4.14,1.5,0.75,0.19,1.18.09,2.12,0.28v0.15l1.31,0.14,0.63,0.34L344,145a1.44,1.44,0,0,1-.66-0.27,16.65,16.65,0,0,1,3.34,1l0.51,0.1c0.31,0.06.72,0.14,1.13,0.19l1.65,0.24a5.74,5.74,0,0,1-1.08-.08c1.78,0.17.29,0.22,1.92,0.37-0.21-.07.13-0.07,0.18-0.09a38.33,38.33,0,0,0,4,.79l-0.28.06c2.42,0.53,5.16.76,7.91,1.15-1-.18-0.73-0.34.08-0.24l0.3,0.21c0.53,0-.83-0.18.25-0.15s0.67,0.28.07,0.25l1.26,0.12a0.64,0.64,0,0,1-.31.09c0.52,0,2.14.46,2.9,0.38l0.07,0.05,6.27,0.52a7,7,0,0,1,1.61-.08l2.6,0.33c0.91,0.08,1.87.15,2.87,0.19,1.41,0,.42-0.1,1.05-0.15,0.1,0.13,2.09.22,1.05,0.26,2.4,0.1,3.06.13,6.1,0.17-0.33-.07-0.7-0.11-0.5-0.14a3.18,3.18,0,0,1,1.17.16h-0.15c3.41-.16,7.86.45,10.57,0.2h-0.15l1.41-.06,1.4-.11c1.29,0-.77.12,0.18,0.17,3-.3,4.79-0.11,7.28-0.32a31.19,31.19,0,0,0,4.48.05c1.79,0,3.66-.06,5,0.07l-0.15-.09a4.88,4.88,0,0,1,1.31.08c-0.07-.07-0.73-0.09-0.31-0.13,5.7-.07,11.77.26,17.6,0.51,2.13,0.09,1.23-.42,3.91-0.12l-0.77.14c4.32-.06,8.81.34,13,0.4a2.52,2.52,0,0,1-.67.05,14.58,14.58,0,0,0,3.31.09,1,1,0,0,1,.55.17c0.89,0.12,2.25,0,2.72.13a1.24,1.24,0,0,1-.42,0c0.59,0,2.71.19,2.16,0,1.58,0.16,3,.15,4.28.32,0.83-.1,2.7.28,3,0.08-0.13.22,2.75,0.4,3.76,0.38-0.34,0,.86.15,0.46,0.21,1.14,0.1,2.19.15,2,0,2.07,0.45,4.24.18,5.38,0.64,3.39,0.22,6.52.49,9.56,0.8-0.14.21-3.36-.38-3.25-0.13,2.89,0.25,4.57.26,7.42,0.66,0.74,0.12-.43,0-0.69.06,2.89,0.25,5.56.68,8.12,0.93a2.77,2.77,0,0,1-.55,0,2.82,2.82,0,0,0,1.12.09l-0.49,0c-0.78-.26,2,0,2.14-0.07-0.9.15,2.5,0.49,1.08,0.63a1,1,0,0,0,.69,0c0.48,0.1.63,0.18,0.12,0.16,1.79,0.29,1.18.05,2.79,0.38a3.37,3.37,0,0,1-.52,0,16.33,16.33,0,0,1,3,.51c-0.09,0,.06.08-0.34,0a38.66,38.66,0,0,1,6.43,1.75c-0.8-.07.81,0.38,0.87,0.6a6.89,6.89,0,0,1,.65.24l0.65,0.26-0.48-.31c0.56,0.25,1.1.46,1.62,0.66a10.67,10.67,0,0,1,1.43.74l-0.83-.37,1,0.53c0.25,0.13.51,0.26,0.69,0.37l0.3,0.19-0.16-.12a2.87,2.87,0,0,0-.37-0.25l-0.55-.34c1.12,0.53,0-.32,1.38.61a18.08,18.08,0,0,1,1.47,1.15h0a11,11,0,0,1,1.67,1.34c0.11,0.22-.27,0-0.2.15a10.76,10.76,0,0,1,1.23,1.22c0.49,0.54.85,1.19,1.15,1.45-0.17-.19-0.26-0.15-0.24-0.07l0.19,0.17,0.15,0.2c0.18,0.53.2,0.61,0.09,0.56,0.33,0.76.3,0.63,0.33,0.52s0.07-.18.21,0.81c0-.15,0-0.07-0.13-0.38a6.78,6.78,0,0,1-1,5.39c-0.42.37,0.77-1.4,0.32-.94a17.53,17.53,0,0,1-5.37,6l0.4-.28c-0.12.45-1.64,1.06-2.69,1.87,0.26-.19.28-0.35,0.22-0.28-1.52.94-3.08,2-5.44,3.36l0.27-.22c-1,.44-2.49,1.26-3.53,1.74-0.27.21-.87,0.5-0.47,0.41-3.34,1.2-6,3.06-9,4.05,0.34-.15.79-0.42,0.52-0.3l-2.42,1.15a3.12,3.12,0,0,0,.9-0.23,11.32,11.32,0,0,1-1.55.83c1.07-.56-0.09-0.17-0.59,0,0.09,0-.05.11,0,0.12-1.36.39-.12,0.31-1.91,1l0.07-.1c-0.64.32-1.2,0.67-1.91,1-0.35,0,.66-0.38.66-0.5a28.05,28.05,0,0,1-2.77,1.44l1.39-.75a11.33,11.33,0,0,0-1.85.73l0.07,0-1.68.76,0.44-.17c-1,.93-2.44,1.33-3.85,2.53,1.37-1.16.18-.27,0.21-0.47a3,3,0,0,1-.9.43,6.94,6.94,0,0,1-1,.77,4.3,4.3,0,0,0-1,1.13c-0.07,0-.6.73-0.57,0.5-0.7.92,0.24-.16,0.23,0-0.25.36-.54,0.74-0.81,1.18a12.78,12.78,0,0,0-.87,1.37A9.42,9.42,0,0,0,483,204l-0.3.88c-0.08.3-.13,0.62-0.18,0.93a18.46,18.46,0,0,0-.25,4.56c-0.09.67-.17-0.56-0.17-0.56,0,0.54-.07,1-0.07,1.49s0.05,0.93.1,1.44c0-.21-0.08,0-0.12.33a9,9,0,0,1,.24,1.62,4.36,4.36,0,0,1-.27-0.8c0.12,1,.33,1.91.51,2.89,0,0.27-.22-0.58-0.31-0.93a18.75,18.75,0,0,0,.68,3.2l-0.07-.72c0.07,0.4-.08.23-0.15-0.07a2.57,2.57,0,0,1-.12-1.44l0.13,0.7c0.17-.76-0.45-2.83-0.52-4.27l0.26,0.58-0.15-.73-0.12-.73c0-.32.15-0.53,0.21,0.17a16.52,16.52,0,0,1,0-1.79c0-.1,0-0.05,0,0l0-1c0,0.2.15-.16,0.11,0.45,0.07-.89.13-1.6,0.14-2.19a5.23,5.23,0,0,1,.23-1.34v0.15c0.51-2.42-.13-0.27.21-2.12l0.79-1s0-.28,0-0.28a1.37,1.37,0,0,1,.37-0.56c0.33-.9-0.13.12,0-0.43,0.33-.53.81-1.23,1.21-1.84a3.84,3.84,0,0,1,1-1.06c0.19-.42-0.81.86,0-0.22a2,2,0,0,0,.82-0.65,6.41,6.41,0,0,1,1.28-1c-0.23.29-1.1,0.88-.13,0.31a11.71,11.71,0,0,1,2.68-1.62c-0.05-.19,1.79-1.05,3.21-1.79-0.07.09,2.76-1.21,4.15-1.76l0,0a13.64,13.64,0,0,1,2.61-1.38,1.12,1.12,0,0,1-.69.53l1-.43a6.56,6.56,0,0,1,1.11-.62l-0.19.23c1.28-.58,2.51-1.3,4.19-2,0-.16-1.45.27,0.25-0.6,0.09,0,.21.11-0.24,0.35a6.25,6.25,0,0,1,.82-0.4l-0.65.42a7.36,7.36,0,0,0,1-.53c0,0.1.47-.14,0.42,0a8.21,8.21,0,0,0-.75.34,14.37,14.37,0,0,1,1.82-.68c-0.08,0-.06-0.12.43-0.36a4.09,4.09,0,0,1,1.25-.4,4.54,4.54,0,0,0,1.07-.68,1.76,1.76,0,0,1,.63-0.19c0.63-.37,3-1.55,2.22-1.32l-0.17.08,0.1-.06h0c2.05-1.21,4.41-2.26,6.38-3.59l0,0a27.16,27.16,0,0,0,3.32-2.51,1.08,1.08,0,0,1,.73-0.38c0.77-.77.89-0.82,2-1.92a3,3,0,0,1-.74.85,9.77,9.77,0,0,0,2.16-2.47c-0.19.52,0.75-.82,1-1.47a7.39,7.39,0,0,1-.58.84,11.86,11.86,0,0,0,.93-1.93v0.41a5.65,5.65,0,0,0,.24-4.13,9.39,9.39,0,0,0-.69-1.71c-0.25-.54-0.59-1-0.83-1.53-0.53-.59.83,1.4,0.32,0.88-0.18-.29-0.35-0.58-0.52-0.87s-0.38-.52-0.54-0.76c-0.34-.47-0.61-0.85-0.75-1a6.6,6.6,0,0,0-1.41-1.13l-0.62-.4a10.54,10.54,0,0,1-.94-0.61c0.17,0.19.27,0.44-.94-0.3s-1.31-1-.54-0.65a1,1,0,0,1,.39.25c0.38,0.2.86,0.51,0.46,0.16l-0.18,0a12,12,0,0,1-1.74-1.14c-0.92-.43-0.42-0.12.22,0.27a13.25,13.25,0,0,0-2-1c-0.61-.28-1.24-0.55-2.06-0.86,0.25,0.13.47,0.28,0.21,0.19-2.39-1-1.09-.31-2.76-0.81-0.92-.38.4-0.1-1.29-0.55-1-.33-0.17-0.22.25-0.14-1.57-.31-2.87-0.86-3.76-1.07l0.83,0.14c-0.5-.08-0.9-0.17-1.31-0.27l0.44,0.22a3.37,3.37,0,0,1-.87-0.27c-0.51,0,.34.28-0.67,0.16a15.06,15.06,0,0,1-2.17-.52c2,0.44-.2-0.2,1.53.11-0.34,0-.74-0.12-1.22-0.24-0.07,0,.07,0,0.21,0-1.92-.51-0.93,0-2.95-0.34,0.27,0-.44-0.25-0.78-0.28,0.82,0.14.37,0.2-.39,0.16a19.17,19.17,0,0,0-2.1-.27l0.77,0.15a12.36,12.36,0,0,1-1.83-.15c-0.07-.08.83,0.06,0.51,0-1,0-2.25-.46-3.67-0.53-0.64-.14,0-0.17-0.61-0.28-1.58-.07-1.69-0.32-3.35-0.43,0.46,0.18.55,0.16-.63,0.13l2.72,0.24-1.76,0c0.82,0.1,1.74.13,2.23,0.21-0.84,0-.75,0-0.37.12-1.1-.31-2.23-0.16-3.52-0.44l0.08-.29c-1.94-.36-3.48-0.28-6-0.62l0.81,0.14a22.77,22.77,0,0,1-2.39-.2,1.4,1.4,0,0,0-.77-0.28,13.52,13.52,0,0,0-2.11,0l-1.12-.24c-2-.26-2.36,0-4.33-0.16,0.6-.05-0.29-0.2,1-0.16a4.85,4.85,0,0,0-1.26-.06c-0.38-.1-1.84,0-2.43-0.18a3.69,3.69,0,0,1-1.12,0c-0.08,0,0,0,0,0s-1.16,0-.53.13c-2-.48-5.67-0.43-7.42-0.81l-4.48-.22a0.28,0.28,0,0,1,.25,0c-1.8-.2-1.12.21-3.17,0-1-.22,1.09,0,0.44-0.12-0.27-.34-2.48-0.09-3.85-0.36h0.34c-1-.17-2.58,0-4.31-0.11,0,0,.09,0,0,0-1.19.1-3.42,0.08-5.08,0.06,0.52-.11.76,0,0.45-0.18-0.74,0,.21.22-1.28,0.19a8.13,8.13,0,0,1-1.69-.32l1.4,0a14.76,14.76,0,0,0-2.55-.11l0.1-.07c-2.15,0-2.18.15-4.49,0.08l0.24,0.07c-1.27.16-1.05-.14-2.32,0l-0.38-.21c-0.83,0-2.92.13-4.41,0.14,0.85-.13,2.6-0.17,3.68-0.24a30.81,30.81,0,0,0-3.24,0,7.91,7.91,0,0,1,1.08,0,28.8,28.8,0,0,1-4,.16c0.3-.38-4.28-0.15-5.47-0.45-2.9.14-5.79-.13-9.17,0,1.21,0.26-1,0-.77.34a8.23,8.23,0,0,1-1.16,0l-2.39-.11c-0.57-.07.75-0.09,0.67-0.16a9.06,9.06,0,0,1-1.87-.16c0.24,0.1-.6.17-1.58,0.16l1.39,0.1c-2.41.23-2.09-.2-4.52,0l0.77-.12c-1.25.14-4.6,0-5.82,0.25-0.22,0-.51-0.12,0-0.14-3-.09-6.64.25-8.95,0l0.23-.06a9,9,0,0,1-1.66,0s0.23-.06,0-0.08a18.42,18.42,0,0,1-2.21,0l0.63-.05c-2.9-.24-4.46,0-6.9-0.09,0-.21-2.25-0.5-3.38-0.64l0,0c-1.68-.17-3.11-0.26-4.52-0.32s-2.78-.09-4.34-0.29c-1.89-.53-6.52-0.94-9.57-1.61,0.46,0.13-.1.16-0.65,0.08-0.71-.18-2-0.22-1.87-0.4l0.26,0.05a15.5,15.5,0,0,0-3.15-.74l-0.24.22a25.7,25.7,0,0,0-2.51-.62c-0.9-.22-1.84-0.42-2.74-0.62a26.35,26.35,0,0,1-4.21-1.08c-0.74-.11-1.64-0.3-2.36-0.46l0.07-.13c-2-.61-2.94-0.91-5.39-1.58l0.53,0c-1.37-.42-1.87-0.08-3.12-0.5l-0.31-.33c-2.36-.83-4.7-1.79-7.08-2.48a0.78,0.78,0,0,1,.52.1c-1.09-.45-4.16-1.85-3.87-1.42,0.05-.2-2.39-1-3.65-1.45l0.25,0a14.65,14.65,0,0,1-2.62-.93c-0.33-.18-0.25-0.24.19,0-1.1-.6-0.94-0.3-2.29-1l0.55,0.16a7.42,7.42,0,0,0-1.78-.69A9.5,9.5,0,0,1,308.3,131a5.2,5.2,0,0,1-1.51-.66c-0.07-.09.19,0,0.32,0.07a43.39,43.39,0,0,1-4.1-2.31,0.39,0.39,0,0,0-.17-0.2c1.44,0.93,2.66,1.59,2.55,1.53,0.06-.11-1.14-0.79-0.09-0.42a26.5,26.5,0,0,1-3.86-2,1,1,0,0,1-.13-0.13l0.13,0.06a6.83,6.83,0,0,0-.74-0.43c-0.36-.24-0.58-0.4-0.93-0.62-0.09-.15-1.3-0.91-1.85-1.32,0,0.15-.76-0.39-0.13.19a2.14,2.14,0,0,1,.5.32l0.25,0.16,0,0c0.37,0.27.87,0.58,1.45,0.93a5.63,5.63,0,0,1-1.6-1l-0.92-.37c-0.67-.71-2.1-1.84-2.24-2.08-0.9-.55-1.87-1.33-2.8-2A20.28,20.28,0,0,0,290,119a1.76,1.76,0,0,1-.63-0.67,6.7,6.7,0,0,0,.77.55c-1-.69-2.69-2.32-3-2.36-1.08-1.06.75,0.44-.83-0.92l0.25,0.14c-2.8-3-5.14-4.28-7.89-7.92a2.26,2.26,0,0,1,.31.44c-3.26-4-6.77-8.26-9.14-12.8a17.22,17.22,0,0,0-1.37-2.09l0-.35-0.87-1.25c-1.1-1.86-1.33-3.48-2.61-5.88l0,0.36a16.89,16.89,0,0,1-1-2.74,1.48,1.48,0,0,1-.29-0.64l0.06-.05-0.45-1.11c-0.23-.55-0.44-1.12-0.44-1.12-0.47-1.8.35,0.19-.36-2.41a13.47,13.47,0,0,0-.83-2.35,3.47,3.47,0,0,1,.09,1.07L261.49,76c-0.24-.13-0.67-0.79-0.32,1.5,0,0,.12.39,0.26,0.76l0.28,0.75,0,0.53-0.36-1.3a5.24,5.24,0,0,0,.53,1.71,2.09,2.09,0,0,0,.08.68l0.34,0.72,0.36,0.71c0,0.21-.4-0.61-0.11.4,0.34,0.66,0-.73.42,0.39a3,3,0,0,0,.4,1.38c0,0.14-.11,0-0.27-0.35a20.25,20.25,0,0,0,1.07,2.29c0.2,0.78,1.09,2.46.87,2.47a17.79,17.79,0,0,1,1.09,1.85c-0.41-.54-0.11.07,0.23,0.81s0.8,1.54.59,1.45a15,15,0,0,1,1.27,2c0.52,0.84,1.07,1.77,1.58,2.49a1.81,1.81,0,0,1-.27-0.36c0.48,0.86.58,1.14,0.89,1.69a11.67,11.67,0,0,1,1.68,1.88c0.51,1.11-.59-0.48-0.54-0.06a2.29,2.29,0,0,1,.67.73c0.3,0.38.6,0.7,0.53,0.5a4.32,4.32,0,0,1,.58,1.15c0.29,0,.54.67,1.12,1.2,0.7,1.14,0,.43,1,1.53C275.87,106.14,275,105.18,275,105.18Zm26.32,22.67h0l-0.62-.37Zm2.49,1.54-1.08-.67c-0.06-.1.06-0.08,0.31,0.08A4.66,4.66,0,0,0,303.78,129.39Zm-4.72-4.08a2,2,0,0,1,.55.39c-0.18-.12-0.41-0.23-0.68-0.42l-0.05,0A0.51,0.51,0,0,1,299.06,125.31Z" transform="translate(-261.04 -75.82)" fill="#2b2721"/>
    <path d="M298.28,125l-0.16-.1,0.21,0.18,0.16,0.06Z" transform="translate(-261.04 -75.82)" fill="#2b2721"/>
    <path d="M514.59,185.17l0.06,0-0.12,0Z" transform="translate(-261.04 -75.82)" fill="#2b2721"/>
    <polygon points="80.11 68.6 80.12 68.56 79.86 68.53 80.11 68.6" fill="#2b2721"/>
    <path d="M499.83,191.52l-0.21.05Z" transform="translate(-261.04 -75.82)" fill="#2b2721"/>
    <path d="M493.51,194.42l-0.9.4Z" transform="translate(-261.04 -75.82)" fill="#2b2721"/>
    <path d="M488.76,196.94a0.25,0.25,0,0,0-.06.11h0Z" transform="translate(-261.04 -75.82)" fill="#2b2721"/>
    <path d="M501.14,155.68l-0.2,0C500.46,155.62,500.78,155.65,501.14,155.68Z" transform="translate(-261.04 -75.82)" fill="#2b2721"/>
    <path d="M524.85,163.05c-0.21-.16-0.46-0.26-0.69-0.41A2,2,0,0,0,524.85,163.05Z" transform="translate(-261.04 -75.82)" fill="#2b2721"/>
    <path d="M473.14,152.72h0l-0.17,0Z" transform="translate(-261.04 -75.82)" fill="#2b2721"/>
    <path d="M523.2,162a9.36,9.36,0,0,0,1,.65C523.86,162.43,523.51,162.18,523.2,162Z" transform="translate(-261.04 -75.82)" fill="#2b2721"/>
    <path d="M482.49,218.13l0,0.26s0,0,0,0Z" transform="translate(-261.04 -75.82)" fill="#2b2721"/>
    <path d="M482.56,218.41l0.06,0.28A1.25,1.25,0,0,0,482.56,218.41Z" transform="translate(-261.04 -75.82)" fill="#2b2721"/>
    <path d="M482.75,219.28l-0.13-.59A2.71,2.71,0,0,0,482.75,219.28Z" transform="translate(-261.04 -75.82)" fill="#2b2721"/>
    <path d="M481.9,211l0-.08A0.1,0.1,0,0,0,481.9,211Z" transform="translate(-261.04 -75.82)" fill="#2b2721"/>
    <path d="M482,208.86a11.49,11.49,0,0,0-.17,2l0,0.07C481.77,210.61,482,209.35,482,208.86Z" transform="translate(-261.04 -75.82)" fill="#2b2721"/>
    <path d="M485.52,200.71a1.74,1.74,0,0,0-.16.22l-0.34.5-0.5.74c0.22-.23.48-0.54,0.08,0.15C485.92,200.53,484.24,202.63,485.52,200.71Z" transform="translate(-261.04 -75.82)" fill="#2b2721"/>
    <path d="M489.66,197.2c-0.8.52,0,.06,0,0.11C490.18,197,490.3,196.88,489.66,197.2Z" transform="translate(-261.04 -75.82)" fill="#2b2721"/>
    <path d="M525.31,178.51v0.16C525.88,178.16,525.3,178.63,525.31,178.51Z" transform="translate(-261.04 -75.82)" fill="#2b2721"/>
    <path d="M529.22,172s0,0.17-.11.32l-0.17.31,0,0.35,0.18-.48A2,2,0,0,0,529.22,172Z" transform="translate(-261.04 -75.82)" fill="#2b2721"/>
    <path d="M529.63,167.46l0.16,0.31-0.29-.6a1.84,1.84,0,0,0-.22-0.4l-0.12-.17a2.56,2.56,0,0,1,.26.41Z" transform="translate(-261.04 -75.82)" fill="#2b2721"/>
    <path d="M465.42,150.87l0.21,0.17C466.14,151.05,466.26,150.89,465.42,150.87Z" transform="translate(-261.04 -75.82)" fill="#2b2721"/>
    <path d="M436.21,149.62a5.58,5.58,0,0,0-1.65-.09C435.22,149.55,435.87,149.63,436.21,149.62Z" transform="translate(-261.04 -75.82)" fill="#2b2721"/>
    <polygon points="87.95 69.09 88.53 69.15 87.44 68.99 87.95 69.09" fill="#2b2721"/>
  </g>
</svg>
