<svg id="Layer_1" data-name="Layer 1" xmlns="http://www.w3.org/2000/svg" width="380" height="180" viewBox="0 0 380 180">
  <title>flowers-line</title>
  <g>
    <path d="M333.1,179.31c0.08,0.26.16,0.1,0-.64l-0.24-.5Z" fill="#2b2721"/>
    <path d="M332.6,174.3c-0.22-.85-0.52-1.84-0.58-1.25,0.3,0.84.26,1.06,0.6,2a2.05,2.05,0,0,1,.08,1.18,15,15,0,0,0,.32,1.53,16.81,16.81,0,0,0-.54-3.45C332.48,174,332.56,174.24,332.6,174.3Z" fill="#2b2721"/>
    <path d="M379.2,127.09a2.4,2.4,0,0,1-.17.45A1.6,1.6,0,0,0,379.2,127.09Z" fill="#2b2721"/>
    <path d="M341.87,108.46a2,2,0,0,0,.51,0A1.82,1.82,0,0,0,341.87,108.46Z" fill="#2b2721"/>
    <path d="M334.16,107.57l0.45,0A2.64,2.64,0,0,0,334.16,107.57Z" fill="#2b2721"/>
    <path d="M379.2,127.09s0.32-1.22.29-1.22A10.76,10.76,0,0,0,379.2,127.09Z" fill="#2b2721"/>
    <path d="M331.34,164.25a4.54,4.54,0,0,0,0,.67c0-.21,0-0.42,0-0.63Z" fill="#2b2721"/>
    <path d="M364.27,140l-0.33.17-0.24.2Z" fill="#2b2721"/>
    <path d="M350.38,146.51a1,1,0,0,0,.47-0.42,3.19,3.19,0,0,1-.65.4S350.26,146.52,350.38,146.51Z" fill="#2b2721"/>
    <path d="M332.39,160.91l-0.09.42Z" fill="#2b2721"/>
    <path d="M373.68,134.24a0.36,0.36,0,0,0,.14,0A0.22,0.22,0,0,0,373.68,134.24Z" fill="#2b2721"/>
    <path d="M4.47,18.06s0,0,0,0S4.44,17.94,4.47,18.06Z" fill="#2b2721"/>
    <path d="M0.91,0.61L1,0.86A0.14,0.14,0,0,0,1,.9Z" fill="#2b2721"/>
    <path d="M320,106.6h0.06C320.46,106.61,320.25,106.6,320,106.6Z" fill="#2b2721"/>
    <path d="M190.11,104.08c1.47,0.14-2.4.14-.18,0.3C189.72,104.32,191.95,104.17,190.11,104.08Z" fill="#2b2721"/>
    <path d="M331.4,163.85l0.05-.64C331.42,163.5,331.4,163.7,331.4,163.85Z" fill="#2b2721"/>
    <path d="M189.93,104.37h0l0.23,0Z" fill="#2b2721"/>
    <path d="M287.42,105.6a1.94,1.94,0,0,0,.33.07A1,1,0,0,0,287.42,105.6Z" fill="#2b2721"/>
    <path d="M311.7,106.55l-0.6,0Z" fill="#2b2721"/>
    <path d="M274.81,105.49a8.29,8.29,0,0,0-.88,0l0.14,0A4.15,4.15,0,0,1,274.81,105.49Z" fill="#2b2721"/>
    <path d="M261.68,105.22l0.24,0h0.42Z" fill="#2b2721"/>
    <path d="M22.9,53.48a3.71,3.71,0,0,1-.26-0.57C22.68,53.14,21.51,51.59,22.9,53.48Z" fill="#2b2721"/>
    <path d="M331.42,164.25a1.09,1.09,0,0,1,0-.4l0,0.44S331.4,164.34,331.42,164.25Z" fill="#2b2721"/>
    <path d="M274.25,106.59l-2.08-.06Z" fill="#2b2721"/>
    <path d="M101.85,101.5l-0.47-.08A3.59,3.59,0,0,0,101.85,101.5Z" fill="#2b2721"/>
    <path d="M266,106.42c-0.37-.06-0.77-0.09-1.17-0.12l-0.24,0Z" fill="#2b2721"/>
    <path d="M22.64,52.91h0Z" fill="#2b2721"/>
    <path d="M14.83,41.52c1,1.72.63,0.72,0.94,1,1.26,2,.44,1,0.78,1.77,0.78,1.27,1.59,2.11,2.18,3,0,0.09.13,0.27,0,.08,0.49,0.62,1.13,1.59,1.8,2.59a32,32,0,0,0,2.05,2.65,1.06,1.06,0,0,1,.1.22c-0.1-.29-0.05-0.39,0-0.38a10.15,10.15,0,0,1,1.17,1.61,3.28,3.28,0,0,0-.57-0.64l0.59,0.72c0.36,0.79-.8-1-0.9-0.92,0.57,0.72,1.17,1.5,1.78,2.21s1.19,1.37,1.62,1.93c0.05,0.33-2.11-2.5-1.05-1l-0.66-.86C24.32,55.21,24,54.75,24,54.75c0.76,1.5-.76-1.08-0.09.33,1.73,2.27,2.08,2.43,3.83,4.68,0.48,0.44,0-.25.45,0.18,2.81,2.91,1.82,2.65,4,4.7a13.67,13.67,0,0,1,2.39,2.12l-0.65-.37c2,1.95,1.32.91,3.3,3-0.42-.3-1.6-1.47-1.31-1.16A14.94,14.94,0,0,0,38,70.09l0.11,0.32,3.54,2.95,1.85,1.53,2,1.45c-0.17-.07-0.65-0.37-0.08.14l2.54,1.89,1.29,1c0.44,0.32.9,0.62,1.34,0.93l5.19,3.61,1.39,0.63c0.3,0.18.53,0.38,0.19,0.22,1.31,0.82.12,0,.79,0.28s1,0.65.46,0.41l4.65,2.46C65,88.73,66.72,89.61,68,90.31l-0.52-.21c2,1,2.36.91,4.23,1.8l-0.38-.13c2.23,1,4.59,1.92,6.81,2.84s4.41,1.54,6.12,2.25a16.66,16.66,0,0,1,2.58.81,7.32,7.32,0,0,0,2.35.53c2.63,0.86,1.85.71,5.59,1.82a24.51,24.51,0,0,0,2.81.47v0.16l1.75,0.19,0.87,0.37,1.19,0.2a2.49,2.49,0,0,1-.91-0.3,29.68,29.68,0,0,1,4.51,1.12l0.69,0.12c0.41,0.08,1,.17,1.52.22l2.22,0.25a10.14,10.14,0,0,1-1.44-.08c2.38,0.18.4,0.22,2.59,0.39-0.28-.08.17-0.07,0.22-0.09,1.06,0.25,3.51.6,5.33,0.82l-0.36.06c1.63,0.3,3.38.34,5.17,0.51l5.48,0.43c-1.32-.16-1-0.32.08-0.25l0.42,0.2c0.71,0-1.13-.16.32-0.16s0.92,0.26.12,0.25l0.84,0c0.42,0,.84,0,0.84,0a1,1,0,0,1-.41.12c0.7-.08,2.9.25,3.91,0.11l0.09,0.05c3.71,0.1,5.4.14,8.42,0.16a12.5,12.5,0,0,1,2.14-.27c2.22,0,4.68.05,7.35,0,1.88-.11.55-0.13,1.39-0.23,0.14,0.11,2.8.08,1.43,0.18,3.2,0,4.07,0,8.13-.11-0.44-.05-0.93-0.08-0.68-0.12a4.85,4.85,0,0,1,1.57.12h-0.19c4.55-.18,10.49.43,14.11,0.18h-0.2l3.76-.11c1.73,0-1,.09.24,0.18,4.05-.18,6.4.08,9.74,0,2.58,0.4,9.16.06,12.64,0.34l-0.2-.09a8.58,8.58,0,0,1,1.75.09c-0.09-.07-1-0.09-0.42-0.13,7.63,0,15.75.31,23.57,0.49,2.86,0.06,1.63-.44,5.23-0.18l-1,.15c5.78-.11,11.8.18,17.46,0.11a4.45,4.45,0,0,1-.9.07,26.07,26.07,0,0,0,4.44,0,1.75,1.75,0,0,1,.74.15c1.2,0.09,3-.1,3.64,0a2.19,2.19,0,0,1-.56,0c0.78,0,3.63.08,2.89-.07,2.12,0.1,4.06,0,5.75.13,1.11-.13,3.63.15,4-0.06-0.16.22,3.71,0.26,5.06,0.18-0.45.06,1.16,0.1,0.64,0.18,1.53,0,2.93,0,2.67-.11,2.81,0.34,5.67-.08,7.25.31,4.55,0,8.76,0,12.85.09-0.15.22-4.52-.11-4.35,0.13,3.88,0,6.12-.1,10,0.06,1,0.06-.57.08-0.91,0.11,3.88,0,7.49.29,10.94,0.28a4.94,4.94,0,0,1-.73,0,5,5,0,0,0,1.51,0H313c-1.08-.19,2.71-0.21,2.83-0.29-1.16.24,3.4,0.22,1.55,0.51a1.76,1.76,0,0,0,.91-0.09c0.66,0.05.87,0.1,0.19,0.15,2.43,0.06,1.57-.09,3.78,0a4.74,4.74,0,0,1-.69.1,33.21,33.21,0,0,1,4.1,0c-0.11,0,.1.07-0.45,0,3.2,0.13,5.46.07,9,.38-1,.15,1.19.13,1.36,0.36l1.88,0.12-0.74-.16c1.64,0.16,3.11.16,4.51,0.36L340,109l1.54,0.14,1.54,0.17-1.74-.28c1.68,0.11-.15-0.26,2,0.06-0.45,0,1.64.2,2.49,0.41h0a21.46,21.46,0,0,1,2.87.29c0.31,0.1-.28.17-0.08,0.24,0.82-.06,3.84.48,4.87,0.5-0.34,0-.37.08-0.27,0.11h0.69c0.75,0.17.85,0.2,0.72,0.26,2.26,0.42-.67-0.38,2,0.23-0.21,0-.12,0-0.56-0.06a71.14,71.14,0,0,1,7.6,1.78c0.33,0.2-.2,0-0.71-0.1s-1-.26-0.64-0.07c3.48,0.92,7.24,2.05,10.18,4l-0.27-.19-0.28-.16a3.61,3.61,0,0,1,1.46.88c0.67,0.46,1.34,1.16,2.05,1.68-0.34-.26-0.53-0.25-0.42-0.2l0.67,0.59,0.62,0.67a10.13,10.13,0,0,1,1.24,1.47A6.65,6.65,0,0,1,379,125.6l-0.07-.44a4.39,4.39,0,0,1-.12,1.14,5.26,5.26,0,0,1-.37,1.27,5.86,5.86,0,0,1-.6,1.22,7,7,0,0,1-.69,1c-0.22.39-.76,1.06-0.36,0.71a44,44,0,0,1-5.13,4.37,30.14,30.14,0,0,1-5.47,3.3c0.44-.24,1-0.63.67-0.44l-1.55.89-1.57.85a5.38,5.38,0,0,0,1.15-.42,16.77,16.77,0,0,1-2,1.18c1.41-.79-0.1-0.16-0.75.09,0.12,0-.08.12,0,0.13-1.76.65-.18,0.35-2.54,1.34l0.1-.11c-0.85.44-1.61,0.88-2.55,1.3-0.44.06,0.9-.49,0.91-0.61a37,37,0,0,1-3.74,1.84l1.89-.94a22.22,22.22,0,0,0-2.47,1l0.1,0-2.26.94,0.59-.22c-1.51,1.06-3.34,1.56-5.47,2.78,2.07-1.18.3-.28,0.41-0.49a4.86,4.86,0,0,1-1.24.43c-1,.6-1.79.73-3.18,1.61-0.09,0-1.11.55-.93,0.33-1.33.72,0.36-.09,0.27,0-1,.59-2.22,1.2-3.53,1.93a16.85,16.85,0,0,0-2,1.32,10.6,10.6,0,0,0-.92.87c-0.27.33-.51,0.67-0.76,1a11.37,11.37,0,0,0-1.53,2.75,9.31,9.31,0,0,0-.44,1.22,16,16,0,0,0-.45,1.6c-0.29.85,0-.77,0-0.76a12.66,12.66,0,0,0-.77,3.85c0-.28-0.08,0-0.17.42-0.09,1.11.14,0.75,0,2.2a8,8,0,0,1-.18-1.11,31.76,31.76,0,0,0,.32,3.93c-0.05.36-.2-0.8-0.29-1.27a24.29,24.29,0,0,0,.68,4.33l-0.09-1c0.08,0.54-.08.3-0.15-0.1a4.16,4.16,0,0,1-.12-1.94l0.06,0.47,0.07,0.47c0.16-1-.41-3.81-0.23-5.75l0.07,0.41,0.1,0.4a9.62,9.62,0,0,1,0-1v-1c0.12-.41.25-0.68,0.18,0.26,0.11-.68.18-1,0.19-1.25a3.5,3.5,0,0,1,.25-1.09c0-.12,0-0.06,0,0.06s0.26-1.31.29-1.3c0,0.26.18-.17-0.05,0.61a27.49,27.49,0,0,1,1-2.72,5.2,5.2,0,0,1,.93-1.55l-0.1.17a13.09,13.09,0,0,1,.82-1.23c0.13-.19.12-0.21,0.09-0.22s-0.22,0,.57-1c0,0,.37-0.24.75-0.43l0.78-.36,0.17-.32a2.41,2.41,0,0,1,.79-0.42c1-.77-0.22.05,0.35-0.42,1.47-.77,4-2.23,4.44-2.18,0.48-.37-1.46.63,0.09-0.23,0.57,0,1.82-.93,3.25-1.45-0.37.32-1.7,0.86-.27,0.33a29.58,29.58,0,0,1,3.85-1.74c0-.19,2.51-1.2,4.44-2.14-0.1.12,3.72-1.57,5.55-2.39l0,0.05a29.81,29.81,0,0,1,3.46-1.91,1.85,1.85,0,0,1-.93.69l1.26-.64a11.81,11.81,0,0,1,1.45-.88l-0.25.29c1.66-.89,3.26-1.94,5.35-3.17,0-.18-1.81.73,0.29-0.71,0.12,0,.26.05-0.29,0.44,0.18-.13.63-0.46,1-0.7l-0.39.34-0.4.32a8.07,8.07,0,0,0,1.16-.89c0,0.09.58-.32,0.52-0.18s-0.66.41-.91,0.63c0.83-.55,1.85-1.2,2.2-1.41-0.1,0-.08-0.11.49-0.56a8.28,8.28,0,0,1,1.44-1,6.35,6.35,0,0,0,1.1-1.32,5.47,5.47,0,0,1,.65-0.6l0.66-.92,0.72-1.25c0.33-.85.54-1.45,0.26-1l-0.11.23,0.06-.15h0a7.29,7.29,0,0,0,0-4.89,9,9,0,0,0-.51-1.15l-0.67-1.06a24.27,24.27,0,0,0-1.62-1.83l0,0a20.08,20.08,0,0,0-4.62-3.13,1.78,1.78,0,0,1-.88-0.65l-3.4-1.47a4.21,4.21,0,0,1,1.41.5c-0.85-.42-1.4-0.6-2-0.83a12.84,12.84,0,0,0-2.13-.64c0.69,0.1-1.3-.61-2.19-0.77L363,112c0.31,0.1.62,0.23,0.62,0.23l-2.68-.73,0.51,0c-3.71-1.14-6.86-1.11-9.69-1.88-1,0,2.05.39,1.13,0.39-1.74-.29-3.53-0.78-4.08-0.84-2.39-.4-2.27,0-4.77-0.41,0.31,0.1.6,0.29-1.28,0.12s-2.12-.5-1-0.42a1.79,1.79,0,0,1,.6.11c0.57,0,1.31.11,0.63,0l-0.23,0a23.05,23.05,0,0,1-2.7-.45c-1.34-.07-0.58,0,0.4.17-2.25-.29-3.53-0.36-5.85-0.6,0.37,0.06.7,0.15,0.33,0.12a33.37,33.37,0,0,0-3.82-.1c-1.31-.17.48-0.19-1.85-0.26-1.42-.15-0.29-0.18.28-0.19-2.13,0-4-.31-5.17-0.38h1.12c-0.67,0-1.22,0-1.77-.06l0.63,0.15a5.89,5.89,0,0,1-1.2-.13c-0.68,0,.51.22-0.84,0.26a25,25,0,0,1-3-.23c2.75,0.18-.3-0.17,2-0.09-0.45,0-1,0-1.65-.08-0.1,0,.09,0,0.27,0-2.63-.26-1.22.12-3.94,0,0.35-.08-0.63-0.19-1.07-0.19,1.1,0,.52.17-0.49,0.2-1.75-.13-1.9,0-2.82-0.06l1,0.07a19.07,19.07,0,0,1-2.45,0c-0.1-.07,1.11,0,0.67-0.05-1.36.11-3.05-.27-4.94-0.24-0.87-.09-0.08-0.17-0.85-0.24-2.12,0-2.29-.19-4.51-0.16,0.64,0.14.75,0.11-.82,0.18l3.66,0-2.35.1c1.1,0,2.33,0,3,0-1.12.06-1,0-.48,0.15-1.5-.22-3,0-4.74-0.16L299,106c-2.62-.21-4.67,0-8.07-0.16l1.09,0.08c-0.46.1-2.1,0-3.21,0a2.35,2.35,0,0,0-1.05-.22,26.41,26.41,0,0,0-2.81.12l-1.52-.17c-2.75-.12-3.15.2-5.79,0.1,0.8-.09-0.4-0.19,1.37-0.22a8.62,8.62,0,0,0-1.69,0c-0.51-.07-2.45.08-3.26,0a6.2,6.2,0,0,1-1.49.11c-0.11,0,0,0,0,0s-1.55,0-.69.16c-2.71-.36-7.6-0.14-10-0.45l-6,0a0.48,0.48,0,0,1,.34,0c-2.41-.13-1.49.26-4.23,0.11-1.4-.18,1.46-0.06.59-0.14-0.38-.33-3.31,0-5.16-0.24h0.45c-1.41-.14-3.45.07-5.76,0,0,0,.11,0,0,0-1.58.14-4.57,0.15-6.79,0.16,0.69-.12,1-0.05.59-0.19-1,0,.29.21-1.7,0.22a14.13,14.13,0,0,1-2.27-.3l1.87,0a25.67,25.67,0,0,0-3.41-.07l0.13-.08c-2.87,0-2.91.18-6,.13l0.32,0.06c-1.69.17-1.41-.13-3.1,0l-0.51-.2c-1.11,0-3.9.14-5.9,0.15,1.13-.14,3.47-0.18,4.92-0.25-1.1,0-3.75,0-4.33.06a14,14,0,0,1,1.44,0,48.32,48.32,0,0,1-5.34.17c0.39-.38-5.73-0.16-7.32-0.48-3.89.1-7.71-.14-12.25-0.16,1.6,0.31-1.32,0-1,.3a14.73,14.73,0,0,1-1.55,0l-3.2-.21c-0.76-.09,1-0.06.91-0.13a16.12,16.12,0,0,1-2.5-.23c0.31,0.11-.8.15-2.12,0.1l1.85,0.16c-3.23.14-2.79-.28-6-0.14l1-.09c-1.67,0-6.16,0-7.8.19-0.3,0-.69-0.12.05-0.14-4-.07-8.89.22-12,0.05l0.3-.07a16.74,16.74,0,0,1-2.23.06s0.3-.07,0-0.08-2,.13-3,0.08l0.84-.08c-3.91-.13-6,0.29-9.24.39,0-.22-3.05-0.22-4.58-0.23l0.05,0c-2.26.09-4.18,0-6.06,0h-5.81l-5.87-.55c-2.39-.22-5-0.44-7-0.68,0.63,0.08-.13.19-0.86,0.08-1-.18-2.7-0.23-2.52-0.41l0.35,0.05a27.65,27.65,0,0,0-4.26-.77l-0.3.22c-1-.25-2.17-0.44-3.39-0.65s-2.48-.5-3.68-0.73a47.06,47.06,0,0,1-5.67-1.25c-1-.15-2.16-0.51-3.13-0.69l0.09-.12-7.23-2,0.68,0.13c-1.81-.63-2.41-0.39-4.09-1L83,95.26c-1.58-.55-3.17-1.08-4.72-1.72s-3.08-1.3-4.64-1.84a1.35,1.35,0,0,1,.68.17l-3.27-1.4c-1.14-.52-2-0.94-1.83-0.68,0-.19-3.08-1.54-4.74-2.26h0.32c-0.72-.26-1.1-0.38-1.54-0.55s-0.91-.45-1.84-1c-0.43-.27-0.33-0.32.23,0-1.42-.9-1.2-0.54-2.93-1.62l0.7,0.3a13.15,13.15,0,0,0-2.28-1.15,13.33,13.33,0,0,1-2.9-2,9.22,9.22,0,0,1-1.91-1.1c-0.09-.12.24,0.07,0.4,0.16-1.18-.84-2.1-1.4-2.92-1.91A25.38,25.38,0,0,1,47.58,77a0.63,0.63,0,0,0-.22-0.27l2.31,1.77c0.58,0.43.94,0.65,0.87,0.61S49.1,78,50.42,78.64a53.1,53.1,0,0,1-4.8-3.32,1.74,1.74,0,0,1-.16-0.18l0.16,0.1C45.29,75,45,74.77,44.69,74.57c-0.45-.36-0.73-0.6-1.14-1a26,26,0,0,0-2.26-2c0,0.16-.94-0.65-0.15.18a3.81,3.81,0,0,1,.61.5l0.31,0.25-0.06,0,1.74,1.5a13.51,13.51,0,0,1-1.94-1.61l-1.13-.67c-0.84-1-2.61-2.65-2.74-3-2.07-1.91-4.81-4.58-6.15-5.77a3.75,3.75,0,0,1-.74-1c0.33,0.33.7,0.74,0.9,0.89-1.13-1.14-3.24-3.48-3.58-3.7-1.22-1.62.85,0.77-.93-1.37L27.72,58c-0.81-1.11-1.58-2.07-2.35-3L23.2,52.31c-0.71-.9-1.47-1.8-2.19-2.84S19.58,47.28,18.83,46a4,4,0,0,1,.34.63c-3.62-5.89-7.36-12.25-9.81-18.65a31,31,0,0,0-1.43-3V24.48L7,22.65c-1.13-2.65-1.35-4.8-2.65-8.2l0,0.48a30.62,30.62,0,0,1-1-3.78,2.59,2.59,0,0,1-.29-0.89l0.07-.06L2.7,8.65C2.47,7.88,2.27,7.11,2.27,7.11c-0.47-2.44.36,0.32-.34-3.24A23.85,23.85,0,0,0,1.1.64a6.11,6.11,0,0,1,.08,1.43L1,0.86C0.71,0.66.29-.25,0.62,2.8c0,0,.12.52,0.26,1l0.27,1,0,0.7L0.83,3.81a9.31,9.31,0,0,0,.53,2.32,3.6,3.6,0,0,0,.07.9L1.76,8,2.12,9c0,0.27-.4-0.87-0.11.51,0.34,0.92,0-1,.43.59A5.2,5.2,0,0,0,2.83,12c0,0.18-.12-0.06-0.27-0.5,0.36,1,.77,2.71,1.07,3.19,0.19,1,1.1,3.41.87,3.38,0.16,0.3.78,1.71,1.11,2.63-0.42-.8-0.12.07,0.23,1.09s0.82,2.17.6,2a28.24,28.24,0,0,1,1.31,2.89c0.53,1.21,1.11,2.53,1.63,3.58a3.2,3.2,0,0,1-.28-0.53L10,32.08a20.37,20.37,0,0,1,1.76,2.84c0.53,1.54-.63-0.78-0.57-0.24,0.08-.13,1.41,2.43,1.28,1.88a7.53,7.53,0,0,1,.6,1.6c0.32,0.08.58,1,1.19,1.83a8.49,8.49,0,0,0,1.08,2.17C15.79,43,14.83,41.52,14.83,41.52ZM45.47,76.3h0l-0.77-.58Zm3.11,2.37-1.35-1c-0.08-.12.07-0.07,0.38,0.17A8.22,8.22,0,0,0,48.58,78.67ZM42.7,72.82a3.19,3.19,0,0,1,.66.62l-0.82-.69-0.07,0A0.85,0.85,0,0,1,42.7,72.82Z" fill="#2b2721"/>
    <path d="M41.74,72.23l-0.2-.16,0.26,0.26L42,72.45Z" fill="#2b2721"/>
    <path d="M379,127.62l0-.08-0.09.16Z" fill="#2b2721"/>
    <polygon points="97.56 100.69 97.56 100.65 97.22 100.61 97.56 100.69" fill="#2b2721"/>
    <path d="M362.13,140.35a1.46,1.46,0,0,0-.27.09Z" fill="#2b2721"/>
    <path d="M353.72,144.25l-1.22.49Z" fill="#2b2721"/>
    <path d="M347.18,147.11a0.36,0.36,0,0,0-.1.11h0Z" fill="#2b2721"/>
    <path d="M312.16,107.5h-0.28C311.24,107.5,311.68,107.51,312.16,107.5Z" fill="#2b2721"/>
    <path d="M345.83,109.48l-1.09-.06A2.7,2.7,0,0,0,345.83,109.48Z" fill="#2b2721"/>
    <path d="M274.48,106.6h0Z" fill="#2b2721"/>
    <path d="M343.18,109.23c0.59,0.1,1.09.15,1.56,0.19C344.25,109.35,343.68,109.26,343.18,109.23Z" fill="#2b2721"/>
    <path d="M331.65,170.68l0,0.34s0,0,0,0Z" fill="#2b2721"/>
    <path d="M331.71,171.06l0.07,0.38A2.24,2.24,0,0,0,331.71,171.06Z" fill="#2b2721"/>
    <path d="M331.93,172.23l-0.15-.79A4.83,4.83,0,0,0,331.93,172.23Z" fill="#2b2721"/>
    <path d="M331.8,161.14l0-.12A0.14,0.14,0,0,0,331.8,161.14Z" fill="#2b2721"/>
    <path d="M332.65,158.33l-0.49,1.17a12.58,12.58,0,0,0-.4,1.42l0,0.1a9.23,9.23,0,0,1,.36-1.29A13.38,13.38,0,0,0,332.65,158.33Z" fill="#2b2721"/>
    <path d="M341.48,150.54l-1.07.55c-0.53.28-1,.58-1,0.58,0.39-.16.9-0.38,0,0.18C342,150.5,338.71,152,341.48,150.54Z" fill="#2b2721"/>
    <path d="M348.23,147.4c-1.17.56,0,.07,0,0.12C348.95,147.14,349.12,147,348.23,147.4Z" fill="#2b2721"/>
    <path d="M370.18,114.68l0.18-.06C369.43,114.22,370.33,114.66,370.18,114.68Z" fill="#2b2721"/>
    <path d="M360.23,112l0.46,0.15,0.46,0.16h0.47l-0.69-.16C360.58,112.06,360.23,112,360.23,112Z" fill="#2b2721"/>
    <polygon points="354.44 109.9 354.87 109.95 353.21 109.72 354.44 109.9" fill="#2b2721"/>
    <path d="M264,105.14l0.3,0.16C265,105.29,265.13,105.12,264,105.14Z" fill="#2b2721"/>
    <path d="M224.93,104.68a9.94,9.94,0,0,0-2.2-.08C223.61,104.62,224.49,104.69,224.93,104.68Z" fill="#2b2721"/>
    <polygon points="107.97 101.46 108.76 101.52 107.29 101.35 107.97 101.46" fill="#2b2721"/>
  </g>
</svg>
