<svg id="Layer_1" data-name="Layer 1" xmlns="http://www.w3.org/2000/svg" width="292" height="190" viewBox="0 0 292 190">
  <title>logo</title>
  <g>
    <path d="M46.13,120.21a0.57,0.57,0,0,0-.37.64,1.22,1.22,0,0,1-.28,1c-0.18.37-.92,0.18-0.73,0.64,0,0.28.09,0.55,0.09,1,0.74-.27,1.1-1.19,1.93-1.29a13.91,13.91,0,0,1,1.84-.55,0.75,0.75,0,0,1,.73-0.18,1.23,1.23,0,0,0,1.57-.1,21.67,21.67,0,0,1,2.67-2.48,0.8,0.8,0,0,1,.92-0.46,16.73,16.73,0,0,0-1.19,1.47A10.11,10.11,0,0,0,52,121.4a0.75,0.75,0,0,0,.83-0.37c0.83-.64,1.66-1.65,2.48-2.3,0.28-.27.28,0,0.37,0.19v0.37H56a1.54,1.54,0,0,1-.09.74,36.68,36.68,0,0,1-3.31,3.31c-0.55.46-.92,1.38-1.65,1.66a1.23,1.23,0,0,0-.18.37c0,1.29.37,2.39,0.46,3.59L51.37,129c0,1.56.74,3,1,4.69v0.64c0.74,1.29,1,2.76,1.65,4.14a27.5,27.5,0,0,1,1.29,3.32,2.26,2.26,0,0,1,.18.46,17.24,17.24,0,0,1,1.29,2.3,5.33,5.33,0,0,0,1.1,2.3c0.55,0.74.55,1.57,1,2.21a0.66,0.66,0,0,1,.19.55,4.6,4.6,0,0,1,.83,1.29,7.1,7.1,0,0,0,1.47,1.47,1.82,1.82,0,0,1,.83,1.75c0,0.65.65,1.1,0.65,1.84a0.18,0.18,0,0,0,.18.19v-0.37a0.43,0.43,0,0,1,.55-0.09,1.26,1.26,0,0,1,.46.92,0.37,0.37,0,0,0,.19.37,0.82,0.82,0,0,1,.83.92,1,1,0,0,0-.18,1c0.46,0.55.65,1.1,1.57,1.1,0.18,0.19.18,0.55,0.27,0.55C67.66,161,68,161.79,69,162.07a0.49,0.49,0,0,1,.27.37c0.09,0,.09-0.18.09-0.37a2.16,2.16,0,0,1,1.84,1.29c-0.18,0-.37,0-0.37.18a0.66,0.66,0,0,0,.37.19v-0.37h0.27a0.36,0.36,0,0,1,.37.18c0.37,0.46,1,.46,1.38,1l1.56,1.2c0.18,0.28.37,0.46,0.55,0.28a0.79,0.79,0,0,1,1.2.18c0.46,0.64,1.29.46,2,.83a2.37,2.37,0,0,0,2-.37,5.37,5.37,0,0,0,2.76-2.39,16.82,16.82,0,0,0,2.3-5.15l0.55-1.84a9.59,9.59,0,0,0,.83-2.94,4.37,4.37,0,0,1,.37-1.84,0.09,0.09,0,0,1,.09-0.09c0.18,0,.18,0,0.18.09a23.87,23.87,0,0,1-.18,5.15,0.52,0.52,0,0,0-.09.55c0.09,1.38-.74,2.58-0.83,3.86a3.74,3.74,0,0,0-.46.83,1.19,1.19,0,0,0-.46.64c0.18,0.83-.46,1.29-0.92,1.93a12.39,12.39,0,0,1-4.14,3l-1.66.64H78.24c-1-.46-2.21-0.19-3.31-0.46C74,168.51,73,168,72,167.87c-0.18,0-.46-0.09-0.55-0.09a4.84,4.84,0,0,1-1.47-.92c-0.64-.18-1-0.55-1.56-0.64a8.18,8.18,0,0,0-1.47-.83c-1.75-1.65-3.68-2.85-5.15-4.41a42.34,42.34,0,0,1-3.31-3.77l-4-5.34c-0.83-1.38-1.47-2.67-2.3-4.14a18.4,18.4,0,0,0-2.12-4c-0.74-1.84-1.66-3.59-2.3-5.43a6.51,6.51,0,0,1-.46-1.19,49.51,49.51,0,0,1-2-5.52v-0.55c-0.18-.46-0.37-0.46-0.46-0.28a26.71,26.71,0,0,0-3.49,3.77,3.54,3.54,0,0,1-1,1,10.39,10.39,0,0,0-1,1,1.36,1.36,0,0,1-.65.09v-0.09A3.67,3.67,0,0,1,38.5,136L38,136.4c-0.18.18-.18,0.27,0,0.27h0.65a1,1,0,0,1-.37,1c-0.55.64-1.29,1.19-1.93,1.93a4.69,4.69,0,0,0-1.1,1.47,2.19,2.19,0,0,1-.83.74,0.32,0.32,0,0,0-.37.27,0.61,0.61,0,0,1-.64.74,9.44,9.44,0,0,1-2.3,3,1.58,1.58,0,0,1-.37.28c0,1.1-.83,1.56-1.75,2.21-0.09,0-.37.18-0.27,0.37,0.18,0.83-.74,1.2-0.92,1.75h0.37a2.41,2.41,0,0,0,.46.18,0.7,0.7,0,0,0-.18.28c-0.18,0-.18.09-0.28,0.28a6.67,6.67,0,0,0-1.38,1c0,0.74-.83.92-1.1,1.66a2.77,2.77,0,0,1-.83.92,6.91,6.91,0,0,1-.74.36c0.09,0.56-.46.83-0.64,1.47a0.92,0.92,0,0,1-.09.28c-0.55.37-.74,1.2-1.38,1.38a3.15,3.15,0,0,1-.09.64,4.47,4.47,0,0,1-1.56,1.66c0-.19,0-0.55-0.28-0.37l0.28,0.37a0.52,0.52,0,0,1-.46.65c0,0.73-.18,1.19-0.74,1.28,0.09,0.83-.55,1.47-0.55,2.21,0,0.46-.46-0.19-0.55,0a4.34,4.34,0,0,0-.92.83c-0.28,1.66-1.47,2.49-2.21,3.59a1.28,1.28,0,0,1,.37.46c0.09,0,0,.18-0.18.36l-0.19-.18v-0.64a28.93,28.93,0,0,0-2.76,3.77l-0.55,1.47a7.34,7.34,0,0,1-.92,1.66c-0.55,1-1.2,1.2-2.11.55a2,2,0,0,1-.74-0.73L7.4,174.3a1.76,1.76,0,0,0-.27-0.37,0.93,0.93,0,0,1-.37-1.38c0.28-.55.09-1.29,0.37-1.93a25.16,25.16,0,0,1,1.47-2.76,23.87,23.87,0,0,0,2.11-3.5l0.64-1c0.83-.83,1.84-1.38,2-2.76,1-.55,1.29-1.47,1.93-2.39,1.11-1.74,2.58-3,3.77-4.88,0.18-.46.83-0.83,1-1.38A5.32,5.32,0,0,0,21.94,150,3,3,0,0,0,23,148.54a6.38,6.38,0,0,1,1.38-1.38,0.59,0.59,0,0,0,.46-0.46,6.84,6.84,0,0,1,1.28-1.56,6,6,0,0,0,.83-1.57c1.47-2.48,3.32-4.88,5-7.36a10.34,10.34,0,0,1,1.93-2.85c0.18-1.47,1.2-2.3,1.84-3.4s1.29-2.12,1.84-3.31c0.64-1,1.11-1.94,1.75-2.85a20.88,20.88,0,0,0,1.84-3.4,20.21,20.21,0,0,1,1.38-2.86,18.25,18.25,0,0,0,2-4.79c0.74-2.94,2-5.61,2.85-8.64a3.9,3.9,0,0,0,.37-1.38,2.77,2.77,0,0,1,.28-1.47,0.8,0.8,0,0,0,.18-0.65c-0.18-.46-0.64-0.83-0.37-1.19s0-.73.19-1.1a2.84,2.84,0,0,0,0-1.93,1.45,1.45,0,0,1-.28-0.83,1.7,1.7,0,0,0-1.38-1.93c-0.37-.09-0.83,0-1.29-0.09a1.9,1.9,0,0,0-1,0,11.75,11.75,0,0,0-3.12.64,7.74,7.74,0,0,1-2.3.83l-2.12.83c-0.55.37-1.47,0-2,.55a7,7,0,0,1-1.47,1,4.3,4.3,0,0,0-.83.28c-0.18.18-.46,0-0.64,0.18-1.29,1.47-3.31,1.93-4.6,3.31l-0.55.28a24.24,24.24,0,0,0-5.33,4.41c-1.2,1.2-2.48,2-3.68,3.13a13.57,13.57,0,0,0-1,1.2c-1.11,1.1-2.12,2.57-3.32,4l-2.57,3.5a19,19,0,0,0-2.67,4.78,0.32,0.32,0,0,1-.18.37,18.55,18.55,0,0,0-1.84,5.89,6.7,6.7,0,0,1-.46.74,5.48,5.48,0,0,0-.73,3.87,4,4,0,0,0,.27.73c0.65,0.65,1.2,1,1.66,1.57a3,3,0,0,1,.64,1.19,2,2,0,0,1-.37.64,9,9,0,0,1-1.93-.92,15.19,15.19,0,0,1-2.58-3.31A9.59,9.59,0,0,0,2,132.35a4.87,4.87,0,0,1-.65-4,1.56,1.56,0,0,0,0-1.29c-0.18,0-.18-0.36,0-0.46a4.07,4.07,0,0,1,.74-1.38c0.28-.46,0-1,0.28-1.47a3.35,3.35,0,0,0,.55-0.92,1.94,1.94,0,0,0,.74-1.56,8.63,8.63,0,0,1,1.28-3.13C5.93,116.62,7,115,8,113.31c0-.18.19-0.18,0.28-0.56,0.27-.09.37-0.09,0.83,0.37a0.37,0.37,0,0,0-.46.37,0.42,0.42,0,0,0,.46-0.37l0.37-.19A15.48,15.48,0,0,0,11,110.73c1.38-1.75,2.94-3,4.41-4.7a2.16,2.16,0,0,0,.74-0.83,0.59,0.59,0,0,0,.46-0.46H16.14a2.22,2.22,0,0,0,.28-0.82,10.16,10.16,0,0,1,1.84-1.66c0.83-.64,1.47-1.28,2.11-1.84,1-1.1,2.48-1.74,3.59-2.76a32.38,32.38,0,0,0,3.22-2.12c0.56-.37,1.11-0.18,1.47-0.64a3.22,3.22,0,0,1,1.29-.55,12.3,12.3,0,0,0,2.67-1.47,3.83,3.83,0,0,1,1.47-.18c0,0.18,0,.37.37,0.18a0.65,0.65,0,0,1-.37-0.18,1.1,1.1,0,0,1,.83-0.83,18.15,18.15,0,0,1,2.85-.64c0.74-.19,1.28-0.46,2-0.64a3,3,0,0,0,1.75-.37,4,4,0,0,1,1.47,0,10.24,10.24,0,0,0,3.31.83,2.56,2.56,0,0,1,1.11.37c0.65,0.46,1.2,1.1,1.84,1.47,0.09,0,.09,0,0.09.19,0.37,1.29,1.75,2.12,1.84,3.59,0.37,0.46.18,0.73-.27,1a4.46,4.46,0,0,0-.55.64,1.11,1.11,0,0,0,0,1.47,7,7,0,0,0,.37.83c-0.18.19-.56,0-0.18,0.28a0.34,0.34,0,0,0,.18-0.28,0.83,0.83,0,0,1,.64-0.27c0.19-.19.28,0,0.46,0-0.46.64,0.28,0.92,0.37,1.38a1.52,1.52,0,0,1,.18,1.93,1,1,0,0,0-.18,1c0,0.27-.18.73-0.18,1s-0.46,1-.18,1.47a3.56,3.56,0,0,0-.73,1.29c-0.18,0-.18,0-0.18.09a6.09,6.09,0,0,1-.37,1.84,2.23,2.23,0,0,0-.92,1.29,2.83,2.83,0,0,1-.09.83c0.37,0.73-.19.64-0.46,0.64,0,0.18-.74.64,0.18,0.82v0.28a0.34,0.34,0,0,1-.18.28,2.42,2.42,0,0,0-.65,1.1,7.74,7.74,0,0,0-1.1,2.48,2.13,2.13,0,0,1-.92,1.1,1.13,1.13,0,0,0-.28,1,0.74,0.74,0,0,1,.28.19C46.13,120.57,46.13,120.39,46.13,120.21ZM8.69,113.49c-0.09,0-.37,0-0.09.27A0.7,0.7,0,0,1,8.69,113.49Zm3.77,50.79c-0.28,0-.46.09-0.46,0.27-0.37.28-.37,0.92-0.18,0.83l0.55-.65A3.67,3.67,0,0,1,12.46,164.28Zm0.37-.37a0.32,0.32,0,0,0-.37.28A0.41,0.41,0,0,0,12.83,163.91Zm0.27-.55a1,1,0,0,0-.09.37C13.1,163.73,13.2,163.73,13.1,163.35Zm0.56-.83c-0.19,0-.46,0-0.19.37A0.65,0.65,0,0,0,13.66,162.52Zm0.27-.73-0.09.19a0.67,0.67,0,0,0-.18.55,2.15,2.15,0,0,0,.46-0.46A0.34,0.34,0,0,1,13.93,161.79Zm0.74-56.58c0.18,0.18.18,0.37,0,.37v-0.37Zm1,61.46c-0.09,0-.28,0-0.09.37A0.54,0.54,0,0,0,15.68,166.67Zm0.09-61.74a0.57,0.57,0,0,1,.37-0.18v0.37A0.65,0.65,0,0,0,15.77,104.93Zm0.09,61.64a0.79,0.79,0,0,0,.28-0.27A0.75,0.75,0,0,0,15.86,166.58Zm0.56-.55c-0.09,0-.09.18-0.09,0.28C16.42,166.21,16.6,166.3,16.42,166Zm0.82-61.92a0.69,0.69,0,0,0-.27.27C17.15,104.2,17.43,104.38,17.24,104.11Zm0.46,55.38V159.4l-0.09.09h0.09Zm0.55,3.5c-0.09,0-.37,0-0.18.27Zm0.46-.47a0.44,0.44,0,0,0-.46.47A0.48,0.48,0,0,0,18.72,162.52Zm0.37,0a0.7,0.7,0,0,1-.18-0.28c-0.18.18-.18,0.18-0.18,0.28h0.37Zm-0.18-4.6a0.71,0.71,0,0,1,.18-0.28C18.9,157.65,18.72,157.65,18.9,157.93Zm0.55-55.67H18.9v0.19a0.7,0.7,0,0,0,.27.18Zm-0.28,55.2a0.68,0.68,0,0,1,.28-0.27,0.72,0.72,0,0,1-.19-0.28,0.09,0.09,0,0,0-.09.09v0.46Zm0.74,3.78a0.75,0.75,0,0,1-.18-0.28H19.27a0.09,0.09,0,0,1-.09.09,0.44,0.44,0,0,0,.46.19C19.64,161.42,19.73,161.24,19.91,161.24Zm-0.18-59.16c-0.09,0-.09.18-0.09,0.18S19.91,102.26,19.73,102.08Zm0.37,54.1h0.09V156Zm0.46-1c-0.09,0-.18,0,0,0.28v-0.28Zm0-53.91-0.09-.09v0.09h0.09Zm0.64,57.5c-0.09.19-.46,0-0.28,0.37C21.11,159.12,21.11,158.94,21.2,158.75Zm0-4.23c0.18,0,.46,0,0.18-0.18A0.33,0.33,0,0,1,21.2,154.52Zm0.46,4c-0.27,0-.46.09-0.46,0.27A0.77,0.77,0,0,0,21.66,158.48ZM21.57,100.7c-0.09.09-.37,0-0.18,0.18A0.2,0.2,0,0,0,21.57,100.7Zm0.18-.37a0.33,0.33,0,0,0-.09.27C21.66,100.52,21.75,100.42,21.75,100.33Zm0.18,58a0.26,0.26,0,0,0-.18-0.19,0.33,0.33,0,0,1-.09.19h0.28Zm0.28-58.52c0,0.19-.18.19-0.18,0.37C22.21,100.15,22.4,100.15,22.21,99.78Zm0,53.36H22l0.18,0.18v-0.18Zm0.64,3.13c-0.19.19-.46,0-0.19,0.37A0.63,0.63,0,0,0,22.86,156.27Zm0.18-.64-0.09.09c0,0.09-.09.46-0.09,0.55l0.37-.46A0.35,0.35,0,0,1,23,155.63Zm0.09-56.22c-0.18,0-.28.09-0.09,0.37A0.55,0.55,0,0,1,23.13,99.41ZM23.68,99a0.61,0.61,0,0,0-.46.37A0.42,0.42,0,0,0,23.68,99Zm0.18-.27a0.18,0.18,0,0,1-.18.18C23.87,98.86,24.14,99,23.87,98.68ZM24.14,155c-0.18-.18,0-0.27-0.27-0.18A0.34,0.34,0,0,0,24.14,155Zm0.28-1.1c-0.18,0-.28,0-0.18.28C24.42,154,24.42,154,24.42,153.88Zm0-51.8H24.23v0.18Zm0.46,51.24a0.47,0.47,0,0,0-.37.56A0.46,0.46,0,0,0,24.88,153.32Zm0-55.2c-0.19,0-.37,0-0.19.28C24.88,98.31,24.88,98.31,24.88,98.12Zm0.83-.46c-0.37,0-.74,0-0.74.46A0.61,0.61,0,0,0,25.71,97.67Zm-0.56,55.47-0.18.18C25.15,153.32,25.34,153.32,25.15,153.14Zm0.56-.92c-0.19,0-.37,0-0.19.28A0.72,0.72,0,0,1,25.71,152.22ZM26.17,97.3a0.61,0.61,0,0,0-.46.37A0.42,0.42,0,0,0,26.17,97.3Zm0,3.59L26,100.79s-0.18,0-.18.09h0.36ZM26,147.25H25.8c0,0.19,0,.19.18,0.19v-0.19Zm0,4.69s-0.18-.09-0.18,0v0.18ZM26.44,97l-0.28.28C26.35,97.3,26.54,97.3,26.44,97Zm0.55,49a1,1,0,0,0-.46.18l0.19,0.36c0.09,0,.09,0,0.09-0.18A1.38,1.38,0,0,1,27,146.06Zm0.46-.46a0.45,0.45,0,0,0-.46.28A0.51,0.51,0,0,0,27.46,145.6ZM27.27,96.47l-0.09.19h0.09V96.47Zm0.55,48.3c-0.55,0-.37.37-0.37,0.65C27.82,145.42,27.74,145,27.82,144.77Zm-0.09,5.7c-0.1,0-.28,0-0.1.37C27.74,150.84,27.74,150.66,27.74,150.47Zm0.46-6.16a0.37,0.37,0,0,0-.37.46A0.42,0.42,0,0,0,28.19,144.31Zm0.46-.92a0.75,0.75,0,0,0-.37.92A0.75,0.75,0,0,0,28.65,143.39ZM28.47,95.83H28.28L28.47,96V95.83Zm1,46.46a1,1,0,0,0-.83,1.11A1,1,0,0,0,29.48,142.29Zm0.18-.28-0.18.28A0.68,0.68,0,0,0,29.66,142Zm0.46-47c0-.09,0-0.09-0.18-0.18,0,0.09-.18.09-0.28,0.09a0.09,0.09,0,0,0,.09.09h0.37Zm0,46.46a0.57,0.57,0,0,1-.18.37C30.13,141.64,30.31,141.64,30.13,141.46Zm1.38-2.12c-0.09,0-.27,0-0.09.27A1,1,0,0,1,31.5,139.34Zm0.09-.18c0.18,0,.37,0,0.18-0.28A0.33,0.33,0,0,0,31.6,139.16Zm0.18,4.41H31.6l0.18,0.09v-0.09Zm0.64-3.77a0.36,0.36,0,0,0-.37.18c0,0.18,0,.37.18,0.37l0.19-.18V139.8Zm-0.19-1.48a0.68,0.68,0,0,0,.19-0.27C32.24,138.06,32,138.06,32.24,138.33Zm0.55-1.19a0.87,0.87,0,0,0-.37.92A0.82,0.82,0,0,0,32.79,137.14Zm-0.28,2.48c0.09,0,.18,0,0.09-0.27C32.61,139.53,32.61,139.62,32.52,139.62ZM33,136.86c0,0.18,0,.18-0.18.28C33,137.14,33.25,137.14,33,136.86Zm0.73,1.2c-0.28,0-.46,0-0.28.27C33.53,138.33,33.53,138.15,33.71,138.06Zm-0.28-1.75,0.28-.28C33.53,136,33.25,136,33.44,136.31Zm0.64,0.83c-0.55.18-.37,0.55-0.37,0.92C34.08,137.87,33.9,137.59,34.08,137.14ZM33.71,136c0.18-.19.37-0.19,0.18-0.46A2.36,2.36,0,0,0,33.71,136Zm0.55,0.83a0.71,0.71,0,0,1-.19.28C34.27,137.14,34.54,137.14,34.27,136.86Zm0.28-2.76s0.18,0,.18.09c0-.09,0-0.09.19-0.09a0.18,0.18,0,0,1-.19-0.18A0.18,0.18,0,0,0,34.54,134.1Zm0.37,6.25-0.19-.18-0.18.18A0.28,0.28,0,0,0,34.91,140.35Zm0.28-47.84s-0.09,0-.09-0.18c0,0.18-.09.18-0.09,0.18l0.09,0.09Zm-0.09,1.66V94.08L35,94.17h0.09Zm0.19,38.92c-0.19,0-.37,0-0.19.28A0.76,0.76,0,0,0,35.28,133.08Zm0,5c-0.19.09-.37,0-0.19,0.27A0.68,0.68,0,0,0,35.28,138.06Zm0-5.16c0.18,0,.27,0,0.09-0.27C35.37,132.81,35.37,132.9,35.28,132.9Zm0.46,4.69a0.58,0.58,0,0,0-.46.46A0.43,0.43,0,0,0,35.73,137.59ZM35.55,95.36H35.37c0,0.18,0,.18.18,0.18V95.36Zm0.37,42c0,0.18,0,.18-0.18.28C35.92,137.59,36.2,137.59,35.92,137.32Zm0.18-5.42c-0.18,0-.37,0-0.09.18A0.28,0.28,0,0,1,36.1,131.89Zm0.09-.09c0.09,0,.37,0,0.09-0.37A0.92,0.92,0,0,1,36.2,131.8ZM36.38,95c0-.09,0-0.09-0.09-0.09V95h0.09Zm0.18,38.09c-0.18,0-.37,0-0.18.28C36.38,133.27,36.38,133.27,36.56,133.08Zm0.28-2.48s-0.28,0-.09.28A0.46,0.46,0,0,0,36.84,130.6Zm0.37-37.26H37l0.18,0.18V93.34ZM37,130.42c0.18,0,.37,0,0.18-0.19A0.2,0.2,0,0,1,37,130.42Zm0.37,1.38a0.69,0.69,0,0,0-.37.83C37.48,132.53,37.39,132.07,37.39,131.8Zm0,6.07a0.18,0.18,0,0,0-.19-0.18H37a0.18,0.18,0,0,0,.18.18h0.19Zm0.18-43.33a0.09,0.09,0,0,0-.09.09h0.28C37.76,94.54,37.58,94.54,37.58,94.54Zm0,36.89a0.56,0.56,0,0,0-.09.37C37.58,131.8,37.76,131.8,37.58,131.43Zm0.28-.64H38V130.6Zm1-37.91H38.31a0.57,0.57,0,0,0,.37.19A0.18,0.18,0,0,0,38.87,92.88Zm-0.09,1.29a0.09,0.09,0,0,1-.09-0.09,0.92,0.92,0,0,0-.37.09l0.18,0.18A0.48,0.48,0,0,0,38.77,94.17ZM38.5,130a0.67,0.67,0,0,0,.18-0.27C38.5,129.77,38.22,129.77,38.5,130Zm0.18-3s0,0.09.18,0.09v-0.28ZM39,128.94c-0.36.09-.36,0.37-0.36,0.83A0.87,0.87,0,0,0,39,128.94Zm0.18-.37a0.56,0.56,0,0,1-.18.37C39.23,128.94,39.51,128.94,39.23,128.58Zm1.48,4a1.13,1.13,0,0,0-.92.27c0,0.18-.27.18-0.09,0.46h0.36a1.36,1.36,0,0,1,.65-0.28v-0.46Zm-1-1.38a0.33,0.33,0,0,0,.27.18C39.78,131.25,40,130.88,39.7,131.25Zm0.36-37.63a0.09,0.09,0,0,1-.09.09c0.09,0,.09.18,0.09,0.18C40.15,93.71,40.15,93.71,40.06,93.61ZM40,131.43l0.09,0.19c0.09,0,.09-0.19.09-0.19H40Zm0.09-38.92V92.6l0.09-.09H40.06Zm0.28,38.92a2.32,2.32,0,0,0,.83-0.83C40.34,130.6,40.34,130.6,40.34,131.43Zm0.37,2.39c-0.18.1-.55,0-0.18,0.37C40.52,134.1,40.71,133.92,40.71,133.82Zm1.56-1.47a0.9,0.9,0,0,1-.28-0.09H41.54v-0.83a0.94,0.94,0,0,0-.74,1.2h0.37a0.81,0.81,0,0,1-.37.46v0.74a1,1,0,0,0,.74-1.19H41.17a0.69,0.69,0,0,1,.37-0.37v0.37H42Zm-1.1-1.93a2,2,0,0,0,1.2-1.11C41.35,129.5,41.17,129.59,41.17,130.42Zm0.37,1a0.46,0.46,0,0,0,.46-0.55C41.63,130.88,41.54,131.06,41.54,131.43Zm0.83-.83c-0.28,0-.37,0-0.37.28C42.27,130.88,42.36,130.79,42.36,130.6Zm0-1.29c0.64-.55,1.2-1.19,1.75-1.56a0.81,0.81,0,0,0,.37-0.46,0.35,0.35,0,0,0-.18-0.28,0.51,0.51,0,0,0-.46-0.18c-0.37.46-1,1-1.47,1.47C41.81,128.58,42.27,128.94,42.36,129.31Zm1.2,0a3.51,3.51,0,0,0-1.2,1.11h0.92a3.69,3.69,0,0,1,.28-0.37v-0.74Zm-0.09-3h0.18A0.42,0.42,0,0,0,44,126v-0.83a0.18,0.18,0,0,0-.18-0.18,0.18,0.18,0,0,0-.19.18l-0.37.65C43.28,126,43.47,126.09,43.47,126.28Zm0.09,4.32H43.28a0.71,0.71,0,0,0,.28.18V130.6Zm0.09-1.29a0.39,0.39,0,0,0,.37-0.37A0.34,0.34,0,0,0,43.65,129.31ZM44.75,130c-0.18,0-.28-0.18-0.46-0.18l-0.65.46v0.19a1.5,1.5,0,0,0,.92-0.19A0.67,0.67,0,0,1,44.75,130ZM44.11,119l0.18,0.18V119H44.11Zm0.18,9.57c-0.18,0-.18.18-0.18,0.37C44.29,128.94,44.48,128.94,44.29,128.58Zm0.55-5.06c-0.09,0-.37,0-0.09.28A0.94,0.94,0,0,0,44.84,123.52Zm0.64-7.73V116l0.09-.18V115.6C45.49,115.6,45.49,115.6,45.49,115.79ZM46,92.88l-0.1-.18c0,0.18,0,.18-0.18.18a0.18,0.18,0,0,1,.18.19S46,93.06,46,92.88Zm0.73,20.8v0.09l0.09-.09H46.78Zm1.1-1.47v0.28c0.19,0,.19-0.18.37-0.18,0-.09-0.18-0.28-0.18-0.37C47.88,112,47.88,112,47.88,112.2Zm0.46-5.06v0.28s0.09,0,.09-0.18V107A0.09,0.09,0,0,0,48.34,107.14Zm0.46,5.8a0.35,0.35,0,0,0,.28.19C48.9,112.94,49.08,112.66,48.8,112.94Zm1.75,7.54c0-.09-0.09-0.09-0.19-0.09a0.37,0.37,0,0,1,.37-0.19A0.66,0.66,0,0,1,50.55,120.48Zm0.37-.55c0.18,0.28-.09.09-0.18,0.28C50.83,120,50.83,119.93,50.92,119.93Zm0.64,1.84a1.16,1.16,0,0,0-.64.46c-0.18.46-.18,0.64,0.18,0.83A2.69,2.69,0,0,0,51.56,121.77Zm-0.37,1.93,0.18,0.09a2.35,2.35,0,0,0,.19-0.46,0.49,0.49,0,0,1-.46-0.27C51.1,123.24,51.19,123.52,51.19,123.7ZM52,121.5a2.86,2.86,0,0,1-.46.28C51.84,121.77,52,121.68,52,121.5ZM51.93,119a0.49,0.49,0,0,1-.28.18C51.56,119,51.75,119,51.93,119Zm0.18-.46c0.28,0.37,0,.37-0.09.37C52,118.73,52.11,118.73,52.11,118.55Zm-0.09,4h0.09c0.09,0,.09-0.18,0-0.18Zm0.37,23.27,0.18,0.09,0.09-.09s-0.09,0-.09-0.18A0.18,0.18,0,0,1,52.39,145.78Zm0.18-2.21v0.09l0.09-.09H52.57ZM53,117.9c0-.18.09-0.18,0.28-0.18l0.09,0.18a0.25,0.25,0,0,1-.27.09A0.09,0.09,0,0,1,53,117.9Zm0.28,27.32c0,0.19.09,0.19,0.28,0,0,0-.18,0-0.18-0.09A0.09,0.09,0,0,1,53.31,145.23Zm0.37-24a0.18,0.18,0,0,0,.18.18c0.18-.18.18-0.18,0-0.37Zm0,24.94,0.18,0.09v-0.18C53.68,146.06,53.68,146.15,53.68,146.15Zm0.64-29.07a0.33,0.33,0,0,1-.18-0.28v-0.09a0.91,0.91,0,0,1,.37-0.09c0-.19.18,0,0.18,0a0.34,0.34,0,0,1-.18.18A0.71,0.71,0,0,1,54.32,117.08Zm-0.18,30h0.18v-0.19Zm1.19-29.35a1.1,1.1,0,0,1-.83.74C54.51,117.72,54.51,117.72,55.33,117.72Zm-0.83,30c0,0.18.18,0.18,0.18,0v-0.09Zm0,1.84h0.18v-0.18ZM55,150.2v0.19l0.19-.19H55ZM83.67,94.35a3.68,3.68,0,0,0-.46.83,4.29,4.29,0,0,0,2.85-2,1,1,0,0,0-.74.18,11.28,11.28,0,0,1-1.66,1V93.61c1.93-1,3.59-2.39,5.43-3.4,1-.46,1.93-1.1,2.94-1.47,1.2-.83-1,0.27.09-0.55,0.74-.37,1.75-0.46,2.39-1.2,0.83,0,1.47-.65,2.3-0.92a17.69,17.69,0,0,0,1.93-.83l0.18-.18a0.51,0.51,0,0,0-.46-0.18l-1.84.65c-0.64.27-1.47,0.74-2.3,1-1.56,0-.92-0.64-0.18-0.74,1.84-.73,3.5-1.19,5.15-2a1.42,1.42,0,0,1,1.47,0c0.83,0.64,1.66,1.11,2.58,1.75a13.88,13.88,0,0,1,1.2,1.19,0.51,0.51,0,0,1-.19.46,4.29,4.29,0,0,0-.64.64,1,1,0,0,1-1,.37h-0.09a4,4,0,0,0-1.75-.37,6.2,6.2,0,0,1-1.56.37,0.93,0.93,0,0,0-.64.37,6.22,6.22,0,0,1-2.85,1.29c-0.83.28-1.47,0.28-1.75,1-2.21,1.75-1.66.74-3.23,2-0.18.09-.09,0.19-0.27,0.19a12.29,12.29,0,0,0-4.51,2.3,27.43,27.43,0,0,0-4,3.22c-0.46.55-1.29,0.28-1.75,1a12.77,12.77,0,0,1-1.38,1H78.06v-0.46H77.42l0.18-.74a0.89,0.89,0,0,0-1.1.74h0.92a3.33,3.33,0,0,0-.46,1,0.4,0.4,0,0,0,.28.09A0.58,0.58,0,0,0,77.6,101a0.81,0.81,0,0,1,.46-0.37,0.33,0.33,0,0,1-.27.37,2.84,2.84,0,0,1-.18.64,9.25,9.25,0,0,0-2,1.75,2.65,2.65,0,0,1-.83.56,6.56,6.56,0,0,0-1.1,1.19,1.32,1.32,0,0,1-.83.56A8.67,8.67,0,0,0,71,107a6.74,6.74,0,0,1-1.48,1.29,4.28,4.28,0,0,0-1.66,1.47A5.58,5.58,0,0,1,66.47,111a16.37,16.37,0,0,0-3,2.49,1.6,1.6,0,0,1-1.2.46v-0.27a0.41,0.41,0,0,0-.28.27h0.28a0.5,0.5,0,0,1-.28.46v-0.46a1.09,1.09,0,0,0-1.28.65,1.53,1.53,0,0,0,.92.18,12.83,12.83,0,0,1-1.93,2H59.11c-0.19.28-.19,0.64-0.28,0.74-0.55.73-1.38,0.92-1.84,1.75H56.16a1,1,0,0,0,.28-0.55l0.55-.64a1.25,1.25,0,0,1-1-.37H55.33v-0.64a26.6,26.6,0,0,0,4-3.77,1.53,1.53,0,0,1,.93-0.18,6.86,6.86,0,0,0-.56.82h0.56c0.91-.73,2.3-1.28,2.75-2.48-0.46-.19-0.83.37-1.19,0.55a1.12,1.12,0,0,1-1.2.65,8.06,8.06,0,0,1,1.93-2h0.46v0.83a1.58,1.58,0,0,0,1-.83h-1c0.55-1.1,1.47-1.47,2.3-2.21a4,4,0,0,1,1.56-1.2,1.81,1.81,0,0,1-.46,1.29l0.74-.18a4.21,4.21,0,0,1,.83-0.92,0.68,0.68,0,0,0,.46-0.55,1,1,0,0,0-.64.18,1.82,1.82,0,0,1-.92.18v-0.09a6.45,6.45,0,0,1,1.75-1.47c0.55-.46,1-1,1.66-1.47a15.6,15.6,0,0,0,1.93-1.56,0.82,0.82,0,0,1,.92-0.37,6.39,6.39,0,0,1-2.48,2.48,8.16,8.16,0,0,0-2.21,2.12c0.65,0.18.83-.37,1.29-0.46,0.37,0.64.55,0.64,0.92,0H69.78a6.83,6.83,0,0,1,2-1.66,5.14,5.14,0,0,1,2.67-2.11,2,2,0,0,1,1.11-1.19,0.75,0.75,0,0,0,.46-0.83H75.2a11,11,0,0,1,3.22-2.94h0.46a1.93,1.93,0,0,1-.37.92,1.38,1.38,0,0,1,.74-0.18,1.31,1.31,0,0,1,1-.28,2.19,2.19,0,0,1,1.11-1.28,4,4,0,0,0,1.84-1.66H82.29A1.13,1.13,0,0,1,83.67,94.35ZM55.52,119.56c0.09,0,.09-0.18.09-0.28C55.52,119.38,55.33,119.28,55.52,119.56ZM56,149.92l-0.09-.18a0.33,0.33,0,0,1-.18.27,1.12,1.12,0,0,0,.74.92,0.57,0.57,0,0,0,.55.73,0.61,0.61,0,0,0-.55-0.73A1.08,1.08,0,0,0,56,149.92ZM55.88,115.6c-0.18-.37,0-0.37.09-0.37A0.89,0.89,0,0,1,55.88,115.6Zm0.09-.37v-0.09h0.18Zm0.18-.09a0.42,0.42,0,0,1,.28-0.37A0.32,0.32,0,0,1,56.16,115.15Zm0.28,2.12a0.45,0.45,0,0,0-.28.46A0.63,0.63,0,0,0,56.44,117.26Zm0,35.23c0-.09,0-0.28-0.28-0.09A0.93,0.93,0,0,1,56.44,152.5Zm0-37.9a0.77,0.77,0,0,1,.55-0.18C57,114.5,56.8,114.59,56.44,114.59Zm2.48,1.19V115.6a0.9,0.9,0,0,0-.09-0.37H58.46a10.36,10.36,0,0,0-2,2H57A15.4,15.4,0,0,1,58.92,115.79Zm-2.3,30.82H56.8v-0.18Zm0.18,6.26a0.18,0.18,0,0,0-.18-0.18S56.62,153,56.8,152.86Zm0.37-38.64a0.18,0.18,0,0,0-.18.18v-0.28C57.17,114.13,57.17,114.13,57.17,114.23Zm0,3.68H57V118S57.17,118,57.17,117.9Zm-0.18,34c0,0.09,0,.27.37,0.27A0.32,0.32,0,0,0,57,151.85Zm0.37,0.36a0.61,0.61,0,0,0,.46.74C57.82,152.68,57.82,152.22,57.36,152.22Zm0.55-38.46a3.67,3.67,0,0,1-.09-0.46,0.71,0.71,0,0,0,.28-0.09c0,0.09.09,0.28,0,.28C58.09,113.67,58.09,113.67,57.91,113.76Zm0.28,39.56c-0.09-.18-0.09-0.36-0.37-0.36C57.82,153.32,57.91,153.32,58.19,153.32Zm0,0c0,0.19,0,.56.27,0.19C58.28,153.51,58.28,153.51,58.19,153.32Zm0.27-36.52c-0.18,0-.27,0-0.18.28C58.46,117,58.46,117,58.46,116.8Zm-0.18-4.32a0.18,0.18,0,0,1,.18-0.18,2.83,2.83,0,0,0,.92-0.09c-0.09.55-.55,0.46-0.92,0.46A0.18,0.18,0,0,1,58.28,112.48Zm0.64,4.32c0-.09-0.09-0.09-0.09-0.18-0.18.09-.18,0.09-0.18,0.18h0.28Zm-0.28,37.63a0.73,0.73,0,0,0,.28.09S58.92,154.34,58.64,154.43Zm0.18-4.51c0.09,0,.09-0.18.09-0.28C58.83,149.74,58.64,149.74,58.83,149.92Zm0.28,4.78c0,0.27-.19.55,0.27,0.74A0.7,0.7,0,0,0,59.11,154.71Zm0.64-40.76c-0.09.19-.37,0.28-0.46,0.46v0.18h0.37C59.66,114.41,59.75,114.23,59.75,113.95Zm-0.28-1.75c0-.74,0-0.74.83-0.74A1.59,1.59,0,0,1,59.47,112.2Zm0,43.24a0.33,0.33,0,0,0,.28.37A0.72,0.72,0,0,0,59.47,155.44Zm0.83,0.83a0.93,0.93,0,0,0-.56-0.46c0.19,0.37.19,0.46,0.56,0.46a0.88,0.88,0,0,0,.36.92,0.68,0.68,0,0,0,.46.46c-0.18-.37-0.18-0.46-0.46-0.46A0.82,0.82,0,0,0,60.31,156.27Zm-0.1-41c-0.18,0-.46.09-0.09,0.37A0.57,0.57,0,0,1,60.21,115.24Zm0.55-4.42a0.49,0.49,0,0,1-.46.46,1.37,1.37,0,0,1,.27-0.55c0-.09.1-0.09,0.19,0S60.95,110.82,60.76,110.82Zm-0.46,2.3c0-.37.08-0.46,0.36-0.46A0.37,0.37,0,0,1,60.31,113.12Zm0.36,1.65a0.33,0.33,0,0,0-.36.37A0.34,0.34,0,0,0,60.67,114.78Zm0,38.18c0-.1,0-0.46-0.28-0.1a1,1,0,0,1,.28.1,0.81,0.81,0,0,0,.46.92A0.8,0.8,0,0,0,60.67,153Zm0.92,1.19c0,0.18.18,0,.28-0.18l-0.09-.09H61.13A0.75,0.75,0,0,0,61.59,154.15Zm-0.46,3.5c0,0.09.09,0.28,0.46,0.28A0.85,0.85,0,0,0,61.13,157.65Zm0.09-2v0.09h0.18Zm0.37-45.27V110c0.28-.19.56-0.19,0.64-0.28a4,4,0,0,1-.37.64C61.77,110.45,61.59,110.45,61.59,110.36Zm0.28,4a0.23,0.23,0,0,1-.28.18A0.31,0.31,0,0,1,61.87,114.41Zm0,43.89a0.23,0.23,0,0,0-.28-0.19A0.31,0.31,0,0,0,61.87,158.3ZM62,158.48c0,0.09,0,.27.28,0.09A0.45,0.45,0,0,0,62,158.48Zm0.46-48.77a0.4,0.4,0,0,1,.28-0.37A0.32,0.32,0,0,1,62.42,109.72Zm0.28,49.87c0-.09,0-0.37-0.28-0.09a0.26,0.26,0,0,1,.28.09,1,1,0,0,0,.37.46C63.06,159.77,63.06,159.58,62.7,159.58Zm0-50.23a0.61,0.61,0,0,1,.37-0.46C63.06,109.17,63.06,109.35,62.7,109.35Zm0.73,50.88a0.64,0.64,0,0,0-.37-0.19C63.25,160.23,63.06,160.6,63.43,160.23Zm-0.27-51.34c0.09,0,.09-0.18.09-0.37h0.46l0.18,0.18a0.73,0.73,0,0,0-.28.18H63.15Zm0.09,48c0,0.09,0,.09.18,0.09s0.18-.09,0-0.09H63.25Zm0.65-45c-0.18,0-.18.09-0.18,0.09v0.19C64.07,112,64.07,112,63.89,111.92Zm0.18-1.29a1.58,1.58,0,0,0,1.47-1.29A1.41,1.41,0,0,0,64.07,110.64Zm0.37,50.87a0.7,0.7,0,0,1,.28.19C64.72,161.51,64.72,161.24,64.44,161.51ZM65.18,111H64.72a0.18,0.18,0,0,0-.18.19,0.21,0.21,0,0,0,.37.09C65.09,111.28,65.09,111.19,65.18,111ZM64.9,161.79a0.19,0.19,0,0,0,.28.19A0.33,0.33,0,0,0,64.9,161.79Zm0.18-54.28c-0.18-.28,0-0.28.09-0.28A0.26,0.26,0,0,1,65.09,107.51Zm0.28-.28c0-.09,0-0.18.09-0.18C65.73,107.23,65.45,107.23,65.36,107.23Zm0.19,3.4c-0.09,0-.19.09-0.19,0.37A0.7,0.7,0,0,0,65.55,110.64Zm0.46-1.2c0.46,0.09.46,0.09,0.46-.09v-0.83a1.06,1.06,0,0,0-.92.83A1,1,0,0,0,66,109.44Zm-0.09.92c-0.18,0-.18.09-0.18,0.28C65.91,110.45,66,110.64,65.91,110.36Zm-0.18,50.69h0.18V161Zm1.66-1H66.47a0.53,0.53,0,0,1,.18-0.56c0-.09.09-0.09,0.28,0ZM67.2,109.17A0.18,0.18,0,0,0,67,109v0.37A0.18,0.18,0,0,0,67.2,109.17ZM67,162.43H67.2v-0.18ZM67.39,160a0.67,0.67,0,0,0,.27.19C67.39,160.6,67.39,160.23,67.39,160Zm0.46-55.11c0.09,0,.09,0,0.09-0.18,0,0.18.09,0.18,0.09,0.18,0,0.18-.09.18-0.09,0.18S67.94,104.93,67.85,104.93Zm1.47,57.14H69c0.18-.09.18-0.09,0.18-0.28Zm0-54.65H69.13C69.13,107.7,69.23,107.7,69.32,107.42ZM70,163.08l0.18,0.18v-0.18H70Zm0.64-60.35-0.27.37C70.33,102.82,70.42,102.73,70.6,102.73Zm0.09-.09a1.17,1.17,0,0,1,.73-0.74h0.28a0.28,0.28,0,0,1,0,.37A0.87,0.87,0,0,1,70.7,102.63Zm0.09,3.4c0,0.19-.09.19-0.09,0.37C70.79,106.4,71.16,106.4,70.79,106Zm0.37,57.87c0,0.09,0,.37.27,0.09A0.39,0.39,0,0,1,71.16,163.91Zm1.1-59a0.71,0.71,0,0,1-.28-0.18C72,104.93,72,105.21,72.26,104.93Zm0.55-4.14H73c0.18,0,.18.09-0.18,0.09v-0.09ZM73,164.73c-0.18,0-.27,0,0,0.28v-0.28Zm2.21-64.13c-0.09.65-.92,1.11-1.47,1.66H73.18a3.12,3.12,0,0,1,1.38-1.47A1,1,0,0,1,75.2,100.61ZM73.74,100c-0.09,0,0-.19,0-0.19a0.18,0.18,0,0,1,.18.19C73.74,100.15,73.74,100.15,73.74,100Zm1.2,2.76H74.47v0.18a0.8,0.8,0,0,0,.09.46,1.56,1.56,0,0,0,.55-0.27C75.2,102.91,75.2,102.73,74.93,102.73Zm0.18-3.41c0-.18,0-0.18-0.18-0.18C75.12,99,75.12,99,75.2,99A0.93,0.93,0,0,1,75.12,99.32Zm0.83-.64a1.8,1.8,0,0,1-.74.27l0.37-.83,0.37-.28a0.91,0.91,0,0,0,.09.28A0.73,0.73,0,0,1,75.94,98.68ZM76,100.61a0.39,0.39,0,0,0,.46-0.46A0.43,0.43,0,0,0,76,100.61Zm1.47-3.5a0.26,0.26,0,0,1-.09-0.27c0-.19.09-0.19,0.09-0.19s0.09,0.19.09,0.37Zm1,1.47a0.75,0.75,0,0,0-.73.83,1.56,1.56,0,0,1,.73-0.09V98.58Zm0,1.19a1.32,1.32,0,0,0-.46.37A0.37,0.37,0,0,0,78.52,99.78ZM78.43,96.1a1.13,1.13,0,0,1,.92-0.46,1.12,1.12,0,0,1-.83.74H78.43C78.24,96.38,78.24,96.2,78.43,96.1ZM79.9,99a2.69,2.69,0,0,0-1.38.46v0.37A1.29,1.29,0,0,0,79.9,99Zm-1-1.29a0.37,0.37,0,0,1,.46-0.37A0.37,0.37,0,0,1,78.88,97.67Zm0.46-2c0.18-.65.55-0.46,0.92-0.46A0.81,0.81,0,0,1,79.35,95.64Zm1.2,0.83a1,1,0,0,1-1.2.83A1,1,0,0,1,80.54,96.47Zm-0.28,2.12a0.31,0.31,0,0,0-.37.37A1.28,1.28,0,0,0,80.27,98.58Zm0-3.4V94.63l0.09-.09a0.33,0.33,0,0,1,.18.28A3.86,3.86,0,0,1,80.27,95.18Zm0,3.13v0.18c0-.09.09-0.09,0.28-0.09A0.4,0.4,0,0,1,80.27,98.31Zm0.46-1.84H80.54V96.38h0.18v0.09ZM81,95.64c0.37-.09.73-0.65,1.29-0.46a1.62,1.62,0,0,1-1.57,1.2C80.54,96.1,80.54,95.83,81,95.64Zm1.66-2.3c0-.18,0-0.46.18-0.46s0.46-.18.64-0.18L83,93.34H82.66Zm1.47-1a1.66,1.66,0,0,1-.46.37V92.05c0-.19.37-0.19,0.46-0.19C84.32,92.05,84.32,92.24,84.13,92.33Zm-0.28,3.5a0.18,0.18,0,0,1-.19-0.19V96A0.18,0.18,0,0,0,83.86,95.83Zm1.2-4.14L85,91.59c0.09,0,.09,0,0.18-0.18A0.93,0.93,0,0,1,85.05,91.69Zm0.09-.28A0.81,0.81,0,0,1,86.06,91C86,91.59,85.51,91.41,85.14,91.41ZM86.06,91a0.94,0.94,0,0,1,1.2-.83A1,1,0,0,1,86.06,91Zm0,2.12c0.28,0,.73,0,0.73-0.46C86.52,92.7,86.16,92.6,86.06,93.16Zm2-1.29a0.91,0.91,0,0,0-1.1.83h0.64c0.18,0.18.18,0.46,0.46,0.18a2.32,2.32,0,0,0-.46-0.18A1.75,1.75,0,0,0,88.09,91.87Zm-0.83-1.66V90.12h0.09Zm0.09-.09a0.7,0.7,0,0,1,.09-0.28C87.63,90.12,87.44,90.12,87.35,90.12Zm2.76,0.46a2.72,2.72,0,0,0-2,1.29A2.56,2.56,0,0,0,90.11,90.58Zm-1.84-1,0.18-.19v0.19c0,0.18,0,.18-0.18.18V89.57Zm0.83-.28a0.36,0.36,0,0,0-.18-0.37V88.83a2.47,2.47,0,0,1,.65-0.09h0.18a1.36,1.36,0,0,1-.28.18A0.71,0.71,0,0,1,89.1,89.29Zm1.47,2.12c-0.18.18-.46,0-0.18,0.28A0.34,0.34,0,0,0,90.57,91.41ZM90.3,88.28a0.22,0.22,0,0,0,.27-0.19c0,0.19,0,.28-0.18.28A0.09,0.09,0,0,0,90.3,88.28ZM91,90.21c-0.27,0-.73-0.09-0.73.37C90.57,90.58,90.84,90.76,91,90.21Zm-0.46-2.12a1.68,1.68,0,0,1,.73-0.64C93.7,84.88,93.52,87.18,90.57,88.09Zm0.27,3.13a0.19,0.19,0,0,0-.09.18S91,91.41,90.84,91.22Zm0.55-1.38a0.32,0.32,0,0,0-.37.28C91.3,90.12,91.4,90,91.4,89.84Zm2.31-1.2a0.75,0.75,0,0,0,.46-0.46,0.67,0.67,0,0,0-.73.37,1.17,1.17,0,0,0-.55.09,0.49,0.49,0,0,0-.28.18,0.38,0.38,0,0,0-.18.18,1.28,1.28,0,0,0-1,.56v0.28a0.75,0.75,0,0,0,.83-0.37,0.09,0.09,0,0,1,.09-0.09,1.82,1.82,0,0,1,.73-0.09,0.87,0.87,0,0,1,.83-0.37A0.32,0.32,0,0,0,93.7,88.65Zm-1.47.83V89.38c-0.37,0-.64-0.09-0.83.37,0.09,0,.19.09,0.28,0.09A2,2,0,0,0,92.23,89.48ZM92,90.21v0.37C92.23,90.4,92.23,90.4,92,90.21Zm0.28-.83A2,2,0,0,0,92.41,89a0.71,0.71,0,0,0-.18.37h0.09Zm1-.73H92.87a0.49,0.49,0,0,1-.28.18V89C92.87,89,93.33,89.2,93.33,88.65Zm0,1-0.19-.09a0.09,0.09,0,0,0-.09.09C93.05,89.84,93.15,89.84,93.33,89.66Zm0.37-1a0.35,0.35,0,0,0-.28-0.09,0.09,0.09,0,0,0-.09.09H93.7Zm0.37,0.55,0.09-.09A0.71,0.71,0,0,1,93.88,89a0.29,0.29,0,0,1,.09.19l-0.09.09s0,0.09.19,0.09V89.2ZM95,87.82c-0.37,0-.64-0.09-0.83.37A0.69,0.69,0,0,0,95,87.82Zm1.2-.46H95.45a0.44,0.44,0,0,0-.46.46h0.83A0.37,0.37,0,0,0,96.18,87.36Zm2.21-.83a2.19,2.19,0,0,0-2,.83A2.51,2.51,0,0,0,98.39,86.53Zm0.74-.27c-0.37,0-.74-0.18-0.74.27C98.67,86.53,99.13,86.71,99.13,86.26Zm0.65-.37a0.32,0.32,0,0,1-.18-0.09c-0.18.09-.28,0.09-0.28,0.28h0.37C99.77,86.07,99.77,85.89,99.77,85.89Z" fill="#062934"/>
    <path d="M121.38,129.68a4.46,4.46,0,0,1-.74,1.48c-0.73,1.19-7.18,5.33-7.91,6.53-1.2,1.56-2.67,1.66-4.41,1.66a1.37,1.37,0,0,1-1.38-.74c-0.09-.55-0.37-0.83-0.46-1.29-0.92-1.74-1.38-2.48-.83-4.51a0.63,0.63,0,0,0-.74-0.46c-0.92.46-1.93,0.73-2.76,1.2-4,2.58-7.91,4.69-11.32,7.73-0.46.37-1.1,0.73-1.66,1.1-0.46.55-1.1,0.92-1.65,1.47a13.69,13.69,0,0,0-3.13,3.4,51.37,51.37,0,0,0-4.33,5.43c-0.46,1-1.28,1.47-1.65,2.3-0.37.65-.64,0.74-1.2,0.47-0.37-.19-0.64-0.19-0.73-0.28-0.46-.73-1-1.19-1.38-1.84a8.1,8.1,0,0,1,0-2.11,5.83,5.83,0,0,1,.74-1.29c1.47-2.67,2.95-5.24,4.51-8.19,1.84-3.13,3.59-6.53,5.24-9.84a29.17,29.17,0,0,0,2.12-4.51,2,2,0,0,1,2.94-.83l1.47,0.83c0.28,0.46.55,1.11,0.18,1.38-1.2,1.29-1.47,3-2.3,4.32l-2.48,4.51a0.42,0.42,0,0,0,0,.46H87.8a70.1,70.1,0,0,1,12.05-8c2.3-1.1,4.6-1.93,6.81-3a3.78,3.78,0,0,1,4.51,1l1.47,1.57a1.47,1.47,0,0,1-.27,1.93,3.86,3.86,0,0,0-1.2,1.47c-0.27,1.1-1.29,1.84-1.47,2.85,2.3-.46,9.39-5.89,11.5-6.72A0.67,0.67,0,0,1,121.38,129.68Z" fill="#062934"/>
    <path d="M151.65,135.94v-0.55a4.66,4.66,0,0,1-1.84.74,1.87,1.87,0,0,0-1.47,1.1,2.6,2.6,0,0,0-1,.46,1.42,1.42,0,0,0-1.38,1h0.92v0.37c-1.2.83-2.76,1.57-3.59,2.58A14.51,14.51,0,0,0,139.5,144a37.4,37.4,0,0,0-3.77,2.21,62.73,62.73,0,0,1-7,3.68c-1.19.37-2.3,0.83-3.49,1.29a12.23,12.23,0,0,1-7.27.18,1.75,1.75,0,0,1-.74-0.28,15.84,15.84,0,0,1-1.93-3.23,9.4,9.4,0,0,1-.83-4.78c0.27-1.47.64-2.85,1-4.23a33.53,33.53,0,0,1,5.62-9.38c0.73-.92,1.84-1.84,2.57-2.76a2.54,2.54,0,0,1,2.94-.56,22.68,22.68,0,0,1,2.3,1.84,0.83,0.83,0,0,1-.37,1.2h-0.27a2.48,2.48,0,0,0-2.76,1.56c-0.92,1.56-1.84,2.67-2.58,4a25.65,25.65,0,0,0-3.68,6.53,6.85,6.85,0,0,1-1.11,2.39,6.06,6.06,0,0,0-.18,3.41,4.27,4.27,0,0,0,3.4.37c1.11-.37,2.3-0.74,3.5-1.19a19.58,19.58,0,0,0,3.41-1.29c0.92-.64,2.21-0.92,3.31-1.75a66.93,66.93,0,0,0,6.53-3.68c1.75-.92,3.32-2.12,5.25-3a3.67,3.67,0,0,0,1.56-.82,14.87,14.87,0,0,1,3.68-2.4,31.8,31.8,0,0,0,2.94-1.75,11,11,0,0,1,3.22-1.29c0.46,0.19-.46,1-0.09,1.93A14.06,14.06,0,0,1,151.65,135.94ZM129.84,114a4.42,4.42,0,0,1,3-.92c0.18,0,.37.27,0.55,0.27,0.46,0.64,1.2,1.11,1.29,1.93a2.34,2.34,0,0,1-.09,1.56,4.91,4.91,0,0,1-2.21,1h-0.83c-0.28-.09-0.83-0.09-1.38-0.27A2,2,0,0,1,129.84,114Zm21.71,20.06a16.45,16.45,0,0,0-4,1.66c-1.93,1.2-3.87,2.21-5.8,3.41a2,2,0,0,0-.92.74,5,5,0,0,0,2.48-.83c2.49-1.38,5-3,7.54-4.32A2.08,2.08,0,0,0,151.55,134.1Z" fill="#062934"/>
    <path d="M184.67,134.93a2.13,2.13,0,0,0-1.47.28h0.28a0.2,0.2,0,0,1-.18.18h0.55v0.28a8.93,8.93,0,0,1-1.84,1.1,8.27,8.27,0,0,0-2.58,1.47,3.73,3.73,0,0,0-.83.09c-1.29.74-2.67,1.38-4,2.21-0.92,0-.1.92-0.92,0.92a7,7,0,0,1-1.47.83,34,34,0,0,1-3.49,2.39c-1,0-1.57.74-2.3,1.19a1.42,1.42,0,0,0-1,1.66,17.27,17.27,0,0,0,.28,2.39,6.82,6.82,0,0,1-.55,4.51c-0.74,2.3-1.65,3.13-3.5,4.78-1.2,1.19-2.48,2.21-3.68,3.22a3.76,3.76,0,0,1-2.21,1.19c-0.92.28-1.65,0.28-2.3,0.55-1.38,1.2-2.76.65-4.23,0a32.92,32.92,0,0,1-3-1.38,2.86,2.86,0,0,1-2.12-2.3,4.19,4.19,0,0,1,.18-3.77,6.28,6.28,0,0,1,.55-0.83,33.11,33.11,0,0,1,6.16-4.5c0.92-.74,2-1.39,3.13-2.12,2.39-1.39,4.6-3,7.17-4.51,0.46-.46.64-0.74,0.09-1.29-0.46-1.2-1.38-2.21-2-3.5-1.2-1.93-2.3-4.32-3.59-6.25a6.83,6.83,0,0,1-.92-3.68,3.29,3.29,0,0,1,.92-2.76,7.64,7.64,0,0,1,2.95-1.84c1.56-.09,3.22-0.64,4.88-0.37,2.3,0.09,3.77,1.29,5.24,2.76a0.9,0.9,0,0,1-.09,1.47,3.11,3.11,0,0,1-3.68-.55c-0.28-.28-0.28-0.37-0.46,0-0.27,1-.64,1.2-1.38.92-0.92-.55-1.56-0.09-2.3.1a6.07,6.07,0,0,0-1.75,1.38,1.48,1.48,0,0,0-.64,1.93,9.51,9.51,0,0,0,1.56,4.05,35.92,35.92,0,0,1,3.13,5.24c0.37,0.92.64,0.92,1.56,0.46a63.65,63.65,0,0,1,7.82-4.23,1,1,0,0,1,.83-0.37c-0.09.37-.37,0.55-0.37,0.73a3.33,3.33,0,0,0,2.12-.73,0.9,0.9,0,0,0,.36-0.28c-0.27,0-.64-0.37-0.73,0a7.24,7.24,0,0,1-1.38.28,1.57,1.57,0,0,1,.55-0.74c2.67-1.1,5.43-2.3,8-3.68h0.92v0.65c-0.46.09-.83,0-0.92,0.46a1.19,1.19,0,0,0,1.1-.46,0.55,0.55,0,0,0,0-.65,0.73,0.73,0,0,1,.18-0.37,31.41,31.41,0,0,1,4.69-1.56c1.1-.09.92-0.09,1.93,0.64,0.37,0.28.64,0.46,0.46,0.92l-0.74.37a5.65,5.65,0,0,1-1.47.37,1.48,1.48,0,0,1-1.66-.09c-0.28-.28-0.64,0-0.74.37h-0.09a0.81,0.81,0,0,0-.92.46h0.92C185.22,135.39,185,135.39,184.67,134.93Zm-21.81,13.15a38,38,0,0,0-4.23,2.67,29.72,29.72,0,0,1-6.07,4.23,13.45,13.45,0,0,0-4.51,3.6,2.19,2.19,0,0,0-.37.64c-0.09.18,0,.27,0.27,0.27,0.55,0.28,1.47.37,2.21,0.64a5.67,5.67,0,0,0,3,0c0.37,0,.83-0.27,1.29-0.27,1.84-.37,3.31-0.83,4.42-2.3a14.93,14.93,0,0,1,1.28-1.1C162.41,154.15,163.7,151.58,162.87,148.08Zm-2-1.84,0.09,0.18a4.68,4.68,0,0,0,.92-0.55s0-.09-0.18-0.09a0.8,0.8,0,0,0-.83.37v0.09Zm5.52-3.31a1.12,1.12,0,0,0-1.38.92A1.42,1.42,0,0,0,166.37,142.93Zm2.3-1.47a2.93,2.93,0,0,0-2.21,1.38A2.6,2.6,0,0,0,168.67,141.46Zm2.76-.55H170.6v-0.37a1.67,1.67,0,0,0-1.84.92h1.38l0.46-.55v0.55C171,141.46,171.42,141.46,171.42,140.91Zm1.93-.92h-0.74a0.94,0.94,0,0,1-1.1.55,0.83,0.83,0,0,1,1-.55v-0.27c-1-.19-1.57-0.19-1.93.83h0.92v0.37C172.53,141.27,173,140.91,173.36,140Zm1.1-.27c-0.55-.19-0.92-0.19-1.1.27C173.91,140,174.18,140.17,174.46,139.71Zm0.74-.65a0.5,0.5,0,0,0-.74.46A0.5,0.5,0,0,0,175.2,139.06Zm1.93-.82c-0.46,0-.74-0.18-0.92.37C176.67,138.69,177,138.69,177.13,138.24Zm1-.65a0.86,0.86,0,0,0-1,.65C177.77,138.24,178,138.24,178.14,137.59Zm1.84-.83h-0.73a2.71,2.71,0,0,1,.18-0.92,1.45,1.45,0,0,0-1.65.92h1.48v0.37A0.73,0.73,0,0,0,180,136.77Zm1.93-1.84h-0.37a1,1,0,0,0-.37.09c0.09,0.18.09,0.18,0.37,0.18a0.37,0.37,0,0,0,.37.18v0.28c0.46,0,1.1.46,1.29-.28V135.2h-1.29v-0.28Z" fill="#062934"/>
    <path d="M207.21,117.9a1.58,1.58,0,0,0,.92-0.27,0.7,0.7,0,0,0,.83,0,2,2,0,0,1,.83-0.09h4.51a1.45,1.45,0,0,0,1.1-.27H216a52.53,52.53,0,0,1,5.33-.18,2.56,2.56,0,0,0,.83-0.09,1.09,1.09,0,0,1,.73-0.19h5.43a4.24,4.24,0,0,0,1.93-.37c0.28,0,.46-0.18.73-0.18a1.7,1.7,0,0,1,.65.18h2.49c0.09,0,.27-0.18.36-0.18s0.18-.09.28,0a2.35,2.35,0,0,0,1.93,0,0.42,0.42,0,0,1,.46,0,2.52,2.52,0,0,0,1.47.18,0.71,0.71,0,0,1,.27-0.27c0.28-.55.46-0.55,0.74,0a0.27,0.27,0,0,0-.28.09l0.09,0.18a0.5,0.5,0,0,0,.18-0.46,0.37,0.37,0,0,1,.37.19c0.37,0.09.64-.46,1.11-0.19a3.43,3.43,0,0,0,1.38,0,2.39,2.39,0,0,0,1.38-.09,1.84,1.84,0,0,1,1.2-.18,0.73,0.73,0,0,1,.46.46,0.62,0.62,0,0,0,.28.55,3,3,0,0,1,.83,1.47v1.29a0.56,0.56,0,0,1-.55.64H228.37a1,1,0,0,0-.73.18,1.32,1.32,0,0,1-.55.1h-2.94c-1.38.09-2.58,0.09-3.77,0.09h-0.56a2.16,2.16,0,0,1-1.29.28h-5.06a1.81,1.81,0,0,0-1.2.27,0.78,0.78,0,0,1-.55.18H209a2.43,2.43,0,0,0-1.75.28,1.11,1.11,0,0,1-.55,0,21.89,21.89,0,0,0-2.3.09,2.31,2.31,0,0,0-1.38.19,1.39,1.39,0,0,1-.56.09h-2.3a3.83,3.83,0,0,0-1.29.28,1.8,1.8,0,0,0-1.38.83c-0.28.55-.64,0.83-0.92,1.38s-0.74.82-.92,1.38c-0.83,1.38-1.93,2.76-2.67,4.23a2.53,2.53,0,0,0-.64.83,1.4,1.4,0,0,0-.55,1,0.22,0.22,0,0,1-.18.28,10.11,10.11,0,0,0-.92,1.75,9.28,9.28,0,0,1-.83,1.2,3.1,3.1,0,0,0-.28.55c-0.37.74-.65,1.38-0.92,1.93,0,0.83-.83,1.11-1,1.84a2.05,2.05,0,0,0-.09.37,6.81,6.81,0,0,1-1,2.21,2.86,2.86,0,0,1-.37,1.2,1.52,1.52,0,0,0-.18,1.11,1,1,0,0,1-.09.55,1.77,1.77,0,0,0-.28,1.2,1.25,1.25,0,0,1-.18.74,1.56,1.56,0,0,1,0,.64c0,0.18-.09.28-0.09,0.46a0.56,0.56,0,0,0,.09.37s0.18,0.19,0,.28v0.18a1.52,1.52,0,0,0-.09,1.11,0.29,0.29,0,0,0,.27.27,0.51,0.51,0,0,1,.37.56v0.55a0.78,0.78,0,0,0,.28.28,4.75,4.75,0,0,0,1,.09H188a3.45,3.45,0,0,0,1.65.28,1.55,1.55,0,0,0,.92-0.28,7.07,7.07,0,0,1,1.29-.36,0.72,0.72,0,0,0,.27-0.19,4.33,4.33,0,0,0,.83-0.55,5.1,5.1,0,0,1,.64-0.09c0.28-.28.83-0.46,1.1-0.74a7.68,7.68,0,0,1,1.38-.92,3.82,3.82,0,0,0,1.2-1,2.48,2.48,0,0,0,.73-0.28h0.28a6.79,6.79,0,0,1,1.93-1.19,2,2,0,0,0,.65-0.28,3.06,3.06,0,0,0,.46-0.55,0.29,0.29,0,0,1,.28-0.28,9.56,9.56,0,0,0,1.47-1.2,3.08,3.08,0,0,1,.83-0.55l0.82-.83a5.34,5.34,0,0,0,1.66-1.29,3.51,3.51,0,0,1,1.1-.83,1.91,1.91,0,0,1,.83-0.55v0.28a1,1,0,0,1-.28.83,1.24,1.24,0,0,0-.46.74c-0.27,0-.27.09-0.37,0.37v-0.09a0.89,0.89,0,0,0-.83.37,1.23,1.23,0,0,0-.55.83c-0.28,0-.46,0-0.46.28a0.78,0.78,0,0,0-.55.18,11.55,11.55,0,0,0-2,1.66,2.32,2.32,0,0,1-1.1.74c-0.37.28-.83,0.55-1.2,0.83s-0.74.55-1.29,0.83a1.58,1.58,0,0,0-.64.74c-0.28.27-.74,0.27-1,0.55a6.35,6.35,0,0,0-.83.55l-0.09.09a0.51,0.51,0,0,1-.47.19,0.69,0.69,0,0,0-.27.27v0.09c0.18,0.18.27,0.18,0.27,0a0.59,0.59,0,0,0,.47-0.55h1.1a0.48,0.48,0,0,0,.37-0.27c0-.28.19-0.28,0.47-0.37a4.77,4.77,0,0,0,.83-0.55,3.33,3.33,0,0,0,.83-0.74,1.94,1.94,0,0,0,.92-0.55c0.46-.56,1.1-0.65,1.47-1.2a6.65,6.65,0,0,1,1.66-1.1,13.61,13.61,0,0,1,1.1-1.2v-0.18a0.37,0.37,0,0,0,.46-0.37,1.57,1.57,0,0,0,.92-0.27c0.18,0,.27,0,0.27.09v0.27a10.71,10.71,0,0,1-1.93,1.66,3.79,3.79,0,0,1-.64.56c-0.28.18-.46,0.27-0.74,0.45-0.09,0-.09.09,0.28,0.19,0.18,0,.27.19,0.27,0.46v-0.18a0.43,0.43,0,0,0-.27.46,0.3,0.3,0,0,0-.37.37,0.43,0.43,0,0,0-.46.46c-0.09-.18-0.09,0-0.27.09h0.18c0.09,0,.09-0.09.09-0.28,0.28,0,.46-0.09.46-0.27a0.42,0.42,0,0,0,.28-0.37h0.37v0.55a10.14,10.14,0,0,1-.92,1.2c-0.46,0-.55.74-1,0.83a10,10,0,0,0-1,1c-0.83.28-1.29,1.11-1.93,1.38-0.83.28-1.38,0.74-2.12,1a8.12,8.12,0,0,0-.92.74,13,13,0,0,1-2.58,1.19c0,0.19,0,.19-0.18.19a2,2,0,0,0-1.38.28,5.29,5.29,0,0,0-1.2.27,5.83,5.83,0,0,1-1.29.1,0.44,0.44,0,0,0-.37.18,1,1,0,0,1-1.2,0,2.4,2.4,0,0,1-1.57-.83,5.48,5.48,0,0,0-1.1-.83,6.28,6.28,0,0,0-.83-0.74,4.83,4.83,0,0,1-.55-0.92,2.57,2.57,0,0,0-.64-0.83,2.26,2.26,0,0,1-.37-0.64,0.64,0.64,0,0,1-.27-0.55,12.23,12.23,0,0,0-.46-1.38,32.29,32.29,0,0,0,0-4.23,2.32,2.32,0,0,1,.28-1.38,2,2,0,0,0,.19-1,1.47,1.47,0,0,1,.27-0.83c0-.09,0-0.28.09-0.28a1.5,1.5,0,0,1,.09-0.92c0.28-.55.28-1.1,0.55-1.66a12.76,12.76,0,0,0,1-1.93c-0.28-.37,0-0.55.28-0.64,0.09,0,.09-0.19.09-0.28a0.49,0.49,0,0,0,.18-0.27l0.09-.18,1.29-2.3v-0.55h0.09a8.31,8.31,0,0,0,.55-0.64,1.47,1.47,0,0,0,.28-0.83,1,1,0,0,0-.09-0.74,0.09,0.09,0,0,1,.09-0.09c0.55,0,.55,0,0.73-0.18a1.74,1.74,0,0,0,.28-0.83,0.09,0.09,0,0,0,.09-0.09c0.18-.18,0-0.18-0.09-0.18v-0.37A0.63,0.63,0,0,1,189,128a0.72,0.72,0,0,1,.09.28c0.28,0,.28-0.09.28-0.28a0.25,0.25,0,0,0,.27-0.09s-0.09,0-.09-0.18a0.34,0.34,0,0,1-.18.28H189a1.19,1.19,0,0,1,.74-1.1c0,0.18,0,.28.19,0.28H190a1,1,0,0,0-.37-0.28c0.09,0,0-.09.09-0.18a6.44,6.44,0,0,1,1-1.94c0.37-.55.55-1.1,0.92-1.56v-0.09s0-.19-0.09-0.19h-2.85c-1,.55-2.12.28-3,0.46a3.5,3.5,0,0,0-1.66.28,2,2,0,0,1-.73,0c-0.74,0-1.56.09-2.3,0.09a2.51,2.51,0,0,0-1.2.19,1.39,1.39,0,0,1-.55.09H177a0.68,0.68,0,0,0-.55.18c-0.64.37-1.38,0.1-2.21,0.28a1.7,1.7,0,0,0-.55.09,1.67,1.67,0,0,1-.92.18c-0.73,0-1.38.09-2.11,0.09a2.21,2.21,0,0,0-1.29.27,0.48,0.48,0,0,1-.73-0.09,1.44,1.44,0,0,0-1.11-.18,0.58,0.58,0,0,1-.55-0.36,1.82,1.82,0,0,1-.64-1.38V122a0.54,0.54,0,0,1,.28-0.55,4.22,4.22,0,0,1,1.47-1,1,1,0,0,1,.74,0,0.72,0.72,0,0,0,.83.18,0.36,0.36,0,0,1,.37-0.18c0-.09.19-0.09,0.28-0.09a4.73,4.73,0,0,0,2.21-.28h1.75a2.21,2.21,0,0,0,1.11-.28,0.43,0.43,0,0,1,.46,0,0.75,0.75,0,0,0,.83.18,2.7,2.7,0,0,1,1.48-.27h2.21a1.91,1.91,0,0,0,1.19-.28H182a7.84,7.84,0,0,0,2-.18,1.36,1.36,0,0,0,.55-0.09,1.39,1.39,0,0,1,.83-0.18h4a1.54,1.54,0,0,0,1.19-.28,0.42,0.42,0,0,1,.46,0,1.91,1.91,0,0,0,1.2.28,12.22,12.22,0,0,1,1.84,0,1.43,1.43,0,0,0,1.19-.65,9.07,9.07,0,0,1,.83-1.1,4.55,4.55,0,0,0,.92-1.11,19.3,19.3,0,0,1,2.21-2.48c0.46-.37.55-0.92,1-1.38a4.28,4.28,0,0,0,1.11-1.1,34.39,34.39,0,0,1,4-4.23,13.36,13.36,0,0,0,1.11-1.2c0.27-.18.37-0.46,0.55-0.55a0.7,0.7,0,0,1,.83-0.46,4,4,0,0,1,.55.18,3.91,3.91,0,0,0,.46.09,1,1,0,0,1,.83.74,6,6,0,0,0,.74.83,1.23,1.23,0,0,1,.09.64c0,0.28.19,0.55,0.19,0.92-0.19,1.66.09,1.38-1.11,2.49a26,26,0,0,1-2.76,2.76,8.56,8.56,0,0,1-.92.92c-0.46.55-1.29,0.74-1.57,1.38a8.89,8.89,0,0,1-1.1,1.38,0.78,0.78,0,0,0-.27.83,0.37,0.37,0,0,0-.37.18l0.09,0.09c0.19-.09.28-0.09,0.19-0.28h4.41ZM185.5,120.3l-0.09-.18h-0.46a0.72,0.72,0,0,1-.27.18,0.79,0.79,0,0,0,.46.1h0.09C185.4,120.39,185.5,120.39,185.5,120.3Zm-0.37,14.91h0.09a0.34,0.34,0,0,1,.18.28A0.29,0.29,0,0,1,185.13,135.2Zm2.48-14.81a0.4,0.4,0,0,1,.28-0.1c-0.19,0-.28-0.18-0.46-0.18h-1.1l-0.09.18a0.09,0.09,0,0,0,.09.1h1.29Zm-1.1,12,0.09-.18c0.19,0.18.19,0.18,0.19,0.28A0.25,0.25,0,0,1,186.51,132.35Zm1.93-3.31c0-.18.09-0.18,0.28-0.18v0.28C188.53,129.13,188.44,129.13,188.44,129Zm4.51-9.57a0.85,0.85,0,0,0-.55.09c-0.28,0-.46.19-0.74,0.19H190c-0.37,0-.74.09-1.2,0.09-0.09,0-.09.18-0.09,0.28s0.09,0.28.09,0.18a1.52,1.52,0,0,1,.92-0.18h3.22c0.27,0,.37-0.09.55-0.09a0.71,0.71,0,0,0,.27-0.18,0.43,0.43,0,0,1,.28-0.28,0.71,0.71,0,0,0-.55-0.09C193.32,119.75,193,119.75,192.95,119.47ZM190,152.22l-0.09.1a0.71,0.71,0,0,0,.09.27,2.87,2.87,0,0,0,1.28.28,1.51,1.51,0,0,1,.83.28q0,0.14.28,0a7.23,7.23,0,0,1,1.1-.28l0.09-.18a0.09,0.09,0,0,0-.09-0.09,1,1,0,0,1-.74-0.18,0.82,0.82,0,0,0-.65,0,3.1,3.1,0,0,0-1.38-.19H190Zm11.41-33,0.18,0.09a0.26,0.26,0,0,0,.09-0.27,1.44,1.44,0,0,1,1.1.18c0.09,0,.28.09,0.28,0a3.43,3.43,0,0,1,1.65-.18h1.2a3.46,3.46,0,0,0,1.65-.28c0-.09.19,0,0.28,0a0.34,0.34,0,0,1,.28.19c0.65-.46,1.47-0.19,2.21-0.28h2.2c0.37-.55,1.11-0.28,1.66-0.28a12.85,12.85,0,0,0,2.67-.19h0.46c0-.09,0-0.28.09-0.28a0.74,0.74,0,0,1,.28.18,0.4,0.4,0,0,1,.28.09c0.28-.28.46-0.09,0.74,0a1.15,1.15,0,0,0,1.1,0,2.22,2.22,0,0,1,1.38-.28h2.12a4.32,4.32,0,0,0,2.39-.27h0.09a0.59,0.59,0,0,0,.83,0,3.76,3.76,0,0,1,.55.18,1.89,1.89,0,0,0,.64-0.28h0.55a1,1,0,0,0,1,.09,10.87,10.87,0,0,1,1.75-.09h6.72a0.72,0.72,0,0,0,.28-0.18,0.26,0.26,0,0,0-.28-0.09h-8.1a28.35,28.35,0,0,0-4,0,1.19,1.19,0,0,0-.64.09c-0.18.18-.28,0.18-0.46,0a0.84,0.84,0,0,0-1.1,0,1.13,1.13,0,0,1-.64.18h-4.79a1,1,0,0,0-.55.09,0.69,0.69,0,0,0-.18.27,1,1,0,0,1-.28-0.09c-0.09,0-.27-0.18-0.37-0.18a1.94,1.94,0,0,1-1.29.27h-2.85a0.78,0.78,0,0,0-.55.18,2.55,2.55,0,0,1-1.47.09,25,25,0,0,1-3.68.19,0.73,0.73,0,0,0-.74.09,1.65,1.65,0,0,1-.92.18h-3a0.73,0.73,0,0,0-.28.09c-0.09,0-.09.19-0.09,0.28A0.51,0.51,0,0,0,201.41,119.19Zm2.85,27.24c0.19,0,.28,0,0.28.09s-0.09.19-.28,0.19v-0.28Zm3-26c0.18,0,.18-0.1.18-0.1a0.18,0.18,0,0,0-.18-0.18h-0.37a0.72,0.72,0,0,0-.28.18,0.92,0.92,0,0,0,.28.1h0.37Zm-0.37-.83H207v-0.09Zm0.64,22.36a0.94,0.94,0,0,1-.09.28c-0.18.09-.18-0.19-0.27-0.28V142h0.37v-0.09Zm0.28,0h-0.28v-0.27C207.76,141.64,207.85,141.64,207.85,141.92Zm1.2-2.85a0.31,0.31,0,0,1-.37.37,0.47,0.47,0,0,1-.37.37,0.3,0.3,0,0,1,.37-0.37A0.31,0.31,0,0,1,209,139.06Zm-0.46-19.59-0.19.09h0.19v-0.09ZM209,120.3a0.76,0.76,0,0,1-.28-0.18,0.67,0.67,0,0,1-.27.18,0.85,0.85,0,0,1,.27.1A0.44,0.44,0,0,0,209,120.3Zm0.27,18.49,0.09,0.09c-0.09.18-.09,0.18-0.28,0.18C209,138.88,209,138.88,209.23,138.79Zm0.37-18.4s0-.1.18-0.1a0.18,0.18,0,0,1-.18-0.18c-0.09,0-.09.18-0.09,0.18A0.09,0.09,0,0,0,209.6,120.39Zm0.28,17.66V138a0.73,0.73,0,0,0,.28-0.18l0.19-.09a0.58,0.58,0,0,1,.09.37,0.31,0.31,0,0,1-.37.27A0.65,0.65,0,0,1,209.88,138.06Zm1.66-18-0.09-.18h-0.18a0.18,0.18,0,0,0,.18.18h0.09Zm1.38,0c0-.18-0.09-0.27-0.27-0.18s-0.28,0-.1.18c0,0,.1.09,0.1,0h0.27Zm0.83,0c-0.09-.18-0.09-0.18-0.27-0.18a0.18,0.18,0,0,0,.18.18h0.09Zm-0.09-.83c-0.18,0-.18,0,0,0.09a0.09,0.09,0,0,1,.09-0.09h-0.09Zm1.1,0.09v-0.09a0.18,0.18,0,0,0-.18-0.18,0.49,0.49,0,0,0-.27.18s0,0.09.18,0.09h0.28Zm0.28,0.46c-0.18,0-.28.09-0.46,0.09a1.25,1.25,0,0,0,.46.28,0.69,0.69,0,0,0,.37-0.09v-0.18A2.17,2.17,0,0,1,215,119.75Zm0.74-.46a0.56,0.56,0,0,0,.73,0l0.09-.09a0.72,0.72,0,0,0-.27-0.18,0.89,0.89,0,0,0-.65.18A0.09,0.09,0,0,1,215.77,119.28Zm0.28,0.55c0,0.18,0,.18.18,0.18A0.18,0.18,0,0,0,216,119.84Zm4.14-.37H218a0.26,0.26,0,0,0-.09.28c0,0.27.09,0.27,0.09,0.27a1.47,1.47,0,0,1,.74-0.27h2.67a0.59,0.59,0,0,0,.55-0.19h0.18l-0.18-.09a5.36,5.36,0,0,1-1.75-.18v0.18Zm-1.93-.55h0.18v-0.19h-0.18v0.19Zm3.31,0.09a0.09,0.09,0,0,1,.09-0.09c0-.19-0.09-0.19-0.27-0.19a2,2,0,0,0-.74,0,0.18,0.18,0,0,0-.19.19h0.19a0.69,0.69,0,0,0,.36.09h0.55Zm4.14,0h-0.83c-0.46,0-.83.55-1.29,0.46-0.09,0-.09,0-0.09.09a1.27,1.27,0,0,0,1.38-.09c0.09-.18.37,0,0.55,0.09s0.37,0,.37-0.28A0.44,0.44,0,0,0,225.7,119Zm1.47-.55a0.09,0.09,0,0,0-.09-0.09v0.28Zm1.2,0.83c0.18,0,.18-0.09.18-0.09a0.18,0.18,0,0,0-.18-0.18h-1.2l-0.09.18a0.09,0.09,0,0,0,.09.09h1.2Zm0.46-.64h0.28a0.34,0.34,0,0,1,.28-0.18,0.4,0.4,0,0,1-.28-0.09h-1c-0.09.09,0.18,0.28,0,.28h0.73Zm1.2,0.55V119c-0.09,0-.09.18-0.09,0.18a0.09,0.09,0,0,0,.09.09v-0.09Zm0.28-.83c-0.1.09-.1,0.09,0,0.28l0.18-.18S230.48,118.37,230.3,118.37Zm1.29,0.28h0.09a0.18,0.18,0,0,0,.19-0.18c0-.09,0-0.09-0.19-0.09s-0.28,0-.28.09Zm2,0a0.18,0.18,0,0,0,.18-0.18s0-.09-0.18-0.09a0.09,0.09,0,0,1-.09.09C233.62,118.46,233.62,118.64,233.62,118.64Zm0.92,0.37a0.73,0.73,0,0,0-.27.18,0.46,0.46,0,0,0,.27.09h0.74a0.46,0.46,0,0,0,.28-0.09c-0.18,0-.28-0.18-0.46-0.18h-0.55Zm4.69-1.66a0.41,0.41,0,0,0-.28-0.09,0.72,0.72,0,0,0-.27.09,0.18,0.18,0,0,1,.18.18A0.37,0.37,0,0,0,239.23,117.35Zm0.73,0.18v-0.27c-0.19,0-.19.09-0.19,0.09A0.18,0.18,0,0,0,240,117.54Zm0.64-.27c-0.18.09-.18,0.09,0,0.27,0,0,0-.18.09-0.18A0.09,0.09,0,0,1,240.6,117.26Z" fill="#062934"/>
    <path d="M250.17,135.94v-0.55a4.63,4.63,0,0,1-1.84.74,1.87,1.87,0,0,0-1.47,1.1,2.61,2.61,0,0,0-1,.46,1.42,1.42,0,0,0-1.38,1h0.92v0.37c-1.2.83-2.76,1.57-3.59,2.58A14.46,14.46,0,0,0,238,144a37.7,37.7,0,0,0-3.77,2.21,62.74,62.74,0,0,1-7,3.68c-1.19.37-2.3,0.83-3.5,1.29a12.22,12.22,0,0,1-7.27.18,1.74,1.74,0,0,1-.73-0.28,15.61,15.61,0,0,1-1.93-3.23,9.42,9.42,0,0,1-.83-4.78c0.28-1.47.64-2.85,1-4.23a33.44,33.44,0,0,1,5.61-9.38c0.74-.92,1.84-1.84,2.57-2.76a2.55,2.55,0,0,1,2.95-.56,22.69,22.69,0,0,1,2.3,1.84,0.83,0.83,0,0,1-.37,1.2H226.8a2.48,2.48,0,0,0-2.76,1.56c-0.91,1.56-1.84,2.67-2.57,4a25.56,25.56,0,0,0-3.68,6.53,7.06,7.06,0,0,1-1.1,2.39,6,6,0,0,0-.19,3.41,4.28,4.28,0,0,0,3.4.37c1.1-.37,2.3-0.74,3.5-1.19a19.38,19.38,0,0,0,3.4-1.29c0.92-.64,2.21-0.92,3.31-1.75a67.13,67.13,0,0,0,6.54-3.68c1.75-.92,3.31-2.12,5.24-3a3.7,3.7,0,0,0,1.56-.82,14.85,14.85,0,0,1,3.68-2.4,30.7,30.7,0,0,0,2.95-1.75,10.89,10.89,0,0,1,3.22-1.29c0.46,0.19-.46,1-0.09,1.93A14.05,14.05,0,0,1,250.17,135.94ZM228.36,114a4.41,4.41,0,0,1,3-.92c0.19,0,.37.27,0.56,0.27,0.46,0.64,1.2,1.11,1.28,1.93a2.33,2.33,0,0,1-.09,1.56,4.9,4.9,0,0,1-2.21,1h-0.83c-0.27-.09-0.83-0.09-1.38-0.27A2,2,0,0,1,228.36,114Zm21.71,20.06a16.54,16.54,0,0,0-4,1.66c-1.93,1.2-3.86,2.21-5.8,3.41a2,2,0,0,0-.92.73,5,5,0,0,0,2.48-.83c2.48-1.38,5-3,7.54-4.32A2.11,2.11,0,0,0,250.08,134.1Z" fill="#062934"/>
    <path d="M289.17,134.56a0.65,0.65,0,0,1-.55.28,16.86,16.86,0,0,0-4.42,1.56c-2.3,1-4.6,1.84-6.81,2.76a2.62,2.62,0,0,0-.73.37c-1.84,1.38-4.14,1.75-6.07,2.85-2,.83-4.05,1.75-6,2.67a25.68,25.68,0,0,1-9,3.13,2.19,2.19,0,0,0-1.29.64c-1.84.74-3.4,0.09-5-.45a5.19,5.19,0,0,1-2.39-1.38,6,6,0,0,1-1.93-3.13,7.52,7.52,0,0,1,0-4l0.65-1.2a21.75,21.75,0,0,1,6.44-8.19,39.48,39.48,0,0,1,8.37-6.17,7.7,7.7,0,0,1,3.31-1.38c0.83-.37,1.93-0.46,2.76-0.83,1.2-.83,2.21-1,3.31-0.28,0.18,0.28.46,0,.83,0.28a2.17,2.17,0,0,1,1,.37,7.85,7.85,0,0,1,1.47,2A2.89,2.89,0,0,1,273,128c-1.2,1.47-1.94,3.13-3.77,3.87l-1.29.83a17.31,17.31,0,0,1-8.55,3.41,6.67,6.67,0,0,1-2.67.27c-1.2,0-2.67-.27-4.14-0.27a1,1,0,0,0-.83.37c-1.47,2.12-3.31,4-4.14,6.44a1.29,1.29,0,0,0,.74,1.75c1,0.27,2.21.83,3.13,0.27a24.47,24.47,0,0,0,5.89-1.1c1.57-.28,3.22-1.28,4.69-1.75,1.75-.83,3.12-1.56,4.69-2.39,0.46,0.55.46,0.55,0.92,0a6.89,6.89,0,0,1,2.39-1.47,1.82,1.82,0,0,1,1.2-.55c3-1.29,6.16-2.85,9-4a15.84,15.84,0,0,1,2.67-1,10.92,10.92,0,0,0,2.3-1.2,2,2,0,0,1,2.67.74,2.15,2.15,0,0,0,.83.55C289.36,133.08,289.73,134.1,289.17,134.56Zm-36,.19a1.53,1.53,0,0,0,1.1,0,2.5,2.5,0,0,1,1.2-.19v0.19c0.83-.19,1.93-0.28,2.67-0.46a26.54,26.54,0,0,0,3.13-1.2,19.37,19.37,0,0,0,6.44-3.31A5.67,5.67,0,0,0,270,127a1.91,1.91,0,0,0,.28-1.29c0.28-.46-0.09-0.65-0.46-1s-0.64.09-.74,0.37a1,1,0,0,1-1.1.46,13,13,0,0,0-5.8,1.84,35.73,35.73,0,0,0-6,4l-2.49,2.39A1.57,1.57,0,0,0,253.2,134.74Z" fill="#062934"/>
  </g>
  <path d="M149.05,89a2.2,2.2,0,0,0,1.11-.28,1.28,1.28,0,0,0,1.2-.92,20.3,20.3,0,0,0,1.93-4.33c0.18-.18.18-0.27,0.37-0.46a4.12,4.12,0,0,0,.55-1.11,0.89,0.89,0,0,0,0-.83c0.09-.28.27-0.73,0.37-1a1,1,0,0,1,1-.64c1.1-.18,1.93.37,2.94,0.83a1.3,1.3,0,0,1,.37,1.29c-0.55.92-.82,2.21-1.38,3.13-0.74,1.29-1.29,2.67-2.12,4a0.25,0.25,0,0,0,.18.37h1.66a4.06,4.06,0,0,1,1.83.28h0.65a7.29,7.29,0,0,0,1.94.18,3.35,3.35,0,0,1,1.38.28c0,0.09.19,0.09,0.19,0.09,0,0.19,0,.28-0.19.28a7.15,7.15,0,0,0-1.38.92,4.39,4.39,0,0,1-2,.65,7.71,7.71,0,0,0-2.11.27,4.55,4.55,0,0,1-1.93.46,1.47,1.47,0,0,0-.83.27c-0.46.09-.83,0.28-1.29,0.37a0.69,0.69,0,0,0-.55.46v0.09c-0.46.56-.55,1.29-1,1.84S151.35,96.5,151,97a16.11,16.11,0,0,0-1.38,2.49,0.5,0.5,0,0,1-.18.27,7.38,7.38,0,0,0-1.29,2.21,2.94,2.94,0,0,1-.37.55,5.84,5.84,0,0,0-1.57,1.84,0.29,0.29,0,0,1-.28.27,1.26,1.26,0,0,0-.83.83,1.61,1.61,0,0,1-.64.74c0,0.09-.18.09-0.28,0.09v-0.09a5.66,5.66,0,0,1,0-1.75,1.33,1.33,0,0,1,.1-0.55,17.29,17.29,0,0,1,1-2.85,2.88,2.88,0,0,1,.27-0.55,14.59,14.59,0,0,1,1.38-3.5c0.55-1.1.92-2.3,1.47-3.4a0.38,0.38,0,0,0-.28-0.37A2,2,0,0,0,147,93a7.56,7.56,0,0,1-2.85-.28,5.87,5.87,0,0,1-1.47-.92,0.45,0.45,0,0,1-.09-0.28,1.72,1.72,0,0,1,.83-2,3,3,0,0,1,1.93-.55h3.68Z" fill="#062934"/>
  <g>
    <path d="M45,14.78H44.77a13.06,13.06,0,0,1-1.66,1.1,2.15,2.15,0,0,1,.37-0.83,29.93,29.93,0,0,1,2.95-2.94c0.37-.37.64,0,0.92,0v0.46a2,2,0,0,0,1.75-1.11A0.5,0.5,0,0,1,49.37,11c-0.18,0-.27.09-0.46,0.46H48.27a6.75,6.75,0,0,1,1.84-2.11,0.84,0.84,0,0,1,.55-0.09l-0.46.92A2.38,2.38,0,0,0,52,9a1.28,1.28,0,0,0,1.1-.92H52.32a1.41,1.41,0,0,1,.55-0.74C53.61,6.87,54.34,6.5,55,6a0.6,0.6,0,0,1,.46-0.18A10.18,10.18,0,0,1,58.67,4a18.76,18.76,0,0,1,3.22-1.1,0.69,0.69,0,0,1,.83,0A6.08,6.08,0,0,0,64,3a5.47,5.47,0,0,1,4,1.75,4.36,4.36,0,0,0,1.2,1.1c0.55,0.65,1,1,.37,1.93a1.46,1.46,0,0,0,.18,1.47,5.25,5.25,0,0,0,.46.28,0.44,0.44,0,0,1,.09-0.37h0.18c0-.19.18,0,0.18,0a6.87,6.87,0,0,0,.09,1.38A3.68,3.68,0,0,1,71,13.12a2.31,2.31,0,0,1-.28,1.75,6.86,6.86,0,0,0,0,1.38,5.56,5.56,0,0,1-.28,1.56,3.36,3.36,0,0,0-.18,1.29A11.89,11.89,0,0,1,70,21a16,16,0,0,1-1,3.41c-0.46,1.2-.46,2.48-0.83,3.68v0.46A6.31,6.31,0,0,1,67,30.23c-0.37.46,0,1.38-.37,1.93a1.22,1.22,0,0,0-.28,1.38,4.92,4.92,0,0,1-.37,1.1,12.61,12.61,0,0,0,2.48-1.47c0.83-.65,1.66-0.83,2.49-1.47a0.7,0.7,0,0,0,.28.18c0,0.18,0,.28-0.09.28a19.65,19.65,0,0,1-2.67,1.56,4.18,4.18,0,0,0-.83.92,0.5,0.5,0,0,0,.46.19V35.2L68,35.39A0.57,0.57,0,0,1,67.87,35a1.33,1.33,0,0,1-.19-0.37,3.14,3.14,0,0,0-1.19.83,0.39,0.39,0,0,1,.37.56,0.18,0.18,0,0,1-.19.18L66.49,36V35.48a3.63,3.63,0,0,1-.83.46c-0.46.28-1,.46-0.46,1,0,0.18,0,.37-0.18.37-1,1.2-1.11,2.85-1.84,4.32a1.53,1.53,0,0,1-.46,1.11,3.45,3.45,0,0,0-.83,1.84,0.57,0.57,0,0,1-.18.37,2.56,2.56,0,0,1-.46.55c-0.09.27,0.37,0.46,0,.74a1.23,1.23,0,0,1-.83.64c-0.27.1-.46,0.46-0.19,0.64a14.78,14.78,0,0,0,.37.37c-0.46.83-.83,1.57-1.38,2.39h-0.1c-0.46-.28-0.55,0-0.46.37,0.46,0.55.46,0.83-.28,1.2a4,4,0,0,1-.92.82c-0.37.28,0.18,0.46,0.18,0.83s-0.73.09-.37,0.74v0.09a1.12,1.12,0,0,1-.65,1.11c-0.55.18-.55,0.18-0.46,0.64s0.28,0.65-.28.65v0.18a1,1,0,0,1,0,1,2.56,2.56,0,0,1-.74,1.38,13.16,13.16,0,0,0-1,1.93,0.57,0.57,0,0,1-.46.28,1,1,0,0,0-.09-0.28v-1a0.69,0.69,0,0,1,.55-0.64c0.28-.28,0-0.28-0.19-0.37a0.75,0.75,0,0,1-.36-0.83A2.47,2.47,0,0,0,52.69,60a0.43,0.43,0,0,1,.46.18,1.12,1.12,0,0,1-.27.83,2.4,2.4,0,0,1,.27,1v1a0.41,0.41,0,0,1-.27.28c-0.18.28-.37,0.28-0.55,0a0.65,0.65,0,0,0-.74-0.46V62.07a0.8,0.8,0,0,0-.46.83h0.46v0.46C52.13,65.1,52.13,65,50.2,65c0-.18,0-0.46-0.19-0.18,0.09,0,.09.18,0.19,0.18a1.74,1.74,0,0,1,.82.83,1.89,1.89,0,0,1-.45.83c-0.19.18-.19,0.37,0,0.46a2.42,2.42,0,0,1-.19.46c-0.18.37-.83,0.28-1,0.83,0,0.46-.27.74-0.27,1.2a1,1,0,0,1-.74.83,2.21,2.21,0,0,0-.83,1.47c0.37,0.74-.74,1-0.74,1.65H46.33l-0.09.19a1.11,1.11,0,0,1-.65,1.11c-0.46.09-.46,0.28-0.28,1a0.68,0.68,0,0,1-.18.55c-0.73.27-.83,1-1.2,1.75-0.64,0-.37.74-0.64,1a2,2,0,0,0-.55,1.19A3.88,3.88,0,0,1,40.63,83a2.62,2.62,0,0,0-.37,1.75,1.38,1.38,0,0,1-.47,1.38,2.12,2.12,0,0,0-.73.82,2.68,2.68,0,0,1-1.75,1.56,2.88,2.88,0,0,0-1.47,1.47,3.38,3.38,0,0,1-1.93,2.11,1.07,1.07,0,0,0-.64.64c0.18,0.83-.55,1-1,1.29a1.49,1.49,0,0,0-.55.83c0,0.83-.74,1.29-1.1,1.93-0.64.37-1,1.2-1.66,1.57-1,1.75-2.76,2.58-4.23,3.77a6.65,6.65,0,0,1-6.26.83,1.13,1.13,0,0,1-.74-0.37,8.11,8.11,0,0,0-1.57-1.11,13.75,13.75,0,0,1-1.38-1.84,8.52,8.52,0,0,1-1.47-6.07,7.32,7.32,0,0,1,.83-2.85,27.81,27.81,0,0,0,1.29-3.13l1-2.3c0.46-1,1-1.84,1.47-2.76a1,1,0,0,1,.27-0.37c0,0.19,0,.19.19,0.19a0.68,0.68,0,0,0,.09.46,3.87,3.87,0,0,0,.09-0.46V82.12a2,2,0,0,0,1.38-1.75,2.75,2.75,0,0,0,.92-1.66c0.64-.18.83-1.28,1.38-1.84A0.65,0.65,0,0,1,22,76.51c-0.18-.28-0.55-0.37-0.18-0.83a19.31,19.31,0,0,0,1.38-2.12,0.45,0.45,0,0,1,.46-0.18v1.19c0.46-.18.46-0.83,0.73-1.19H23.7l0.46-1.1a1.47,1.47,0,0,0,.65-0.65v1.29A6.1,6.1,0,0,0,26,71.36a0.54,0.54,0,0,0,.18-0.56,0.74,0.74,0,0,0-.55.46l-0.83.37A0.68,0.68,0,0,1,25,71.08a34.27,34.27,0,0,0,2.3-3.22,2,2,0,0,1,.83-0.74v0.74a2.45,2.45,0,0,1-.37.92,3.94,3.94,0,0,0,1.74-2.12c-0.55-.18-0.83.37-1.38,0.46,0-.28,0-0.65.18-0.65l1.48-1.38A0.71,0.71,0,0,1,30.24,65c0,0.37-.46.83-0.28,1.29l-0.09.09L30,66.3h0.46c0,0.18,0,.37.18,0.18l-0.18-.18a2.77,2.77,0,0,1,.37-0.73,1.22,1.22,0,0,0,.28-1,1.67,1.67,0,0,0-.64.46,0.93,0.93,0,0,1,.64-1.2v0.74c1.38-.74,2-1.84,3.22-2.94V61.52s0-.18-0.09-0.18H34a1.79,1.79,0,0,1-.55.36,4.22,4.22,0,0,1-1.93,1.66V62.9a11.22,11.22,0,0,1,2.21-2.48c0.55-.37,1-0.83,1.66-1.2V60h0.09C37,58.39,38.7,57.1,40,55.45a1,1,0,0,1,.28-0.37,0.48,0.48,0,0,0,.37-0.46c-0.28,0-.28.18-0.37,0.37l-0.47.46H39.07a3.07,3.07,0,0,1,1.57-1.66v0.83a1.09,1.09,0,0,0,.92-0.83H40.63a8.28,8.28,0,0,1,1.47-1.65,0.89,0.89,0,0,1,.64.18c-0.19,0-.19.18-0.19,0.36a0.27,0.27,0,0,0-.09.28,1,1,0,0,0,.65-0.18L45,50.84h-1A1.59,1.59,0,0,1,45,50v0.83A1.25,1.25,0,0,0,45.79,50H45a1.64,1.64,0,0,1,1.11-1.2v0.74h0.09a0.86,0.86,0,0,0,.73-0.74,5.45,5.45,0,0,0,.65-0.09,4.63,4.63,0,0,0,1.56-1.66,0.32,0.32,0,0,0,.27-0.37,0.82,0.82,0,0,0-.46.37H48.27a4,4,0,0,1,1.47-1.56,0.78,0.78,0,0,1,.47,0v0.27a0.83,0.83,0,0,0-.37.46A0.33,0.33,0,0,0,50.2,46,2.38,2.38,0,0,0,52,44.59c0.65,0,.65,0,0.65-0.83H52.5c0-.27,0-0.27.19-0.37v0.37c0.46,0,.83.19,0.92-0.37H52.69a3.09,3.09,0,0,1,.83-0.74c0.46-.18.82-0.92,1.47-0.92h0.18l-0.28.73a0.73,0.73,0,0,0-.46.46c-0.46.19-.74,0-0.83,0.46h0.83a0.42,0.42,0,0,0,.46.37,0.62,0.62,0,0,0-.46-0.37V42.93a0.76,0.76,0,0,0,.46-0.28c0.92,0,1.19-.73,1.56-1.38H55.63c0.45-.65.83-1.29,1.66-1.29v0.47a0.92,0.92,0,0,0,1-.47h-1a2.07,2.07,0,0,1,1.65-1.19v0.46a0.86,0.86,0,0,0,.46-0.09,0.39,0.39,0,0,0,.37-0.37c0-.28,0-0.37-0.37-0.37,0-.09,0-0.09.19-0.09a3.47,3.47,0,0,1,1-1,22.7,22.7,0,0,0,.83-2.3c0.46-1,.65-1.93,1.1-2.85,0-1.29.92-2.3,1-3.4,0-.37.37-0.65,0.37-1,0.09-.92.83-1.84,1-2.76A7.88,7.88,0,0,1,65.84,22c0.18-1.2.55-2.39,0.64-3.68a20.47,20.47,0,0,0,.46-4.23,8.1,8.1,0,0,1,.55-2.67,3.58,3.58,0,0,0,0-2.76A4.74,4.74,0,0,1,67.22,7a3.2,3.2,0,0,0-.27-1.2,0.89,0.89,0,0,0-.74-0.18,6.14,6.14,0,0,0-1.84,0,3.05,3.05,0,0,0-.83.1,34,34,0,0,0-8.19,4.51,19.08,19.08,0,0,0-4.23,3.49c-0.55.55-1.39,0.65-1.75,1.29a8.74,8.74,0,0,1-1.65,1.57c-0.37.73-1.29,0.92-1.84,1.65a11.86,11.86,0,0,1-1.75,2A14.43,14.43,0,0,0,42.47,22a36.14,36.14,0,0,0-2.67,2.57,22.7,22.7,0,0,1-2.48,2.76,14.53,14.53,0,0,1-1,1.57l-3.87,5.24a4.49,4.49,0,0,0-1,1.84,4.09,4.09,0,0,1-1,1.84L30,38.7a5.48,5.48,0,0,0-.74.73c0.27,0.55-.28,1-0.09,1.56v1.66a0.71,0.71,0,0,1-.83.28H28.12c-1.38-1-2.49-2-2.39-4.14a5.23,5.23,0,0,1,1.19-4l0.83-1.66a4.89,4.89,0,0,1,1.47-2.11,14.49,14.49,0,0,0,1.84-2.49,24.23,24.23,0,0,1,4.14-5.06,16.17,16.17,0,0,0,1.47-1.84,10.15,10.15,0,0,0,1.38-1.47,1.87,1.87,0,0,1,.65-0.82,6.37,6.37,0,0,0,2.39-2.3c0.56-.46,1.2-0.73,1.75-1.19h0.28v0.46a2,2,0,0,0,.83-0.09c0.37-.46.83-0.82,1.11-1.2C45,14.87,45,14.78,45,14.78ZM26.65,94.45a8.57,8.57,0,0,1,1-.73,5.9,5.9,0,0,1,1.47-1.84,16.41,16.41,0,0,1,1.66-1.93,12.94,12.94,0,0,1,1-1.38c0.27-.37,1.1-0.55.73-1.38,0.73-.28.92-1.1,1.47-1.57l1.2-1.19c1.29-2.49,3.31-4.6,4.6-7,0.47-.74,1.2-1.38,1.66-2.21A4.17,4.17,0,0,1,42,74.4c0.55-1.47,1.47-2.95,2.11-4.33,0.82-1.29,1.47-2.57,2.3-4a35.77,35.77,0,0,0,2.48-4.42c0.92-1.47,1.66-3.13,2.67-4.78,0.28-.46.55-1.1,0.92-1.65a0.89,0.89,0,0,1,.19-0.74A39.13,39.13,0,0,0,55.44,49c0.92-1.93,1.65-3.77,2.48-5.62a0.87,0.87,0,0,0,.18-0.64l-0.27-.1a13.14,13.14,0,0,1-2,1.94H55.17a7,7,0,0,0,.46-0.83H54.89a2.42,2.42,0,0,1-.46.83h0.73A2,2,0,0,1,54,46L52,47.71c-0.37.28-.83,0.46-1,0.65L49.19,50.2a0.57,0.57,0,0,0-.09.46c-0.18.55-.28,0.55-0.74,0.19H48.08a1.49,1.49,0,0,0-.55.46c-0.92.83-1.66,2-2.58,2.85a1.41,1.41,0,0,0-.64.83,1,1,0,0,0-.73.83,0.55,0.55,0,0,1-.64.46c-0.37,0-.46.18-0.18,0.55-0.46.64-.74,1.1-1.66,0.73a1,1,0,0,1-.46.37,0.41,0.41,0,0,0-.28.37,4,4,0,0,1-1.56,2.57,7.12,7.12,0,0,1-1.29.83c-0.46.19-.46,1-0.83,1.2a1,1,0,0,1-.46.46V62.9a0.57,0.57,0,0,1-.37.18,1.86,1.86,0,0,0,.37.28A2.18,2.18,0,0,1,35,64.55a0.4,0.4,0,0,0-.73.09c-0.55.92-.74,1.84-1.75,2.21a0.57,0.57,0,0,0-.09.46,1.86,1.86,0,0,1-.37.64A3.55,3.55,0,0,0,31,69.42a15.22,15.22,0,0,1-1.47,2c-0.83,1.11-1.74,2.3-2.58,3.22l-2.21,3.22c-0.83,1.29-1.56,2.58-2.3,4a5.55,5.55,0,0,1-.74.65c-0.28.19-.46,0.19-0.46,0.46a26.78,26.78,0,0,1-1.29,2.95,12.62,12.62,0,0,1-1.56,2.66,10.43,10.43,0,0,0-.92,2.85c-0.18.28-.18,0.55-0.28,0.65A2.36,2.36,0,0,0,16.44,94a5.7,5.7,0,0,0-.65,3.59c0.09,0.36.09,0.55,0.37,0.55a2.4,2.4,0,0,0,1.47.64c0.83-.19,1.93,0,2.94-0.19A12.09,12.09,0,0,0,23,97.31,21.34,21.34,0,0,0,25.82,95,1.88,1.88,0,0,0,26.65,94.45ZM17.91,83.5h0.27l-0.09-.09S17.91,83.41,17.91,83.5Zm2.48-4.79L20,79C19.93,78.72,20.21,78.72,20.39,78.72Zm0.18-.18c0.09,0,.09.09,0.09,0.18H20.39A0.34,0.34,0,0,1,20.57,78.54Zm1.29,20.7-0.18.09h0.18V99.24Zm0.83-23.09c0-.09,0-0.09.18-0.28C22.69,75.87,22.42,75.87,22.69,76.14Zm0.18-.28a1.56,1.56,0,0,0,.83-1.29A1,1,0,0,0,22.87,75.87Zm1.93-2.94a0.47,0.47,0,0,0-.37.37A1.44,1.44,0,0,1,24.81,72.92Zm1.84-2.48A0.7,0.7,0,0,0,27,70.07c-0.28,0-.37.1-0.37,0.28a0.48,0.48,0,0,0-.46.46A0.42,0.42,0,0,0,26.65,70.44Zm0.27,26.22c-0.18.09-.27,0-0.18,0.18A0.15,0.15,0,0,0,26.92,96.66Zm0,1.66a0.19,0.19,0,0,0-.18.27A0.32,0.32,0,0,0,26.92,98.32Zm0.83-29.54A1.16,1.16,0,0,0,27,70.07,1.18,1.18,0,0,0,27.75,68.78ZM27.29,96.11a0.51,0.51,0,0,0-.27.55Q27.29,96.66,27.29,96.11Zm0.46-.46a0.76,0.76,0,0,0-.28.46C27.66,96.11,27.75,96,27.75,95.65Zm-0.1,1.93a0.18,0.18,0,0,0-.18.18C27.66,97.76,27.75,97.76,27.66,97.58Zm1-2.58c-0.73,0-.73,0-0.91.64A0.94,0.94,0,0,0,28.67,95Zm1.94-2.67a10.37,10.37,0,0,0-1.84,2.11,0.43,0.43,0,0,0-.1.37A4.13,4.13,0,0,0,30.6,93C30.79,93,30.6,92.7,30.6,92.34Zm-1.11,3.5a1,1,0,0,0-.73.18v0.28a0.25,0.25,0,0,0,.37,0Zm0.37-29.44-0.37.18ZM29.78,95.47a0.34,0.34,0,0,0-.28.18A0.72,0.72,0,0,0,29.78,95.47ZM30,67.31a0.51,0.51,0,0,0,.28.18C30.24,67.31,30.24,67.13,30,67.31ZM30.24,95a0.42,0.42,0,0,0-.28.28C30.15,95.19,30.24,95.19,30.24,95Zm0.18-27.42a0.48,0.48,0,0,1,.18.28V67.59H30.42Zm0.18,27a0.73,0.73,0,0,0-.18.28C30.6,94.82,30.6,94.73,30.6,94.55Zm0-2.21c0.36,0,.46-0.09.46-0.28A0.77,0.77,0,0,0,30.6,92.34Zm0.46,1.38c-0.46.09-.28,0.46-0.28,0.83C31.25,94.45,31.06,94,31.06,93.72ZM30.79,67.5c0.18,0,.28,0,0.18-0.37A0.57,0.57,0,0,0,30.79,67.5Zm0.28-3.68a0.43,0.43,0,0,1,.46-0.46A0.39,0.39,0,0,1,31.06,63.81Zm0.92,27A1.18,1.18,0,0,0,31.06,92,1.06,1.06,0,0,0,32,90.78Zm-0.46,2.48a0.82,0.82,0,0,0-.27.47C31.43,93.72,31.52,93.53,31.52,93.25ZM31.8,93a0.41,0.41,0,0,1-.28.27C31.71,93.25,32,93.25,31.8,93Zm0-26.87A0.51,0.51,0,0,1,32,65.84C31.8,65.84,31.52,65.84,31.8,66.11ZM32,65.84a0.43,0.43,0,0,0,.46-0.46A0.39,0.39,0,0,0,32,65.84ZM42.47,77.89H42a4.53,4.53,0,0,1,.74-1.84,2.71,2.71,0,0,0,.37-1.47l-0.55.37a24.68,24.68,0,0,1-1.75,2.57c-0.83,1.38-1.75,2.67-2.57,4.14A18.81,18.81,0,0,1,35,86.27a15.54,15.54,0,0,0-1.57,2.11,1.69,1.69,0,0,0-.55,1.57C32,90,32,90,32,90.78h0.92V89.94a3.06,3.06,0,0,1,.83-0.74,1.66,1.66,0,0,1,.55-0.74,3.36,3.36,0,0,1,.92.09c0.18,0,.37,0,0.37-0.09,0.18-.46.74-0.92,0.65-1.38a1.74,1.74,0,0,0-.83.37c-0.18,0-.18,0-0.18-0.18-0.18,0-.18,0-0.18-0.1a3.45,3.45,0,0,1,1.2-1.1,0.63,0.63,0,0,1,.46-0.37l0.09-.09a0.09,0.09,0,0,1,.09.09c1.19-.46,1.47-1.56,2.21-2.39V83H38.7a0.37,0.37,0,0,1-.37.18,1,1,0,0,0-.09-0.37,6.49,6.49,0,0,1,1.38-1.93c0.36-.46.55-1.19,1.19-0.64a1.17,1.17,0,0,0,.83-0.37A2.16,2.16,0,0,0,42,79.18V78.72c-0.55-.37-0.55-0.37,0-0.83v0.83A0.7,0.7,0,0,0,42.47,77.89Zm-10-12.51c0.28,0,.28-0.09.46-0.37C32.54,65.1,32.44,65.1,32.44,65.38ZM32.91,91.7c-0.18,0-.46,0-0.37.27Zm0-26.68c0.09,0,.18,0,0.09-0.37C33,64.83,32.91,64.83,32.91,65Zm0.37,25.76H32.91V91.7A1,1,0,0,0,33.27,90.78Zm0.28-.37a0.33,0.33,0,0,0-.28.37C33.45,90.78,33.55,90.68,33.55,90.4Zm0.83-.92a0.92,0.92,0,0,0-.64.92C34.37,90.4,34.37,90.4,34.37,89.48ZM34.29,63.63a1,1,0,0,0,.09-0.28C34.29,63.36,34,63.36,34.29,63.63Zm0.09-.28c0.18-.18.46-0.18,0.18-0.28A0.5,0.5,0,0,1,34.37,63.36Zm0.37,25.85-0.37.27C34.56,89.48,34.84,89.48,34.74,89.21Zm0-28.43c0-.19.09-0.19,0.09-0.37C34.74,60.41,34.37,60.41,34.74,60.78Zm0.09-.37c0.37-.09.55-0.09,0.55-0.37A0.62,0.62,0,0,0,34.84,60.41Zm0.55-1.2c0-.83.09-0.83,0.83-0.83A1.24,1.24,0,0,1,35.39,59.21Zm0.09,2.85,0.09-.18s0-.19-0.09-0.19v0.37ZM36,24l-0.19-.09V24H36ZM36.22,58.3a0.32,0.32,0,0,1,.27-0.37A0.41,0.41,0,0,1,36.22,58.3Zm0,4.6h0.27a0.15,0.15,0,0,0-.18-0.19A0.32,0.32,0,0,0,36.22,62.9Zm0.27,23.19a0.32,0.32,0,0,0-.27.18v0.83C36.67,86.91,36.49,86.63,36.49,86.08Zm0-63.12c-0.18,0-.27,0-0.18.37A0.37,0.37,0,0,0,36.49,23ZM36.31,61.24a0.58,0.58,0,0,0,.18-0.37C36.31,60.87,36.22,60.87,36.31,61.24ZM36.86,22.6c-0.09,0-.19.09-0.19,0.37ZM36.67,57.93a0.36,0.36,0,0,1,.19-0.37A0.36,0.36,0,0,1,36.67,57.93Zm0,2.94a0.69,0.69,0,0,0,.19-0.46A0.43,0.43,0,0,0,36.67,60.87Zm0.19,25H36.67v0.18A0.2,0.2,0,0,0,36.86,85.9Zm-0.09,1.65H36.67c0,0.19.09,0.19,0.09,0.19S36.86,87.55,36.77,87.55Zm0.46-30.08s-0.18,0-.18.09V57.28C37.23,57.28,37.23,57.28,37.23,57.46ZM37,60.32A0.66,0.66,0,0,0,37.32,60,0.42,0.42,0,0,0,37,60.32Zm0.64-38.46-0.37.27C37.5,22.14,37.78,22.14,37.69,21.86ZM37.32,60c0.37-.18.46-0.18,0.46-0.46A1,1,0,0,0,37.32,60Zm0.46-.46c0.09,0,.46,0,0.09-0.28A0.45,0.45,0,0,1,37.78,59.58ZM38.33,56a0.57,0.57,0,0,0,.37-0.18,0.34,0.34,0,0,1-.18.27S38.33,56.09,38.33,56Zm0.73-.55c-0.09.18-.09,0.37-0.37,0.37A0.38,0.38,0,0,1,39.07,55.45ZM39,58.39a0.24,0.24,0,0,0-.19.37A0.68,0.68,0,0,0,39,58.39Zm-0.19-.64a0.22,0.22,0,0,0,.27.18C39,57.74,39.07,57.56,38.79,57.74Zm1,23.92a1.15,1.15,0,0,0-.73,1.1A0.8,0.8,0,0,0,39.8,81.67ZM39.07,58.3a1.73,1.73,0,0,1,.28-0.37H39.07V58.3Zm1.2-39.1a1.7,1.7,0,0,0-1.11.46c-0.09.18-.09,0.37,0.19,0.37,0,0.18,0,.18.18,0A0.82,0.82,0,0,0,40.26,19.19ZM39.16,59.31v0.1h0.19Zm0.37-2.48a0.39,0.39,0,0,1,.27.27C39.8,56.91,39.8,56.73,39.53,56.82Zm0,1.1,0.27-.37A0.32,0.32,0,0,0,39.53,57.93ZM40,57.1v0.37a1.73,1.73,0,0,0,.28-0.37H40Zm0.19,24.2a0.18,0.18,0,0,0-.19.19A0.18,0.18,0,0,0,40.17,81.29Zm0.46-62.47a1.43,1.43,0,0,1-.37.37A0.31,0.31,0,0,0,40.63,18.82ZM40.26,57.1a1.32,1.32,0,0,1,.37-0.36A0.46,0.46,0,0,0,40.26,57.1Zm0.09-1a0.73,0.73,0,0,1,.28.19v0.46a2.29,2.29,0,0,0,.46-0.46H40.63V55.81A0.41,0.41,0,0,1,40.35,56.09Zm0.28,26.68c0-.09,0-0.28-0.28-0.09A0.47,0.47,0,0,0,40.63,82.77Zm0.46-64.21a0.76,0.76,0,0,0-.46.27C41,18.82,41.09,18.73,41.09,18.55ZM40.63,55.81h0.46v0.46a2.22,2.22,0,0,0,.46-0.46H41.09V55.53A0.86,0.86,0,0,0,40.63,55.81Zm0.18,2.48a0.55,0.55,0,0,0-.09-0.37,0.31,0.31,0,0,1,.28.18Zm0.74-40.21a0.81,0.81,0,0,1-.46.28C41.46,18.37,41.55,18.27,41.55,18.09ZM41.18,55.45h0.37c-0.09,0-.09-0.18-0.09-0.37A1.57,1.57,0,0,1,41.18,55.45Zm0.37-37.54a0.44,0.44,0,0,0,.37-0.09C41.83,17.81,41.65,17.91,41.55,17.91ZM42,53.33a0.39,0.39,0,0,0-.46.46A0.44,0.44,0,0,0,42,53.33Zm-0.46,2.21v0.28a0.44,0.44,0,0,1,.27-0.28H41.55Zm0.74-38.18a1,1,0,0,0-.28.37A1,1,0,0,0,42.29,17.35ZM42.47,53C42.11,53,42,53,42,53.33A0.6,0.6,0,0,0,42.47,53ZM42.29,17.35a0.18,0.18,0,0,0,.18-0.09A0.18,0.18,0,0,1,42.29,17.35Zm0.46-.55c-0.19,0-.28.09-0.28,0.46A0.46,0.46,0,0,0,42.75,16.8Zm0.37,59.89a3,3,0,0,0-.65,1.2c0.65-.19.65-0.19,0.65-0.73V76.69ZM42.56,55a0.36,0.36,0,0,0,.19-0.37C42.56,54.62,42.47,54.62,42.56,55Zm0.28-38.27a0.41,0.41,0,0,0,.28-0.37Zm0,36.89a0.22,0.22,0,0,1,.28.18C43.12,53.6,43.12,53.33,42.84,53.6Zm0,1a1,1,0,0,0,.28-0.37C42.93,54.25,42.84,54.34,42.84,54.62Zm0.28-.37a0.9,0.9,0,0,1,.37-0.09,0.68,0.68,0,0,0-.37-0.37v0.46Zm0.83,19.14a1.21,1.21,0,0,0-.83,1.19A1,1,0,0,0,43.94,73.38ZM43.3,51a5.8,5.8,0,0,0,.64-0.18,1.16,1.16,0,0,1-.37.64H43.3V51Zm0.18,25.21a0.5,0.5,0,0,0-.18.28C43.48,76.51,43.57,76.51,43.48,76.24Zm0.46-.83s-0.37,0,0,.28V75.41Zm3.41-5.06-0.09-.18H47.07l-1,.92c-0.28.28-.28-0.18-0.28-0.28-0.19-.18,0-0.18,0-0.37a0.79,0.79,0,0,0-.65.37,5.63,5.63,0,0,0-.83,1.48,2,2,0,0,0-.37,1.1,1.93,1.93,0,0,0,.64-0.46l0.74-.37c0-.27,0-0.27.74-0.65A1.68,1.68,0,0,0,47.35,70.35Zm-3,4.32a0.18,0.18,0,0,0-.18.19,0.51,0.51,0,0,0-.19.55,2.25,2.25,0,0,0,.46-0.46A0.39,0.39,0,0,1,44.31,74.67ZM44.13,53.14h0.18V53C44.13,53,44.13,53,44.13,53.14Zm1,20.61V73.56c-0.09,0-.09.19-0.19,0.19,0.1,0,.1.18,0.1,0.18S45.14,73.93,45.14,73.75ZM45,52.32V52.5a0.36,0.36,0,0,1,.37-0.18c0-.18,0-0.18-0.09-0.18A0.32,0.32,0,0,0,45,52.32ZM45.6,72.65a1,1,0,0,1-.28-0.09C45.32,72.65,45.32,72.92,45.6,72.65ZM45.6,14H45.42v0.09ZM56.46,49.55L56.08,50a6.09,6.09,0,0,1-.64,1.66L54,54.34c-0.36.92-.92,1.75-1.28,2.57A5.45,5.45,0,0,1,52,58.39a4.48,4.48,0,0,0-1,1.84c-0.37.64-.82,1.29-1.2,2a11.91,11.91,0,0,1-.73,1.56,11.89,11.89,0,0,1-.83,1.56c-0.73.92-1,2.12-1.93,2.95a2.31,2.31,0,0,0-.55,2,15.13,15.13,0,0,0,3.13-5.06c1.75-2.94,3.22-5.88,4.78-8.83a14.85,14.85,0,0,0,.74-1.66,1.07,1.07,0,0,1,.73-0.55,2.85,2.85,0,0,1,.46-1.57A5.19,5.19,0,0,0,56.46,49.55ZM45.79,50a1.2,1.2,0,0,1,.28-0.46C45.88,49.55,45.79,49.74,45.79,50Zm0.46-1.29v0.09H46.06V48.73h0.18Zm0.19-35.24c-0.1,0-.37,0-0.1.27A0.9,0.9,0,0,0,46.43,13.49Zm0.46,35.24H46.24a1.59,1.59,0,0,1,1.47-1.2A3.47,3.47,0,0,1,46.89,48.73Zm-0.55,2.94c0-.18.1-0.18,0.1-0.37C46.33,51.3,46.24,51.3,46.33,51.67Zm0.55-38.73c-0.27,0-.27.19-0.46,0.55C46.8,13.49,46.89,13.3,46.89,12.94ZM46.43,51.3c0.37-.09.46-0.09,0.46-0.46C46.61,50.84,46.61,51,46.43,51.3Zm0.92-38.73c-0.28.19-.46,0.19-0.46,0.37C47.25,12.94,47.35,12.94,47.35,12.57ZM46.89,50.84c0.37,0,.46-0.09.46-0.37A0.42,0.42,0,0,0,46.89,50.84Zm0.46-38.73c0-.65,0-0.65.92-0.65A1.11,1.11,0,0,1,47.35,12.11Zm0,38.36A0.37,0.37,0,0,0,47.72,50,0.42,0.42,0,0,0,47.35,50.47Zm0.27,18.86H47.53C47.53,69.42,47.62,69.61,47.62,69.33Zm0.1-21.81a0.46,0.46,0,0,1,.55-0.46A0.46,0.46,0,0,1,47.72,47.53Zm0,2.49c0.18,0,.18-0.18.37-0.18l-0.18-.1A0.77,0.77,0,0,0,47.72,50Zm0.46,18.4c-0.19,0-.46,0-0.09.18A0.28,0.28,0,0,1,48.18,68.42ZM48.36,68c0,0.18-.09.18-0.09,0.37C48.36,68.32,48.73,68.32,48.36,68Zm0.55-.64s-0.09,0-.09-0.18l-0.09.18C48.82,67.5,48.82,67.5,48.91,67.31ZM48.82,49.55a0.34,0.34,0,0,1,.09-0.18C48.82,49.37,48.73,49.37,48.82,49.55Zm1-39c-0.27,0-.27.09-0.46,0.46A0.4,0.4,0,0,0,49.83,10.54Zm0,35.7a2.1,2.1,0,0,1-.46.46A0.39,0.39,0,0,0,49.83,46.24Zm-0.27,2.39c0-.09.18-0.09,0.27-0.27A0.4,0.4,0,0,0,49.56,48.63Zm0.18,16.93s-0.18,0-.18.09h0.27ZM50.2,10.18a0.39,0.39,0,0,0-.37.37A0.31,0.31,0,0,0,50.2,10.18ZM49.83,48.36A0.39,0.39,0,0,0,50.2,48,1.28,1.28,0,0,0,49.83,48.36Zm0.37-2.85A0.43,0.43,0,0,1,50.66,45,0.47,0.47,0,0,1,50.2,45.51Zm0,2.48c0.37-.1.46-0.1,0.46-0.46A0.44,0.44,0,0,0,50.2,48Zm0.18-1a0.25,0.25,0,0,1,.27.09v0.46a0.39,0.39,0,0,0,.46-0.46H50.66V46.7A0.4,0.4,0,0,1,50.38,47Zm0.27,16.83c-0.09,0-.46,0-0.09.28A0.49,0.49,0,0,1,50.66,63.81Zm0-54.56a1,1,0,0,1,.46-0.46C51.12,9.17,51,9.26,50.66,9.26Zm0,35.79a0.44,0.44,0,0,1,.46-0.46C51.12,45,51,45,50.66,45Zm0,1.65h0.46a0.43,0.43,0,0,0-.28-0.27C50.84,46.52,50.84,46.52,50.66,46.7ZM51.12,62.9a0.76,0.76,0,0,0-.46.92A0.85,0.85,0,0,0,51.12,62.9Zm1.2-54.83c-0.19.27-.19,0.64-0.28,0.73H51.12A0.89,0.89,0,0,1,52.32,8.06ZM51.86,44.22v0.37H51.12C51.21,44,51.58,44.22,51.86,44.22Zm-0.73,2.85a1.1,1.1,0,0,0,1.2-.83,3.19,3.19,0,0,0-1.2.46v0.37Zm0.73,14.54a0.43,0.43,0,0,0-.28.46A0.45,0.45,0,0,0,51.86,61.61ZM52,44.22c0-.27.09-0.46,0.28-0.46A0.45,0.45,0,0,1,52,44.22Zm0.09,16.65c0,0.18-.09.18-0.09,0.18v0.55l0.28-.28A2.4,2.4,0,0,1,52.13,60.87ZM52.5,45.23c0,0.18,0,.18.19,0.18C52.69,45.23,52.69,45,52.5,45.23Zm0,1A0.71,0.71,0,0,0,52.69,46C52.5,46,52.5,46.06,52.5,46.24ZM52.69,60c-0.19,0-.19,0-0.19.28A0.71,0.71,0,0,0,52.69,60Zm0-14.26c0.46,0,.83.19,0.92-0.27H52.69v0.27ZM54,7.69a0.74,0.74,0,0,0-.83.37C53.61,8.06,53.88,8.06,54,7.69ZM53.33,44.4l0.19,0.19V44.4H53.33Zm0.28,1.11A0.47,0.47,0,0,0,54,45,0.37,0.37,0,0,0,53.61,45.51Zm0.83,11.22a1.92,1.92,0,0,0-.83,1.56A1.32,1.32,0,0,0,54.43,56.73Zm0-49.5a0.4,0.4,0,0,0-.46.46A0.4,0.4,0,0,0,54.43,7.23ZM54,45c0.37,0,.46-0.09.46-0.46A0.44,0.44,0,0,0,54,45Zm1.2-38.27a0.65,0.65,0,0,0-.73.46C54.8,7.23,55.17,7.23,55.17,6.77ZM55,56.27a0.84,0.84,0,0,1-.09-0.46,0.86,0.86,0,0,0-.46.92H54.8C55.17,56.73,55.17,56.45,55,56.27Zm0.18-.64c-0.18,0-.18,0-0.18-0.1a0.27,0.27,0,0,0-.09.28A0.5,0.5,0,0,0,55.17,55.63ZM55.44,6.5a0.44,0.44,0,0,0-.09.28C55.44,6.77,55.63,6.77,55.44,6.5ZM55.35,41.73c0-.28.09-0.46,0.28-0.46C55.63,41.64,55.44,41.73,55.35,41.73Zm0.28,12.51H55.35v0.28a4,4,0,0,1,.09.46,2.39,2.39,0,0,1,.18-0.46V54.25Zm0-10.49a0.42,0.42,0,0,0,.45-0.37A0.83,0.83,0,0,0,55.63,43.76ZM55.9,54c-0.09,0-.09.18-0.09,0.28C55.9,54.15,56.08,54.25,55.9,54Zm0.18-10.58a0.32,0.32,0,0,0,.37-0.27C56.18,43.12,56.08,43.21,56.08,43.39ZM56.46,6c-0.09,0-.37,0-0.09.28C56.37,6.22,56.37,6,56.46,6Zm0,35.24,0.46-.37A0.37,0.37,0,0,0,56.46,41.28Zm0,1.66c0.37,0,.46-0.18.46-0.28A0.51,0.51,0,0,0,56.46,42.93Zm2.94,0.83c0-.18,0-0.18-0.18-0.27h-0.1c-0.18.09-.37,0.09-0.37,0.27a25.6,25.6,0,0,1-1.66,4,14.32,14.32,0,0,0-.64,1.84A0.69,0.69,0,0,0,57.29,49a6.07,6.07,0,0,1,1.1-2.76C58.75,45.41,59.12,44.59,59.4,43.76ZM56.55,5.85c0.18,0,.27,0,0.09-0.18C56.64,5.76,56.64,5.85,56.55,5.85Zm0.27,46H56.64L56.82,52V51.86Zm0.09-10.95c0.37,0,.37-0.18.37-0.46A0.6,0.6,0,0,0,56.92,40.91Zm0,1.56h0.92V42.19C57.29,42.19,57.1,42.1,56.92,42.47ZM57.65,5.4l-0.18-.18c0,0.18,0,.18-0.18.18,0.18,0,.18.09,0.18,0.09Zm0.19,36.8a0.45,0.45,0,0,0,.27-0.46C57.93,41.73,57.84,41.92,57.84,42.19ZM58.48,4.84a0.09,0.09,0,0,1-.09-0.09,0.09,0.09,0,0,1-.09.09L58.39,5A0.29,0.29,0,0,1,58.48,4.84ZM58.3,41.73c0.09,0,.27-0.09.27-0.46C58.39,41.28,58.3,41.46,58.3,41.73Zm0.27,6.63c0-.1,0-0.1-0.18-0.19l-0.09.09a1.05,1.05,0,0,0,.09.46C58.39,48.54,58.57,48.54,58.57,48.36Zm0.37-9.11a0.51,0.51,0,0,0-.37.37,0.39,0.39,0,0,0-.18.19c0-.09.09-0.09,0.18-0.09A0.62,0.62,0,0,0,58.94,39.25ZM58.75,5.76V5.67l-0.09.1h0.09ZM58.67,41.28c0.09,0,.27,0,0.09-0.28C58.67,41,58.67,41.18,58.67,41.28Zm0.09,6a0.09,0.09,0,0,0-.09.09h0.27Zm0.19-8.47a0.37,0.37,0,0,1,.46-0.37A0.37,0.37,0,0,1,58.94,38.79ZM59.22,4.47c0-.09-0.1,0-0.1,0a0.09,0.09,0,0,0,.1.09C59.4,4.56,59.4,4.47,59.22,4.47Zm0,42a0.09,0.09,0,0,0-.1.09s0,0.18.1,0.18C59.4,46.52,59.4,46.52,59.22,46.43Zm1-5.15a2.73,2.73,0,0,0-.64,1.38c-0.19,0,0,.1.18,0.28V42.75A1.71,1.71,0,0,0,60.23,41.28Zm-0.46,4.23a0.18,0.18,0,0,0-.18.18s0,0.09.18,0.09V45.51ZM60.14,4.2V4H60Zm0.09,40.39c-0.09,0-.09,0-0.09-0.19a0.18,0.18,0,0,0-.18.19v0.18C60.14,44.77,60.14,44.77,60.23,44.59ZM60.41,41a0.7,0.7,0,0,0-.19.28C60.41,41.28,60.69,41.28,60.41,41Zm0.19,2.58s0-.09-0.19-0.09v0.09C60.41,43.76,60.6,43.76,60.6,43.57Zm0.09-3.77c0.18,0.18.18,0.18,0.28,0l-0.1-.09ZM61,42.75l-0.1-.1v0.1H61Zm0.46-1.11a0.18,0.18,0,0,0-.19-0.18H61.15c0,0.18.09,0.18,0.09,0.18h0.19Zm0.46-1.38-0.18-.09v0.09h0.18ZM62.16,37V36.86L62.07,37C62.07,37.13,62.16,37.13,62.16,37Zm0.55-1.47a0.69,0.69,0,0,1-.19-0.28H62.44a5.9,5.9,0,0,1-.19.65,1.36,1.36,0,0,1,.19.37,4.16,4.16,0,0,0,.27-0.37V35.48ZM62.53,38.7V38.51l-0.09.19h0.09Zm0.55-4.14V34.37c-0.19,0-.19,0-0.19.19v0.09Zm0.37-1.38-0.09-.09v0.28C63.45,33.36,63.45,33.18,63.45,33.18Zm0.46-1c0-.09,0-0.09-0.18-0.28a0.18,0.18,0,0,0-.19.18,0.71,0.71,0,0,0,.19.27A0.18,0.18,0,0,0,63.91,32.17Zm0,2.76c0-.09,0-0.09-0.18-0.09C63.72,35,63.72,35,63.91,34.93ZM64.37,34l-0.18-.09L64,34C64.19,34.19,64.19,34.19,64.37,34ZM65,3.55H64.92L65,3.74V3.55Zm1,31.1c-0.09.19-.37,0-0.09,0.28A0.73,0.73,0,0,1,66,34.65ZM68.23,19.1h0.09V19Zm0.46-3.31,0.09,0.09V15.61S68.69,15.61,68.69,15.79Zm0.83-2.86h0.18l-0.18-.18v0.18ZM72.1,31.43c0,0.18.18,0.28,0.18,0.46a0.33,0.33,0,0,0-.28.18,1,1,0,0,0-.09-0.37A1.31,1.31,0,0,1,72.1,31.43Zm1.38-.28a0.61,0.61,0,0,0-.37.46l-0.37-.37,0.37-.18A1,1,0,0,0,73.48,31.15Z" fill="#062934"/>
    <path d="M121.4,53a4.31,4.31,0,0,0-2.67,1.66c-1.84.65-5.06,1.93-5.79,2.3a0.58,0.58,0,0,0-.19.37,0.63,0.63,0,0,1,.37.28c0.83-.28,1.75-0.65,2.76-0.92v0.09h-0.1a3.94,3.94,0,0,0-2.39,1.75h-0.27c-1.1-.09-1.2.92-1.84,1.19l-2.67.92a19.19,19.19,0,0,1-5.71,2.3c-1.47.27-2.95,0.46-4.51,0.83H97.48C96.2,64.64,95,64,93.9,63.63s-2.12-.73-2.57-1.93c-0.1-.36-0.28-0.64-0.37-1.1-1.84-1.93-1.56-4.14-1.11-6.35A27.74,27.74,0,0,1,91,50.57V50.38c-0.28-.27-0.28-0.27-0.37-0.09l-6.53,4.6c-1.29.74-2.58,1.56-3.68,2.3a30.61,30.61,0,0,1-4.14,2.94,55.67,55.67,0,0,1-5,3.13,3.88,3.88,0,0,1-.92.37c-1,0-2,.09-3,0-2.48-.46-3.41-1.84-3.77-4.6a5.64,5.64,0,0,1,.64-2.85c0.64-.92,1.56-1.93,2.21-2.95,1.93-2.3,4.14-4.32,6.07-6.26a48.81,48.81,0,0,1,6.35-5,22.54,22.54,0,0,1,6.35-2.58c1.29-.64,4,0.65,4.69,1.75,0.46,0.65.37,1.38-.28,1.2-2.39-.74-4.23.46-5.7,0.92a27.09,27.09,0,0,0-5.71,4.42,36.1,36.1,0,0,1-3.22,3.22,38.13,38.13,0,0,0-4.33,4.33c-0.73.37-.37,1.28-0.92,1.65-1.84,1.84-1.84,1.84-1.38,2.12a6.38,6.38,0,0,0,2.21-.83,49.8,49.8,0,0,0,7.63-4.69c2.67-1.66,5.25-3.5,7.82-5.34,1.93-1.38,3.77-2.58,5.7-3.77,0.46-.18.74-0.46,1-0.55a0.78,0.78,0,0,1,.55-0.18c0.73,1.11,1.75.74,2.57,1.2a1,1,0,0,0,.65.28c-0.56.73,0.64,0.73,0.64,1.38-0.19.46,0.28,1.2-.19,1.47a18,18,0,0,0-.64,2.85,33.34,33.34,0,0,0-1.66,3.77,9.8,9.8,0,0,0-.92,2.3c0,0.83-1,1.11-.55,1.84a6.65,6.65,0,0,0,2.3.27,18.59,18.59,0,0,0,6.9-1.47l5-2.21c5.06-1.93,9.94-4,15-5.61a29.32,29.32,0,0,0,3.68-.92,1.1,1.1,0,0,0,.74-0.18l0.19,0.28a0.69,0.69,0,0,0-.09.37,1.4,1.4,0,0,0-.37.37,14.58,14.58,0,0,0-4.88,1.2v0.09c0.74,0.28,1.47.37,2.11,0.55a3,3,0,0,0-.27.37A3,3,0,0,0,121.4,53ZM81,53H80.83v0.18Zm0.46-.64a0.77,0.77,0,0,0-.28.46C81.38,52.78,81.48,52.78,81.48,52.32Zm1.29-.83a1.81,1.81,0,0,0-1.2.83A1.06,1.06,0,0,0,82.76,51.49Zm1.47-.92a1.53,1.53,0,0,0-1.29.92A1,1,0,0,0,84.23,50.57Zm1.57-.92c-0.64,0-1.2.09-1.29,0.73A1.19,1.19,0,0,0,85.8,49.65Zm1.38-1a1.29,1.29,0,0,0-1.38,1A1.42,1.42,0,0,0,87.18,48.63Zm1.47-.92a1.34,1.34,0,0,0-1.38.92A1.62,1.62,0,0,0,88.65,47.71ZM90,46.79c-0.82-.09-1,0.19-1.38.92A1.34,1.34,0,0,0,90,46.79Zm1.29-.92A1.14,1.14,0,0,0,90,46.7,1,1,0,0,0,91.32,45.87Zm0.37-.37H91.6V45.6Zm15.64,13.16a7.43,7.43,0,0,0-2,0c-1.84.36-3.59,0.83-5.61,1.28-0.09,0-.19.19-0.56,0.37V60.5s0,0.09.19,0.09c0,0,0,.09.18,0.09,1.29-.18,2.49-1.28,4.14-0.37h0.28C104.84,59.67,106.41,59.67,107.33,58.66Zm0.83-2.58a0.24,0.24,0,0,0-.28-0.27H107.7a0.5,0.5,0,0,0,.28.27h0.18Zm0.55,2.39c-0.09,0-.18,0-0.09.28A0.91,0.91,0,0,0,108.71,58.48Zm1.2-.28c-0.09,0-.09-0.18-0.18-0.18a0.55,0.55,0,0,0-.64.46h0.73A0.4,0.4,0,0,0,109.9,58.2Zm-0.18-2.85h-0.27l0.27,0.18V55.35Zm1.38-.64c-0.28.18-1-.09-1.29,0.55h0.83C111,55.26,111.1,55.08,111.1,54.71Zm2.48-.83a2.2,2.2,0,0,0-2.3.83,2.72,2.72,0,0,0,2.3-.65V53.88Zm2.3-.92a2.52,2.52,0,0,0-2.3.83A2.14,2.14,0,0,0,115.89,53Zm0.18,3.59a0.32,0.32,0,0,0-.18.09A0.32,0.32,0,0,1,116.07,56.55Zm1.38-4.23h-1.1a1.06,1.06,0,0,0-.19.64A1.08,1.08,0,0,0,117.45,52.32Zm4.05-1.1h0.09a6.5,6.5,0,0,0-4.14,1v0.09A11.08,11.08,0,0,0,121.5,51.21Zm-1.94,1.57v-0.1h-0.18Zm5-2.21a1.17,1.17,0,0,0-.37.64h-0.09c-0.37-.28-0.64-0.28-0.37-0.64A1.25,1.25,0,0,1,124.53,50.57Zm0.09,0c0-.18,0-0.18.18-0.18A0.34,0.34,0,0,0,124.63,50.57Z" fill="#062934"/>
    <path d="M206.6,50.47A15.4,15.4,0,0,0,204.39,52a36.12,36.12,0,0,1-5.89,3.59,1.43,1.43,0,0,0-.74.46c-2.76,2.21-6.07,3.32-8.83,4.78-2.3,1-4.42,2-6.44,3.13l-3.22,1.47a4.42,4.42,0,0,1-2.21,0,3.11,3.11,0,0,1-1-.64,6.26,6.26,0,0,1-1.75-3.68,9.73,9.73,0,0,1,0-4.32c0.64-1.84,1.47-3.78,2.21-5.89V50.2a0.72,0.72,0,0,1-.46.18A35.25,35.25,0,0,0,170.44,53,11.13,11.13,0,0,0,167.31,55c-1.29.65-2.49,1.56-3.59,2.21l-3.86,2.3-5.71,4a2.17,2.17,0,0,1-1,.56c-1,.64-1.84.64-2.48-0.37a15.09,15.09,0,0,1-1.29-3,2.74,2.74,0,0,1,.27-2.21c0.46-.92.55-1.84,1-2.85,1.66-4.05,2.94-8.47,4.41-12.61l0.37-1.66a1.54,1.54,0,0,0-1.29.46,4.21,4.21,0,0,0-1.29.64,1.4,1.4,0,0,1-.83.65,6.55,6.55,0,0,0-1.2.83,6.9,6.9,0,0,1-1.19.83c-2.21,1.93-4.51,3.77-6.9,5.61-0.46.46-.92,0.74-1.56,1.29A13.8,13.8,0,0,1,138,55a43.85,43.85,0,0,0-4.23,4.14c-0.92.92-1.75,2-2.86,3a0.34,0.34,0,0,1-.09.28c-2.12,1.57-3.77,4-5.89,5.89A15.45,15.45,0,0,0,122,70.9a1.15,1.15,0,0,1-1,.37,1.23,1.23,0,0,1-1.47-.37,6.09,6.09,0,0,1-1.84-6.44c0.46-1.1.73-2,1.1-3a43.86,43.86,0,0,1,4.51-8.74c0.83-1.56,1.93-2.57,2.3-4.32a1.44,1.44,0,0,1,1.66-.65,5.54,5.54,0,0,1,2.3,2,2.35,2.35,0,0,1-.18,3c-0.92,1.2-1.47,2.85-2.58,3.86-0.46.64-.83,1.47-1.29,2.21-1.11,1.84-2,3.59-3,5.25a1.64,1.64,0,0,0-.19.92,15.49,15.49,0,0,0,2.11-1.75l9.48-9.66c1.57-1.47,3.31-2.76,5-4.32,2.58-2.3,5.34-4.51,8-6.72,1.75-1.2,3.31-2.39,5-3.5a12.92,12.92,0,0,1,3.31-1.84,2,2,0,0,1,2.76.27,0.88,0.88,0,0,0,.64.55A2.37,2.37,0,0,1,160,41c-0.37,2-.46,4.14-1.47,6.07a3.17,3.17,0,0,0-.64,1.84c-0.18,1.29-1.2,2.21-1.75,3.5a17.74,17.74,0,0,1-.83,3.5,12.17,12.17,0,0,0-1.11,2.21V58.3a0.37,0.37,0,0,0,.37.18,0.69,0.69,0,0,1,.46-0.18c3.68-2.39,7.55-4.69,11.23-7.17a43,43,0,0,1,9.57-4.51,16.2,16.2,0,0,0,1.84-1,2.9,2.9,0,0,1,2.3-.18,0.56,0.56,0,0,1,.65.46c0.09,0.46,0,.74.55,0.74a1,1,0,0,1,1.1.91,7,7,0,0,1-.09,1.48,20.45,20.45,0,0,0-1.11,3.31A22.12,22.12,0,0,1,179,56.55c-0.64,1.47-1.56,2.86-1.75,4.42,0,0.46.18,0.83,0.55,0.55a74.86,74.86,0,0,0,7.36-3.22c1.93-.92,3.77-1.66,5.33-2.58a66.13,66.13,0,0,0,11-5.89c1.57-.83,2.95-1.66,4.51-2.31a0.83,0.83,0,0,1,1.29.65A1.49,1.49,0,0,1,206.6,50.47Zm-62.93-2.95a1.82,1.82,0,0,0-1.38,1A1.31,1.31,0,0,0,143.66,47.53Zm2.3-1.83a0.7,0.7,0,0,0-.83.64A0.78,0.78,0,0,0,146,45.69Zm1.75-1.29a1.64,1.64,0,0,0-1.38.83A1.65,1.65,0,0,0,147.71,44.4Zm53.36,7.91a1.79,1.79,0,0,0-1.38,1.1A1.87,1.87,0,0,0,201.07,52.32Zm2.21-1.38a0.93,0.93,0,0,0-1,.92A1.05,1.05,0,0,0,203.28,50.93Z" fill="#062934"/>
    <path d="M239.61,53.14a0.65,0.65,0,0,1-.55.28A17.09,17.09,0,0,0,234.65,55c-2.3,1-4.6,1.84-6.81,2.76a2.53,2.53,0,0,0-.74.37C225.26,59.49,223,59.86,221,61c-2,.83-4,1.75-6,2.67a25.73,25.73,0,0,1-9,3.13,2.2,2.2,0,0,0-1.29.64c-1.84.74-3.4,0.09-5-.45a5.22,5.22,0,0,1-2.39-1.38,6,6,0,0,1-1.93-3.13,7.53,7.53,0,0,1,0-4l0.64-1.2A21.59,21.59,0,0,1,202.54,49a39.26,39.26,0,0,1,8.37-6.17,7.66,7.66,0,0,1,3.31-1.38c0.83-.37,1.93-0.46,2.76-0.83,1.2-.83,2.2-1,3.31-0.27,0.18,0.27.46,0,.83,0.27a2.17,2.17,0,0,1,1,.37,8,8,0,0,1,1.48,2,2.9,2.9,0,0,1-.19,3.59c-1.19,1.47-1.93,3.13-3.77,3.86l-1.29.83a17.37,17.37,0,0,1-8.55,3.41,6.63,6.63,0,0,1-2.67.27c-1.19,0-2.67-.27-4.14-0.27a1,1,0,0,0-.83.37c-1.47,2.11-3.31,4-4.14,6.44a1.29,1.29,0,0,0,.73,1.75c1,0.27,2.21.83,3.13,0.27a24.52,24.52,0,0,0,5.89-1.1c1.57-.28,3.22-1.29,4.69-1.75,1.75-.83,3.13-1.56,4.69-2.39,0.46,0.55.46,0.55,0.92,0a7,7,0,0,1,2.39-1.47,1.82,1.82,0,0,1,1.2-.55c3-1.29,6.17-2.85,9-4a15.85,15.85,0,0,1,2.67-1,11,11,0,0,0,2.31-1.2,2,2,0,0,1,2.67.74,2.15,2.15,0,0,0,.83.55A1.23,1.23,0,0,1,239.61,53.14Zm-36,.18a1.51,1.51,0,0,0,1.1,0,2.52,2.52,0,0,1,1.2-.18v0.18c0.83-.18,1.93-0.28,2.66-0.46a26.09,26.09,0,0,0,3.13-1.2,19.42,19.42,0,0,0,6.44-3.31,5.7,5.7,0,0,0,2.3-2.76,1.9,1.9,0,0,0,.28-1.29c0.27-.46-0.09-0.65-0.46-1s-0.64.09-.74,0.37a1,1,0,0,1-1.1.46,13.09,13.09,0,0,0-5.8,1.84,35.52,35.52,0,0,0-6,4l-2.48,2.39A1.56,1.56,0,0,0,203.64,53.33Z" fill="#062934"/>
    <path d="M266.85,53.51a2.13,2.13,0,0,0-1.47.28h0.27a0.2,0.2,0,0,1-.18.18H266v0.28a8.76,8.76,0,0,1-1.84,1.1,8.37,8.37,0,0,0-2.57,1.48,3.69,3.69,0,0,0-.83.09c-1.29.74-2.67,1.38-4,2.21-0.92,0-.09.92-0.92,0.92a6.93,6.93,0,0,1-1.47.83,34.06,34.06,0,0,1-3.5,2.4c-1,0-1.56.74-2.3,1.19a1.42,1.42,0,0,0-1,1.66,15.93,15.93,0,0,0,.28,2.4,6.82,6.82,0,0,1-.56,4.51c-0.74,2.3-1.66,3.13-3.5,4.78C242.55,79,241.27,80,240.07,81a3.75,3.75,0,0,1-2.21,1.2c-0.92.28-1.66,0.28-2.3,0.55-1.38,1.2-2.76.65-4.23,0a33,33,0,0,1-3-1.38,2.87,2.87,0,0,1-2.12-2.3,4.2,4.2,0,0,1,.19-3.77,6.24,6.24,0,0,1,.55-0.83A33.27,33.27,0,0,1,233.08,70c0.92-.74,2-1.39,3.13-2.12,2.39-1.38,4.6-3,7.18-4.51,0.45-.46.64-0.74,0.09-1.29-0.46-1.2-1.38-2.21-2-3.5-1.19-1.93-2.3-4.32-3.58-6.26a6.81,6.81,0,0,1-.92-3.68,3.29,3.29,0,0,1,.92-2.76A7.6,7.6,0,0,1,240.81,44c1.56-.09,3.22-0.64,4.88-0.37,2.29,0.09,3.77,1.29,5.24,2.76a0.9,0.9,0,0,1-.09,1.47,3.11,3.11,0,0,1-3.68-.55c-0.28-.28-0.28-0.37-0.46,0-0.28,1-.64,1.19-1.38.92-0.92-.55-1.57-0.09-2.3.1a6,6,0,0,0-1.75,1.38,1.49,1.49,0,0,0-.64,1.93,9.52,9.52,0,0,0,1.56,4A35.54,35.54,0,0,1,245.32,61c0.37,0.92.64,0.92,1.56,0.46a63.21,63.21,0,0,1,7.82-4.23,1,1,0,0,1,.83-0.37c-0.09.37-.37,0.55-0.37,0.73a3.3,3.3,0,0,0,2.12-.73,1,1,0,0,0,.37-0.28c-0.28,0-.64-0.37-0.74,0a7.23,7.23,0,0,1-1.38.28,1.57,1.57,0,0,1,.55-0.74c2.67-1.1,5.43-2.3,8-3.68H265V53c-0.46.09-.83,0-0.92,0.46a1.19,1.19,0,0,0,1.1-.46,0.55,0.55,0,0,0,0-.64,0.72,0.72,0,0,1,.18-0.37,31.47,31.47,0,0,1,4.69-1.56c1.1-.09.92-0.09,1.93,0.65,0.37,0.27.64,0.46,0.46,0.92l-0.74.37a5.92,5.92,0,0,1-1.47.37,1.49,1.49,0,0,1-1.66-.1c-0.27-.27-0.64,0-0.74.37h-0.09a0.8,0.8,0,0,0-.92.46h0.92C267.4,54,267.21,54,266.85,53.51ZM245,66.67a37.09,37.09,0,0,0-4.23,2.67,29.73,29.73,0,0,1-6.07,4.23,13.52,13.52,0,0,0-4.51,3.6,2.27,2.27,0,0,0-.37.64c-0.09.18,0,.27,0.28,0.27,0.55,0.28,1.47.37,2.21,0.64a5.66,5.66,0,0,0,3,0c0.37,0,.83-0.28,1.29-0.28,1.84-.37,3.31-0.83,4.41-2.3a15.35,15.35,0,0,1,1.29-1.1C244.58,72.74,245.86,70.17,245,66.67Zm-2-1.84L243.1,65a4.6,4.6,0,0,0,.92-0.56s0-.09-0.19-0.09a0.79,0.79,0,0,0-.82.37v0.09Zm5.52-3.31a1.12,1.12,0,0,0-1.38.92A1.41,1.41,0,0,0,248.53,61.52Zm2.3-1.47a2.94,2.94,0,0,0-2.21,1.38A2.6,2.6,0,0,0,250.83,60Zm2.76-.55h-0.83V59.12a1.67,1.67,0,0,0-1.84.92h1.38l0.46-.55V60C253.14,60,253.6,60,253.6,59.49Zm1.93-.92h-0.74a0.94,0.94,0,0,1-1.1.55,0.83,0.83,0,0,1,1-.55V58.3c-1-.18-1.56-0.18-1.93.83h0.92v0.37C254.7,59.86,255.16,59.49,255.53,58.57Zm1.1-.28c-0.55-.18-0.92-0.18-1.1.28C256.08,58.57,256.36,58.75,256.63,58.3Zm0.73-.65a0.49,0.49,0,0,0-.73.46A0.49,0.49,0,0,0,257.37,57.65Zm1.94-.83c-0.46,0-.74-0.18-0.92.37C258.84,57.28,259.21,57.28,259.3,56.82Zm1-.64a0.86,0.86,0,0,0-1,.64C259.95,56.82,260.13,56.82,260.31,56.18Zm1.84-.83h-0.73a2.65,2.65,0,0,1,.19-0.92,1.44,1.44,0,0,0-1.66.92h1.47v0.37A0.72,0.72,0,0,0,262.15,55.35Zm1.94-1.84h-0.37a0.89,0.89,0,0,0-.37.09c0.09,0.18.09,0.18,0.37,0.18a0.36,0.36,0,0,0,.37.18v0.28c0.46,0,1.1.46,1.29-.28V53.79h-1.29V53.51Z" fill="#062934"/>
  </g>
  <g>
    <path d="M290.52,173.91c0.39,0,.26-0.19.32-0.22C290.18,173.72,290.53,174,290.52,173.91Z" fill="#26444e"/>
    <polygon points="284.04 174.27 284.16 174.19 283.2 174.38 284.04 174.27" fill="#26444e"/>
    <path d="M278,174.17c0.57,0.37,2.19,0,3.27.13l0.18,0.08,0.49-.28A39,39,0,0,1,278,174.17Z" fill="#26444e"/>
    <path d="M274.79,173.34c0.2,0.14-.7.11,0.75,0.06l-0.14,0Z" fill="#26444e"/>
    <path d="M275.4,173.36c0.64,0-.42-0.12,0,0h0Z" fill="#26444e"/>
    <path d="M272.46,173.39l0.84-.11c-0.17-.09-0.92-0.12-0.64-0.17C271.8,173.16,272,173.24,272.46,173.39Z" fill="#26444e"/>
    <path d="M271.66,173.63l0.44,0A0.54,0.54,0,0,0,271.66,173.63Z" fill="#26444e"/>
    <path d="M273,173.49l-0.92.1c0.12,0.06.13,0.18,0.42,0C272.45,173.66,272.63,173.56,273,173.49Z" fill="#26444e"/>
    <path d="M273.54,173.56c0.47,0.09,1.08.14,0.23,0.25C275.38,173.79,275.15,173.53,273.54,173.56Z" fill="#26444e"/>
    <path d="M277.69,174.53l0.63,0.12,0.55-.11A7.8,7.8,0,0,0,277.69,174.53Z" fill="#26444e"/>
    <path d="M267.24,173.14a1.14,1.14,0,0,0,.34.3l0.62-.09A2.65,2.65,0,0,1,267.24,173.14Z" fill="#26444e"/>
    <path d="M267.58,173.44l-0.93.13C267.48,173.59,267.63,173.53,267.58,173.44Z" fill="#26444e"/>
    <polygon points="271.51 174.03 273.04 173.78 271.22 174.03 271.51 174.03" fill="#26444e"/>
    <polygon points="263.7 173.13 264.23 172.96 263.29 173.22 263.7 173.13" fill="#26444e"/>
    <path d="M261.35,173.16c0.39-.15-0.53-0.25-0.12-0.34a8.82,8.82,0,0,0-1.67.26A6.18,6.18,0,0,1,261.35,173.16Z" fill="#26444e"/>
    <path d="M258.73,173.26c0.26,0,.53-0.1.82-0.16A4.94,4.94,0,0,0,258.73,173.26Z" fill="#26444e"/>
    <path d="M265.07,173.54a1.31,1.31,0,0,0-.73-0.22l0.36,0.21h0.36Z" fill="#26444e"/>
    <path d="M264.72,173.54h-0.8Z" fill="#26444e"/>
    <path d="M265.17,173.54h-0.09A0.07,0.07,0,0,0,265.17,173.54Z" fill="#26444e"/>
    <path d="M269.08,173.79c-0.55.12-1.68,0.25-.58,0.43C268.89,174.08,268.26,174,269.08,173.79Z" fill="#26444e"/>
    <path d="M265.62,173.8l1,0c0-.06-0.2-0.14.07-0.2Z" fill="#26444e"/>
    <polygon points="265.14 173.87 265.62 173.8 265.25 173.78 265.14 173.87" fill="#26444e"/>
    <path d="M260.42,173.46a7.82,7.82,0,0,1-1.42.12c0.56,0,1.15.06,1.7,0.06C260.78,173.57,261,173.45,260.42,173.46Z" fill="#26444e"/>
    <path d="M262.51,173.51h-0.09C262.47,173.55,262.52,173.55,262.51,173.51Z" fill="#26444e"/>
    <polygon points="253.83 173.57 253.91 173.61 253.93 173.57 253.83 173.57" fill="#26444e"/>
    <path d="M260.79,173.68a2.29,2.29,0,0,0,.92-0.08c-0.32,0-.65,0-1,0C260.66,173.67,260.66,173.69,260.79,173.68Z" fill="#26444e"/>
    <path d="M257.29,173.36l0.73,0.12A1.81,1.81,0,0,0,257.29,173.36Z" fill="#26444e"/>
    <path d="M262.27,173.47h0.06C262.2,173.41,262.21,173.44,262.27,173.47Z" fill="#26444e"/>
    <path d="M262.27,173.47a4.24,4.24,0,0,0-.56.13c0.26,0,.5,0,0.7-0.07Z" fill="#26444e"/>
    <path d="M252.27,174.94a3,3,0,0,1,2.15-.17c0.94-.15.33-0.8-0.5-1.16,0,0.09,0,.17-1,0.28,0.34,0.11,2.16.25,1.34,0.43a3.26,3.26,0,0,1-1.68-.17c0.53,0.25-1.64.36-1.36,0.72l1.13-.13C252.36,174.8,252,174.89,252.27,174.94Z" fill="#26444e"/>
    <path d="M255.77,173.63l0.4,0a7.27,7.27,0,0,1-1.38-.27,1.44,1.44,0,0,0-.85.24l2,0Z" fill="#26444e"/>
    <path d="M258,173.6c-0.31.22-1.27,0.31-.69,0.54a4.77,4.77,0,0,0,1.52-.27c-1.9.05,0.54-.12-0.82-0.24,0.37,0,.71,0,1-0.06l-1-.1h0.05c0.08,0,.11,0,0,0h0a0.23,0.23,0,0,1-.09.08c-0.55,0-.09-0.06.09-0.08l0,0h0l-1.9.12C256.57,173.63,257.07,173.63,258,173.6Z" fill="#26444e"/>
    <path d="M267.48,174.68c-0.06,0-.06,0-0.06-0.05S267.25,174.68,267.48,174.68Z" fill="#26444e"/>
    <path d="M266.7,174.55a1.64,1.64,0,0,1,.7-0.09c0.39,0.06,0,.1,0,0.17,0.27-.06.95-0.15,0.1-0.26l-0.13,0a4.85,4.85,0,0,1-1.61-.37A2.57,2.57,0,0,0,266.7,174.55Z" fill="#26444e"/>
    <path d="M262.28,174.13l-1.58.11,0.8,0.19,0-.11C262.36,174.36,262.17,174.22,262.28,174.13Z" fill="#26444e"/>
    <polygon points="253.65 173.46 253.86 173.24 252.94 173.56 253.65 173.46" fill="#26444e"/>
    <polygon points="251.59 173.49 251.67 173.29 251.13 173.41 251.59 173.49" fill="#26444e"/>
    <path d="M135.88,179.83l-0.46.08Z" fill="#26444e"/>
    <path d="M139.24,179.66l0.08-.1C139.16,179.62,139.1,179.67,139.24,179.66Z" fill="#26444e"/>
    <path d="M201.14,174.44c-0.68-.16-1.45-0.42-1.36-0.2l0.22,0.21A4.81,4.81,0,0,1,201.14,174.44Z" fill="#26444e"/>
    <path d="M166.68,177.11l0.2,0.06,0.45-.23Z" fill="#26444e"/>
    <path d="M166.24,178l-0.9-.1A7.28,7.28,0,0,0,166.24,178Z" fill="#26444e"/>
    <path d="M117.58,181.18l-0.53.25C117.9,181.38,117.52,181.29,117.58,181.18Z" fill="#26444e"/>
    <path d="M230.55,173.8a12.17,12.17,0,0,0-1.46-.11A2.61,2.61,0,0,0,230.55,173.8Z" fill="#26444e"/>
    <path d="M137.07,177.46a0.47,0.47,0,0,0-.39.15C137,177.56,137.14,177.51,137.07,177.46Z" fill="#26444e"/>
    <path d="M227.41,173.71l0.31,0a11.76,11.76,0,0,1,1.38-.07A3.94,3.94,0,0,0,227.41,173.71Z" fill="#26444e"/>
    <path d="M51.21,185.9H51.06S51.11,185.92,51.21,185.9Z" fill="#26444e"/>
    <path d="M31.7,185.43l0.79-.09A5,5,0,0,0,31.7,185.43Z" fill="#26444e"/>
    <path d="M243.32,173.44c0.44,0,.07,0,0,0h0Z" fill="#26444e"/>
    <path d="M245.45,174.27a0.22,0.22,0,0,0-.17.11A0.29,0.29,0,0,1,245.45,174.27Z" fill="#26444e"/>
    <path d="M223.09,175.14h0C223.19,175.17,223.16,175.17,223.09,175.14Z" fill="#26444e"/>
    <path d="M244,173.53l-0.56-.06Z" fill="#26444e"/>
    <path d="M243.89,173.43l0.38,0C244.33,173.41,244.28,173.39,243.89,173.43Z" fill="#26444e"/>
    <path d="M242.72,173.46c0.25,0,.48,0,0.71,0-0.09,0-.12,0-0.1,0Z" fill="#26444e"/>
    <path d="M86.71,182.53h-0.1C86.19,182.64,86.38,182.61,86.71,182.53Z" fill="#26444e"/>
    <path d="M189.89,177.11h0Z" fill="#26444e"/>
    <path d="M188.34,177.32a2.68,2.68,0,0,1,1.54-.24l-0.54-.61Z" fill="#26444e"/>
    <path d="M127.86,180.38l1.11,0.13c-1.3.4-2.27,0.35-1.22,0.56,0.11-.69,4.25-0.33,4.37-1l0.73,0.1c-0.21,0-.24,0-0.44.05,1.42,0.24,1-.55,2.83-0.57,0.63,0,1.08.09,0.65,0.19l1.4-.24c0.41,0,.32.11-0.09,0.12l2.14-.17,0,0c0.3-.12,1-0.32,1.32-0.41,0.55,0.07-.27.09-0.13,0.16l1.18-.23c0.49,0.15-.48.37-1.3,0.39,1.15,0.62,1-.22,3.39,0l-1.12.15c0.74,0.35,1.61.16,2.89,0.33-0.31-.11-2.57-0.47-1.29-0.71a4.45,4.45,0,0,0,1.53-.14c0,0.24.69,0.15,1.54,0.09l0,0.32a4.41,4.41,0,0,0,1.37-.47,1.83,1.83,0,0,1,1.5.41c1.64,0-1.15-.34.78-0.5a17.47,17.47,0,0,0,3.94-.41c1,0.06-.16.2,0.19,0.28l0.83-.3c0.21,0,.14.08,0.11,0.12,0.71-.14,0-0.32,1.16-0.47,0.28-.37,2.33.41,3.69-0.05,0.35,0.07-.16.2,0,0.32a23.82,23.82,0,0,0,3.17-.69l1.34,0.15c-1-.19.25-0.54,1.33-0.82-0.35-.1-0.65-0.19-0.86-0.23l1.74-.25c0.21,0,0,.16-0.24.31l0.32-.09c0.63,0.09.31,0.29-.12,0.49l-0.64-.17a0.92,0.92,0,0,0-.72.63,2.87,2.87,0,0,1,.57-0.11c-0.11.06-.18,0.11-0.13,0.14a1.39,1.39,0,0,0,.52-0.14l0.41,0.34,0.09-.15,2.3,0.12a28.63,28.63,0,0,1,5.61-1.29c-0.63.29-.12,0.43-0.14,0.74-0.72-.3-2,0.23-3.35.23,0.7,0,.56.16,0.38,0.22l2.39-.41c0,0.26.52,0.17,1.15,0.24-0.5-.48,1.77-0.42,2.74-0.61,0.07,0.17-.16.35-1.35,0.36,1.33,0.31,1.67-.67,3-0.39a1,1,0,0,0-.56.08c0.67-.17,2.34-0.12,2,0h-0.29c1.93,0,5.88-.21,6.15-0.65a1.69,1.69,0,0,1-.35.61l3.39-1.56c-0.29.38,0.91,1.2-.69,1.47a7.31,7.31,0,0,0,2-.09c-0.32,0-.8-0.5-0.38-0.55a14.62,14.62,0,0,0,2.29.48c-0.47-.06,0-0.65.77-0.66-0.11.09,0.08,0.56-.19,0.63l1.83-.63c-0.46.12-.07,0.48,0.35,0.62a19.83,19.83,0,0,1,2.09-.12l-0.79-.1c2.09,0,2-.87,4.11-0.9-0.25.12-.6,0.73,0.46,0.77a10.35,10.35,0,0,1,3.93-1.71l0.36,0.16,1.4-.22a35.42,35.42,0,0,1-4.63,1.82,3.29,3.29,0,0,0,1.39.14c0.42,0.14-.63.25-1,0.27l2.73,0c-0.13-.33,2.08-0.39,2-0.67l-3,.43c-0.13-.33,1.68-1,3.62-1,0.49,0.12-.35.61-0.31,0.72a7.07,7.07,0,0,1,2-.19l-0.82.2c1.08,0.1,1.74-.49,3-0.21,0.45,0,1.34.4,1.41,0.2a1.23,1.23,0,0,1-.43-1.85c0.16,0,2.35.3,2.87,0.48,0.74,0.28-1.09.75-.45,1a1.36,1.36,0,0,1,.6-0.26c0.47,0.07-.19.29,0.83,0.22,0.16-.35,2.07,0,0.47-0.3a21.1,21.1,0,0,1,2.23,0c-0.38-.21,1-0.78,2-0.9-0.06.09,0.17,0.2,0.28,0.24,2,0,3.14.13,5,.11,0.18,0.08,1.1.17,0.71,0.32a4,4,0,0,1,1.11-.2c1.14,0.28-1.31.06-.44,0.41a9,9,0,0,1,2.35-.43c-0.26-.3-1.93,0-2.77.1,0-.42,1.44-0.88,3.43-1.11,1.58-.13.69,0.26,1,0.2,3,0,2.52-.77,5-0.5,1,0.25.05,0.53,0.27,0.72a23.57,23.57,0,0,1-2.85-.12l1.08,0.11a6,6,0,0,1-1.74.1c0.82,0.23,5,0,7.32.17,0.41-.1,1.11-0.2.77-0.3l-0.72,0c-0.67-.21,1.36-0.32.44-0.41a13,13,0,0,1,3.43-.32l0.26,0.3a2.55,2.55,0,0,0-1.28-.07c0.57-.15,2.1.39,2.73,0l-1-.21a14.15,14.15,0,0,1,3.4-.38c-0.55-.3-0.28,0-1.15-0.32,0.75,0.44-3.11,0-1.9.44-0.89-.42-1.53-0.17-2.7-0.5,0,0.1.41,0.19-.61,0.15a1.25,1.25,0,0,1-.22.09h0s0,0,0,0a1.62,1.62,0,0,1,.52.15,20.89,20.89,0,0,1-2.67.38c-0.61,0,.25-0.12-0.08-0.22L241,174c-0.08-.22-1.61-0.35-0.19-0.5h-1.28a9.17,9.17,0,0,0-2.44,0c-0.61,0-1.53.27-1,.09l-2,.17,0-.06c-2,0-4.08.43-6.36,0.06a15.29,15.29,0,0,1-2.48.1l-0.22-.19a18.91,18.91,0,0,0-2.95.07c-0.94-.5-4.17,0-5.68-0.06l-0.05.26c-1,0-2,.11-3.32.25l0.08,0.22c-1.11.21-2.86-.08-4.62,0a1.82,1.82,0,0,1,.88,0c-2.12-.45-4.42.49-6.34,0.17a3.2,3.2,0,0,1-1.15,0h-0.08l-0.66-.1a4.27,4.27,0,0,0,.56.1c-0.37,0-.92.06-1.46,0.14l-0.24-.23h-0.13c-0.54-.07-0.43.13-0.13,0.3a5.28,5.28,0,0,0-.72.17c-0.45-.37-1.42.18-2-0.21-0.36.22-2.73,0.25-3,.69,0-.05-0.18-0.08.11-0.09a6.11,6.11,0,0,0-1.75.09l-0.27-.3-1.31.46c-0.81-.16-1.15-0.25-0.36-0.52-1.92.43-1.56,0.19-3.19,0.61l0.07-.2a7.46,7.46,0,0,1-1.87.18c-1.33-.32-6.49.17-9.87,0,0.68,0.55-1.57-.19-1.69.27-0.2-.13-0.67-0.18-0.13-0.33-1.71.21-2.59-.1-3.76,0.34-0.2-.13.36-0.22,0.18-0.29a1.56,1.56,0,0,1-.72.07c-0.18-.07.25-0.13,0.52-0.2-1.75.1-1.91,0.54-2,.94a2.89,2.89,0,0,0-2,.19c-0.32-.12-0.84-0.23.25-0.33-0.61,0-3.75,0-3.8.3a3,3,0,0,0-1,.06c-1.38,0-1.5,0-2.85.11l0.38,0c-0.51.41-1.12,0.14-2.2,0.23l0,0c-2.51-.14-1.07.19-3.55,0l0.15,0.23c-0.2.53-2.2-.19-3.62,0.09l0.52,0.11c-0.77.22-2.22-.58-3-0.61-0.17,0,.27-0.09.5-0.13-2.07-.19-0.25.33-1.78,0.48-0.29-.15.34-0.45-0.69-0.43-0.52-.11-3,0.71-4.38.46,0.32,0.11.63,0.23-.07,0.36-1.09.11-3-.33-3.93,0.13a0.25,0.25,0,0,1-.2-0.09,20.94,20.94,0,0,0-3.18.59c-0.82-.78-5.15.72-5.17,0l-2.56.2,0.06-.08a7,7,0,0,0-2.77.49c-0.38,0-.11-0.12-0.08-0.16a13,13,0,0,0-4.62.54l-0.22-.23c-0.53.17-3.48-.18-5.8,0.27a0.39,0.39,0,0,1,.25-0.13c-2.62.47-6.36-.26-7.26,0.7l-1.73.34c2.26-.08-0.31.41,0.63,0.5-0.88.11-2.31-.12-1.22-0.24l0.17,0c0.37-.5-2.81,0-2.77-0.3-4.43.31-8.76,0.39-12.91,0.66l0.5,0.33-1.45.08c-0.39-.06-0.53-0.25.5-0.31a2.92,2.92,0,0,0-1.74.38c-2,0,.76-0.48.14-0.45l-0.84.09,0.19,0a5.29,5.29,0,0,1-2,.43,1.56,1.56,0,0,1-.73-0.19,0.82,0.82,0,0,0-.47,0l-1.82.1,0.75,0.23c-0.8.2-1.72,0.11-.85,0.37-1.27-.41-6.81.35-7.58,0.25a17.87,17.87,0,0,1-3.62.46c0.35,0,.58.34-0.62,0.39,0.38-.7-2.21-0.12-3.21-0.53,0.89,0.25-3.38.36-2,.7-1,0-.08-0.25-0.85-0.34-2.35.45-5.23,0.26-8.15,0.59,0,0.09.46,0.18-.15,0.37L52,183.47c-0.57.09-.49,0.55-1.57,0.34,0.16,0.06.39,0.15,0,.21-5.77.06-11.68,1.36-17.58,1.1,0.8,0.1.28,0.16-.32,0.22,0.4,0,0,.22.1,0.33l-2.47-.1c-0.41.37-2.61,0.27-2.83,0.61l0.77-.13c-1,.47,1.51.69,1.41,1.18,1.11-.53,3.08.34,4.91-0.43,0.42,0.06-.34.19-0.11,0.28a4.36,4.36,0,0,1,2.11-.35l-0.12.06c3-.32,4.3-0.24,7.69-0.39l-0.27-.21a6,6,0,0,1,1.23.06c0.8-.43-2,0.16-1.31-0.3,1,0.4,5.11-.44,5.81.05,1.12-.09-0.35-0.24.77-0.34l0.31,0.12,0.27-.21a1.38,1.38,0,0,1,1.16.24,6.19,6.19,0,0,0-.69.1,25.38,25.38,0,0,0,3-.25H53.13c3-.39,6.77-0.5,9.68-1l-0.23-.09c2.23-.39,1.81,0,4.27-0.31l-0.09,0a8.12,8.12,0,0,1,1.82-.3c-0.61.18,1.19,0.16,0.39,0.37a7.48,7.48,0,0,0,2.77-.81l0.39,0.16a4.68,4.68,0,0,1,1.8-.45c-1,.24.81,0.22-0.31,0.52,2.62,0.2,3.81-.71,5-0.21,1.15-.6-2.26-0.11-1.6-0.27-0.57-.12,1-0.46,1.77-0.47s1.45,0.55,3.53.39c-0.21,0-.22.05-0.43,0.07,0.79,0.07,1.51-.29,2.48-0.14,0.51-.35,1.24-0.07,1.37-0.48l-1.9.23a12.92,12.92,0,0,1,3.85-.62,5.06,5.06,0,0,1-1,.32c0.53,0.08,1-.15,1.55-0.07-0.13.41-2.31,0.25-3.45,0.64,0.57,0.13,2.17-.45,1.62,0,0.8-.6,2.05-0.08,3.43-0.6l-0.08.24a6,6,0,0,1,1.08-.22l-0.72.36c1.12-.34,2.21.07,3.3-0.15-2.29.17-.53-0.25-1.51-0.35,2.8-.52,1.67.5,4.82,0.16-0.43.06-1.62,0-1-.18a9.35,9.35,0,0,1,1.78.14c2.09-.19-0.34-0.22.54-0.43,0.73,0.24,1-.19,1.93-0.34l0,0.24c2.4,0,.6-0.54,2.76-0.5l-0.89.39,1.12-.16-0.21.29a9.4,9.4,0,0,1,2.79-.26c-0.29-.15.13-0.45,1.18-0.53,0.73,0.09-.39.26,1.11,0.12a1.61,1.61,0,0,1-1.35.21c-0.06.08-.32,0.17-0.39,0.26a12.71,12.71,0,0,0,2.5-.13,3.49,3.49,0,0,1-.59,0l2.15-.48c0.35,0.07.08,0.16-.18,0.25,0.44-.06.73-0.19,1.38-0.25a1,1,0,0,1-1,.56l2.05-.36c0.14,0.08,1.08.16,0.81,0.25,1.15,0,2.79-.57,4.32-0.51a1.83,1.83,0,0,1,.55-0.14,20.58,20.58,0,0,0,4.39-.25l1,0.29c1.32-.16-1.33-0.36.87-0.63,1.56-.21.6,0.26,1.16,0.33a8.37,8.37,0,0,1,3.55-.47C128.68,180.36,128.3,180.33,127.86,180.38Zm16.37-1.09a2.52,2.52,0,0,1-1.18.13A1.34,1.34,0,0,1,144.23,179.29Zm24.88-1.82a2.12,2.12,0,0,1-1,0A4.44,4.44,0,0,1,169.11,177.46Zm69.44-3.76h0C237.81,173.63,238.06,173.67,238.55,173.71Zm1.48,0.08c0.15,0,.14-0.07.07-0.1a2.21,2.21,0,0,1-.81.06A1.18,1.18,0,0,0,240,173.79ZM82,181.25l0.29,0C81.6,181.41,81.78,181.33,82,181.25Z" fill="#26444e"/>
    <path d="M166.3,177.92a0.23,0.23,0,0,1-.14-0.12C166,177.85,166,177.89,166.3,177.92Z" fill="#26444e"/>
    <path d="M117.68,181.13h-0.05l0,0Z" fill="#26444e"/>
    <path d="M217.24,176.24a2.25,2.25,0,0,1-.59-0.11C216.64,176.19,216.78,176.24,217.24,176.24Z" fill="#26444e"/>
    <path d="M247.83,173.29l-0.94.06a3.32,3.32,0,0,1,.85.08C247.72,173.37,247.54,173.29,247.83,173.29Z" fill="#26444e"/>
    <path d="M256,174.78c0.14,0,.29,0,0.43,0l0-.11C255.84,174.64,255.43,174.73,256,174.78Z" fill="#26444e"/>
    <path d="M248.71,174.09a2,2,0,0,0,1.33.1h-0.12C250.12,173.9,249.41,174,248.71,174.09Z" fill="#26444e"/>
    <path d="M250.2,174.18c0.2,0,.41,0,0.61,0S250.56,174.15,250.2,174.18Z" fill="#26444e"/>
    <path d="M241.89,173.63a1.77,1.77,0,0,0,.37-0.18C242.61,173.18,240.18,173.79,241.89,173.63Z" fill="#26444e"/>
    <polygon points="249.25 174.76 249.01 174.51 248.65 174.71 249.25 174.76" fill="#26444e"/>
    <path d="M244,174.61l1.06,0.05a0.34,0.34,0,0,1,.28-0.09A5.68,5.68,0,0,0,244,174.61Z" fill="#26444e"/>
    <path d="M245.37,174.57a4.48,4.48,0,0,0,.85-0.05C246,174.53,245.64,174.54,245.37,174.57Z" fill="#26444e"/>
    <polygon points="247.81 174.83 247.5 174.78 246.75 174.76 247.81 174.83" fill="#26444e"/>
    <path d="M232.68,174.72l-1.15.09c-0.12.09,0.2,0.14,0.63,0.1C232.43,174.84,232.85,174.8,232.68,174.72Z" fill="#26444e"/>
    <path d="M236.17,175.36a1.27,1.27,0,0,1-.51-0.18l0,0.31Z" fill="#26444e"/>
    <path d="M232.81,175.48c-0.11.09-1.67,0.27-.21,0.23C232.72,175.62,233.87,175.54,232.81,175.48Z" fill="#26444e"/>
    <polygon points="215.44 175.44 215.74 175.43 215.68 174.92 215.44 175.44" fill="#26444e"/>
    <path d="M200.18,177.07c1.37,0.07.31-.33,1.55-0.21,0.32-.13-1-0.09-0.69-0.21C200.22,176.81,199.79,176.75,200.18,177.07Z" fill="#26444e"/>
    <path d="M201,176.65l0.42-.09A2.54,2.54,0,0,0,201,176.65Z" fill="#26444e"/>
    <polygon points="28.47 185.46 27.58 185.44 28.16 185.56 28.47 185.46" fill="#26444e"/>
    <path d="M26.82,186l-0.24-.3-0.5.34A2,2,0,0,1,26.82,186Z" fill="#26444e"/>
    <path d="M146.7,179.81l0.06-.08a1.68,1.68,0,0,0-.76-0.06Z" fill="#26444e"/>
    <polygon points="134.8 180.22 135 180.21 134.6 179.94 134.8 180.22" fill="#26444e"/>
    <path d="M124.85,181.2c0.41,0,.88-0.11,1.29-0.12C125.25,181.18,124.71,180.84,124.85,181.2Z" fill="#26444e"/>
  </g>
</svg>
