<svg id="Layer_1" data-name="Layer 1" xmlns="http://www.w3.org/2000/svg" width="257.45" height="176.04" viewBox="0 0 257.45 176.04">
  <title>watercolour-line</title>
  <g>
    <path d="M17.84,176c0.21,0.06.14-.08-0.37-0.35L17,175.61Z" fill="#2b2721"/>
    <path d="M14.59,173.79c-0.6-.32-1.34-0.66-1.06-0.28,0.65,0.25.74,0.42,1.46,0.65a1.29,1.29,0,0,1,.74.55,9,9,0,0,0,1.1.55,13.59,13.59,0,0,0-2.34-1.4C14.34,173.7,14.54,173.78,14.59,173.79Z" fill="#2b2721"/>
    <path d="M5.85,122.87l-0.2.31C5.71,123.1,5.78,123,5.85,122.87Z" fill="#2b2721"/>
    <path d="M30.82,98.7a1.19,1.19,0,0,0-.32.24A1.11,1.11,0,0,0,30.82,98.7Z" fill="#2b2721"/>
    <path d="M36.07,95.8L35.75,96A1.77,1.77,0,0,0,36.07,95.8Z" fill="#2b2721"/>
    <path d="M5.85,122.87l0.51-.79A3.44,3.44,0,0,0,5.85,122.87Z" fill="#2b2721"/>
    <path d="M8.25,169.1c0.15,0.14.27,0.24,0.4,0.34l-0.36-.33h0Z" fill="#2b2721"/>
    <path d="M1,137.43l0,0.28A2.18,2.18,0,0,0,1,138v-0.52Z" fill="#2b2721"/>
    <path d="M1.05,149.21a0.69,0.69,0,0,0-.27-0.43,2,2,0,0,1,.19.57A0.15,0.15,0,0,0,1.05,149.21Z" fill="#2b2721"/>
    <path d="M6.91,166.7l0.23,0.25Z" fill="#2b2721"/>
    <path d="M3.08,129.25a0.23,0.23,0,0,0,.08-0.08A0.14,0.14,0,0,0,3.08,129.25Z" fill="#2b2721"/>
    <path d="M216.93,5.2s0,0,0,0S216.85,5.17,216.93,5.2Z" fill="#2b2721"/>
    <path d="M204,0.2l0.19,0A0.15,0.15,0,0,0,204.3.18Z" fill="#2b2721"/>
    <path d="M45.91,91l0,0C45.61,91.11,45.76,91,45.91,91Z" fill="#2b2721"/>
    <path d="M143.38,66.79c-1.15,0,1.84-.35.11-0.31C143.65,66.51,141.95,66.85,143.38,66.79Z" fill="#2b2721"/>
    <path d="M8,168.86l-0.35-.35Z" fill="#2b2721"/>
    <path d="M143.48,66.47h0Z" fill="#2b2721"/>
    <path d="M69.41,81.62a1.13,1.13,0,0,0-.26,0A0.67,0.67,0,0,0,69.41,81.62Z" fill="#2b2721"/>
    <path d="M51.69,88.07l0.44-.16Z" fill="#2b2721"/>
    <path d="M78.71,78.53a5,5,0,0,0,.66-0.18H79.27A2.51,2.51,0,0,1,78.71,78.53Z" fill="#2b2721"/>
    <path d="M88.56,75.83l-0.19,0-0.31.09Z" fill="#2b2721"/>
    <path d="M244.88,18.27a2.31,2.31,0,0,1-.32-0.36C244.63,18.08,243.36,17.3,244.88,18.27Z" fill="#2b2721"/>
    <path d="M8.3,169A0.69,0.69,0,0,1,8,168.86l0.25,0.24S8.34,169.1,8.3,169Z" fill="#2b2721"/>
    <path d="M78.8,77.35l1.57-.43Z" fill="#2b2721"/>
    <path d="M211.22,55.54l0.36-.09A2.52,2.52,0,0,0,211.22,55.54Z" fill="#2b2721"/>
    <path d="M85,75.61a8.46,8.46,0,0,0,.91-0.14l0.17-.08Z" fill="#2b2721"/>
    <path d="M244.55,17.9h0Z" fill="#2b2721"/>
    <path d="M235.12,13c1.38,0.69.73,0.16,1.07,0.21,1.66,0.79.7,0.51,1.21,0.88,1,0.49,1.89.76,2.64,1.18,0,0.06.18,0.15,0,.09,1.13,0.46,3.12,1.78,4.4,2.4a0.66,0.66,0,0,1,.13.14c-0.14-.2-0.12-0.3,0-0.33a5.94,5.94,0,0,1,1.29.85,2,2,0,0,0-.6-0.29l0.63,0.35c0.44,0.51-.85-0.5-0.93-0.38a27.67,27.67,0,0,1,3.46,2.26c0.09,0.26-2.06-1.46-1-.49l-1.33-1c0.89,0.95-.82-0.59,0,0.31l1.88,1.34a16.29,16.29,0,0,1,1.81,1.42c0.44,0.24,0-.21.4,0a7.1,7.1,0,0,1,1.86,1.9,7.43,7.43,0,0,0,1.29,1.56,4.2,4.2,0,0,1,1.58,1.82l-0.46-.35c0.59,0.85.7,1.11,0.92,1.35a3.17,3.17,0,0,1,.31.47c0.1,0.23.21,0.56,0.37,1.08-0.19-.34-0.63-1.48-0.55-1.18a3.8,3.8,0,0,0,.41,1.06,1.68,1.68,0,0,1,.35.83l-0.12.25a8.19,8.19,0,0,1,.09,3.3,8.43,8.43,0,0,1-.53,1.68l-0.37.82c-0.15.26-.33,0.51-0.49,0.77,0-.14.22-0.51-0.14-0.07-1.63,2.61-4.68,4.65-7.3,6.1l-0.94.69c-0.24.13-.47,0.18-0.23,0-1.06.52,0,.11-0.48,0.44s-0.82.35-.46,0.11A39.24,39.24,0,0,1,237.8,48l0.39-.19c-1.63.55-1.7,1-3.26,1.39l0.28-.12a91.22,91.22,0,0,1-10.3,3.06c-0.47.36-3.6,0.9-3.77,1.22-2.12.38-1.53,0.19-4.48,0.81-0.79.17-1.13,0.45-2.09,0.7l-0.06-.14-1.28.46-0.74,0-0.9.25a1.53,1.53,0,0,1,.74-0.05,16.41,16.41,0,0,1-3.56.57l-3.36.84a6.14,6.14,0,0,1,1.06-.35c-1.77.53-.36-0.08-2,0.38,0.23,0-.1.11-0.13,0.15a41.2,41.2,0,0,0-4.12.73l0.25-.16-8.14,1.5c1-.13.82,0.09,0,0.26l-0.36-.1c-0.52.19,0.88-.09-0.2,0.22-1.06.15-.74-0.07-0.14-0.22l-1.28.26a0.68,0.68,0,0,1,.28-0.18c-0.51.18-2.25,0.2-3,.49l-0.08,0c-2.84.46-4.12,0.72-6.44,1.06a7.57,7.57,0,0,1-1.61.46c-1.71.21-3.62,0.38-5.67,0.66-1.44.27-.41,0.18-1,0.35-0.12-.11-2.18.18-1.12-0.06-2.47.35-3.15,0.47-6.26,1,0.35,0,.73,0,0.54.05a3,3,0,0,1-1.22,0l0.15,0c-3.49.64-8.15,0.64-10.91,1.21l0.16,0-2.89.47c-1.34.13,0.79-.19-0.21-0.15-3.11.58-5,.5-7.52,0.92-2-.16-7.09.76-9.82,0.77l0.17,0.07a5.3,5.3,0,0,1-1.37.06c0.08,0.06.77,0,.34,0.1-5.9.55-12.23,1.35-18.25,2.31-2.2.37-1.17,0.67-4,1l0.75-.31c-4.39,1-9,1.77-13.3,2.91a2.63,2.63,0,0,1,.66-0.24,15.34,15.34,0,0,0-3.35.86,1.11,1.11,0,0,1-.6,0c-0.93.15-2.24,0.69-2.75,0.7a1.35,1.35,0,0,1,.41-0.15c-0.58.2-2.76,0.66-2.16,0.66-1.62.34-3.05,0.84-4.35,1.1-0.79.37-2.76,0.66-3,.95,0.05-.25-2.84.6-3.82,1,0.32-.16-0.89.18-0.53,0-1.15.33-2.18,0.7-1.95,0.74-2.19.36-4.16,1.5-5.45,1.55-3.34,1.19-6.42,2.35-9.4,3.49,0-.27,3.31-1.21,3.11-1.38-2.83,1.09-4.4,1.87-7.22,2.9-0.74.25,0.38-.25,0.61-0.38-2.79,1.16-5.44,2.14-7.87,3.31a3,3,0,0,1,.5-0.28,2.91,2.91,0,0,0-1.05.53l0.46-.23c0.83-.21-1.8,1.13-1.85,1.25,0.7-.64-2.45,1-1.3.09a1.11,1.11,0,0,0-.58.42c-0.48.2-.64,0.23-0.2-0.06-1.7.86-1,.66-2.6,1.4a2.67,2.67,0,0,1,.42-0.35,21,21,0,0,1-2.81,1.55c0.07-.07-0.1,0,0.29-0.22-2.23,1.14-3.67,2.17-6.11,3.42,0.6-.58-0.85.39-1.06,0.31l-1.25.79L33.87,96c-1.13.64-2,1.35-3,1.89l0.78-.57-1,.65-1,.66,1.2-.67c-1.06.77,0.24,0.12-1.24,1,0.28-.21-1.08.7-1.7,1h0a19.48,19.48,0,0,1-1.81,1.33c-0.24.09,0-.28-0.11-0.22a13.29,13.29,0,0,1-1.45,1.15A13.92,13.92,0,0,0,23,103.49c0.19-.19.14-0.28,0.06-0.24l-0.35.42c-0.5.33-.59,0.36-0.56,0.24-1.42,1.11.59-.17-1.14,1.08,0.12-.11,0-0.08.31-0.31-1.72,1.29-3.15,2.7-4.63,4-0.55.26,1.23-1.21,0.63-.87-2.09,1.95-4.09,4.25-5.92,6.31l0.36-.37c-0.07.44-1.41,1.49-2.2,2.65,0.2-.28.17-0.44,0.13-0.35-0.61.72-1.14,1.53-1.76,2.43s-1.22,1.95-1.91,3.2l0.12-.34a38.77,38.77,0,0,0-2,3.61c-0.1.35-.41,1-0.14,0.63-1.93,3.22-2.37,6.65-3.3,9.79,0.07-.39.12-0.93,0.06-0.63,0,0-.47,2.77-0.41,2.78a4.23,4.23,0,0,0,.29-0.92,17.18,17.18,0,0,1-.11,1.83c0.07-1.25-.19,0-0.31.52,0-.09.06,0.1,0.1,0.06-0.37,1.44.19,0.26-.06,2.24l-0.06-.11c0,0.75,0,1.43,0,2.24-0.13.33-.08-0.79-0.19-0.85,0,1.13.28,2.22,0.2,3.25-0.08-.48-0.07-1.17-0.12-1.65A8,8,0,0,0,0,146.21v-0.08L0.14,148v-0.49c0.39,1.38.54,2.85,0.88,4.7a2.72,2.72,0,0,0-.16-0.8c0-.11-0.05-0.09-0.05,0v0.28c0,0.06,0,.12-0.07.09a3.81,3.81,0,0,1-.09,1,16.14,16.14,0,0,0,.46,2.78c0,0.07.21,1,0,.78,0.3,1.15,0-.29.1-0.21,0.55,1.72,1,4.21,2.42,6.44a28.75,28.75,0,0,0,2.85,3.79C6.91,167,6,166.1,6,166.08A16.47,16.47,0,0,0,8,168.44c-0.18-.12-0.05.06,0.14,0.33a9.55,9.55,0,0,1,1.28,1.14,5,5,0,0,1-.74-0.47c0.38,0.34.75,0.69,1.14,1L11,171.37c0.16,0.24-.57-0.31-0.89-0.5l1.59,1.24a4.87,4.87,0,0,0,1.21.71l-0.59-.47c0.35,0.24.11,0.22-.16,0.06a2.71,2.71,0,0,1-1.11-1l0.59,0.45a6.07,6.07,0,0,0-1.45-1.33,18.71,18.71,0,0,1-1.88-1.67l0.59,0.3-0.6-.48-0.41-.33a1.57,1.57,0,0,1-.18-0.16c-0.17-.29-0.22-0.53.27,0-0.6-.89-0.66-0.68-1.15-1.46-0.05-.09,0-0.06.05,0s-0.72-.76-0.69-0.78c0.16,0.14,0-.22.37,0.3-1-1.57-1.84-2.38-2-3.09l0.09,0.13c-1.32-2.23-.3-0.11-1.32-1.79l-0.11-.67c-0.05-.33-0.09-0.67-0.09-0.67L2.9,160a1.49,1.49,0,0,1-.17-0.68c-0.45-.89,0,0.18-0.3-0.33S2,157.47,1.8,156.74a3.66,3.66,0,0,1-.21-1.53c-0.2-.43.14,1.23-0.19-0.11,0.19-.43-0.33-1.56-0.25-2.75,0.15,0.35.16,1.45,0.2,0.29A2,2,0,0,1,1.24,152v-0.21a2.05,2.05,0,0,0,0-.24l0-.44c-0.06-.61-0.1-1.25-0.2-1.73-0.23,0-.33-2.13-0.52-3.78,0.09,0.1,0-3.13.19-4.67l0,0a3.69,3.69,0,0,1-.09-1.21l0.18-1.84a1.2,1.2,0,0,1,.1.9L1,137.71a4.64,4.64,0,0,1,.08-1.3l0.08,0.29c0.13-.71.23-1.43,0.35-2.21A18.89,18.89,0,0,1,2.11,132c-0.1-.14-0.72,1.35-0.3-0.6,0.09-.05.22-0.09,0.11,0.42a3.89,3.89,0,0,1,.25-0.92l-0.07.39c0,0.2-.05.4-0.05,0.4,0.28-.8,0-0.45.26-1.1,0.09,0,.23-0.46.27-0.34a8.24,8.24,0,0,0-.28.81,14.14,14.14,0,0,1,.78-1.84c-0.07,0-.14,0,0.05-0.58a4.11,4.11,0,0,1,.67-1.18,5.2,5.2,0,0,0,.37-1.26,1.77,1.77,0,0,1,.39-0.55c0.14-.35.52-1.14,0.8-1.75s0.53-1,.25-0.7l-0.1.16,0.06-.11h0A42.42,42.42,0,0,1,9.71,117l0,0c0.86-1.18,2-2.57,2.63-3.4a1.09,1.09,0,0,1,.67-0.52A14.7,14.7,0,0,1,15,111a3.4,3.4,0,0,1-.76.87c1.05-1,1.31-1.2,2.36-2.35-0.3.45,0.9-.63,1.38-1.13l-0.8.63a20.79,20.79,0,0,1,1.6-1.43l-0.17.37c0.59-.45,1.13-0.9,1.63-1.36l1.46-1.29a14.23,14.23,0,0,1,2.84-2.11c0.56-.56-1.34.9-0.86,0.37a32,32,0,0,1,2.76-1.67c1.58-1,1.3-1.19,3-2.22-0.24.09-.53,0.09,0.67-0.77s1.56-.67.85-0.18a1.1,1.1,0,0,1-.42.22c-0.37.25-.83,0.6-0.35,0.35l0.12-.15a10.9,10.9,0,0,1,1.88-1c0.85-.59.33-0.31-0.34,0.06,1.53-.86,2.36-1.4,3.94-2.26-0.26.12-.53,0.19-0.28,0A21.8,21.8,0,0,0,38,94.45c0.94-.4-0.23.35,1.34-0.55,1-.45.28,0-0.09,0.28a27.59,27.59,0,0,1,3.62-1.74l-0.76.43c0.45-.25.83-0.44,1.22-0.63l-0.5.11A3.56,3.56,0,0,1,43.7,92c0.44-.3-0.45,0,0.44-0.56a13.85,13.85,0,0,1,2.12-.9c-2,.86.28,0-1.34,0.83,0.31-.16.69-0.34,1.16-0.54,0.08,0-.05.06-0.17,0.13,1.91-.73.77-0.58,2.7-1.43-0.21.19,0.52,0,.82-0.2-0.78.34-.43,0,0.26-0.35,1.27-.49,1.33-0.63,2-0.91l-0.76.29a11.53,11.53,0,0,1,1.71-.84c0.1,0-.77.38-0.45,0.28,0.91-.56,2.25-0.77,3.58-1.41,0.65-.2.12,0.13,0.69-0.06,1.49-.71,1.7-0.53,3.28-1.24-0.51.07-.58,0.12,0.52-0.41l-2.62,1.09,1.64-.82c-0.8.31-1.66,0.72-2.15,0.89,0.77-.4.7-0.34,0.28-0.29,1.16-.25,2.13-0.95,3.45-1.29l0.06,0.29c2-.59,3.35-1.39,5.88-2.18L66,82.58a23.79,23.79,0,0,1,2.34-.86,1.49,1.49,0,0,0,.84-0.08,16.33,16.33,0,0,0,2-.85l1.16-.24c2.06-.58,2.24-1,4.22-1.56-0.56.28,0.35,0.08-.94,0.55a5.22,5.22,0,0,0,1.24-.42c0.4-.05,1.78-0.68,2.42-0.75a3.79,3.79,0,0,1,1.07-.45c0.09,0,0,0,0,0s1.14-.4.46-0.32c2.12-.29,5.7-1.6,7.55-1.79,1.44-.41,3.19-0.87,4.51-1.2a0.3,0.3,0,0,1-.24.1c1.84-.35,1.06-0.54,3.16-0.94,1.1-.09-1.08.34-0.41,0.25,0.36,0.24,2.5-.63,3.94-0.75L99,73.4c1.1-.13,2.59-0.7,4.35-1,0,0-.08,0,0,0.05,1.17-.42,3.43-0.94,5.12-1.31-0.5.23-.76,0.22-0.41,0.28,0.76-.17-0.26-0.16,1.25-0.49a8.55,8.55,0,0,1,1.78-.07l-1.43.28a17,17,0,0,0,2.61-.47l-0.08.09c2.19-.43,2.19-0.63,4.55-1l-0.25,0c1.26-.41,1.1-0.08,2.37-0.43l0.42,0.13c0.85-.19,3-0.67,4.49-0.93-0.85.27-2.63,0.62-3.73,0.89,0.85-.14,2.88-0.46,3.3-0.63a8.58,8.58,0,0,1-1.1.2,26.16,26.16,0,0,1,4.07-.82c-0.12.22,1,.06,2.27,0a22.93,22.93,0,0,1,3.43-.16c3-.44,6-0.5,9.49-0.9-1.27-.17,1-0.12.78-0.4a8.93,8.93,0,0,1,1.2-.12l2.5-.08c0.6,0-.77.15-0.69,0.21a9.88,9.88,0,0,1,2,0c-0.25-.08.61-0.22,1.63-0.29h-1.45c2.48-.42,2.19,0,4.69-0.43l-0.79.19c1.29-.2,4.77-0.54,6-0.93,0.23,0,.54.06,0,0.14,3.09-.32,6.84-1.11,9.25-1.25l-0.22.1a10.43,10.43,0,0,1,1.71-.28s-0.22.11,0,.07a20.09,20.09,0,0,1,2.28-.4l-0.64.17c3-.31,4.59-0.82,7.1-1.23,0,0.22,2.4-.06,3.58-0.2l0,0c3.5-.47,5.91-1.08,9.12-1.68,2-.06,6.8-1.05,10-1.49-0.5.05,0-.18,0.61-0.31,0.76-.1,2.05-0.55,2-0.33l-0.27,0a17,17,0,0,0,3.35-.49l0.15-.3a43.33,43.33,0,0,0,5.54-1,31.7,31.7,0,0,1,4.45-.92c0.74-.24,1.68-0.44,2.41-0.7v0.15c2.09-.5,3.15-0.72,5.71-1.44l-0.5.24c1.45-.39,1.72-0.9,3.05-1.28l0.46,0.09c1.27-.33,2.53-0.71,3.8-1.07a28.57,28.57,0,0,0,3.7-1.29,0.86,0.86,0,0,1-.48.27c0.58-.2,1.73-0.54,2.66-0.88s1.63-.66,1.37-0.72c0.1,0.17,2.54-.94,3.8-1.61l-0.15.21a27.27,27.27,0,0,1,2.54-1.45c0.36-.16.36-0.05-0.13,0.15,1.22-.52.88-0.55,2.33-1.22l-0.48.36a7.62,7.62,0,0,0,1.69-1.09,17.38,17.38,0,0,1,2.46-1.31,9.13,9.13,0,0,1,1.34-1.11c0.11,0-.1.17-0.21,0.27a12.34,12.34,0,0,0,2.12-1.76l0.79-.77c0.25-.26.49-0.54,0.78-0.81a0.43,0.43,0,0,0,.24-0.15l-0.86,1-0.76.7-0.63.56c0.08,0.1,1.2-.89.44,0a18.68,18.68,0,0,0,1.49-1.71l0.78-1c0.23-.35.45-0.69,0.67-1l0.15-.14-0.07.13c0.1-.14.19-0.27,0.27-0.4s0.12-.28.18-0.42c0.22-.42.38-0.68,0.56-1.1a7,7,0,0,0,.61-2.47c-0.15,0,0-.94-0.23,0a2.52,2.52,0,0,1-.05.65l0,0.32V34a12.78,12.78,0,0,1-.55,1.8,8.14,8.14,0,0,0,.23-0.91c0.06-.33.23-0.66,0.3-1.07L257,32.77a4.52,4.52,0,0,0,.11-0.89,4.5,4.5,0,0,0,0-1L257,29.48a12.62,12.62,0,0,0-.75-1.69L255.75,27c-0.17-.27-0.36-0.52-0.54-0.77a9.87,9.87,0,0,0-1.09-1.34,5.79,5.79,0,0,0-1-.9,2.4,2.4,0,0,1-.58-0.79c0.27,0.25.57,0.57,0.73,0.69a15.78,15.78,0,0,0-3.08-2.64c-1.17-1.08.8,0.44-.91-0.93l0.27,0.14a24,24,0,0,0-4.69-3.24c-1.57-.89-3.22-1.75-5.21-3.06a2.49,2.49,0,0,1,.46.32c-4.67-2.77-10-4.85-14.87-7.12a11.81,11.81,0,0,0-2.48-.83l-0.25-.26L221,5.81c-2.14-.68-3.51-1.72-6.27-2.44L215,3.59a25.83,25.83,0,0,1-2.87-1.06,1.83,1.83,0,0,1-.71-0.18V2.26L209,1.61c-1.83-.65.39-0.21-2.31-1.08A10,10,0,0,0,204.13,0a3.24,3.24,0,0,1,1,.44l-0.94-.24c-0.23.18-1,.19,1.2,1L207,1.62l0.47,0.27-1.32-.41A6.57,6.57,0,0,0,208,2a2.21,2.21,0,0,0,.62.33l1.6,0.29c0.16,0.15-.74-0.06.27,0.33,0.75,0.14-.62-0.42.59-0.09a3.7,3.7,0,0,0,1.37.57c0.1,0.1-.09.07-0.45,0,0.8,0.2,2.07.68,2.51,0.7,0.73,0.39,2.62.9,2.47,1.08a18.31,18.31,0,0,1,2.13.59c-1.38-.24,2.64,1,2.19,1.16a52.68,52.68,0,0,1,5.18,1.83A1.93,1.93,0,0,1,226,8.62c0.93,0.41,1.18.59,1.76,0.89a11.36,11.36,0,0,1,2.5.7c1.06,0.68-.78-0.1-0.5.23,0-.17,2,0.74,1.71.45a4.51,4.51,0,0,1,1.1.75c0.25-.15.82,0.33,1.6,0.54a5.75,5.75,0,0,0,1.61,1C236.37,13.53,235.12,13,235.12,13Zm19.69,24.34h0l0.4-.6Zm-1.9,2.26a8.6,8.6,0,0,0,.88-0.94c0.11,0,.07.07-0.13,0.3C253.73,38.81,253.29,39.36,252.91,39.61Zm4.23-4.93a2.17,2.17,0,0,1-.25.71l0.24-.86V34.46A0.6,0.6,0,0,1,257.14,34.67Z" fill="#2b2721"/>
    <path d="M257.16,33.74V33.54l-0.07.29,0,0.19Z" fill="#2b2721"/>
    <path d="M5.62,123.24l0-.05-0.08.11Z" fill="#2b2721"/>
    <polygon points="214.49 54.72 214.51 54.76 214.76 54.66 214.49 54.72" fill="#2b2721"/>
    <path d="M0.18,139a0.92,0.92,0,0,0-.06.22A1.22,1.22,0,0,0,.18,139Z" fill="#2b2721"/>
    <path d="M0,146.21l0,1Z" fill="#2b2721"/>
    <path d="M0.67,151.74l0.06,0.06h0Z" fill="#2b2721"/>
    <path d="M51,87.35l0.2-.09C51.61,87,51.3,87.18,51,87.35Z" fill="#2b2721"/>
    <path d="M27.88,100l0.67-.52A1.64,1.64,0,0,0,27.88,100Z" fill="#2b2721"/>
    <path d="M78.63,77.4h0l0.17-.05Z" fill="#2b2721"/>
    <path d="M29.58,98.78a10.51,10.51,0,0,0-1,.67C28.88,99.25,29.26,99,29.58,98.78Z" fill="#2b2721"/>
    <path d="M12,172.46l0.22,0.16h0Z" fill="#2b2721"/>
    <path d="M12.22,172.62l0.26,0.16A1.39,1.39,0,0,0,12.22,172.62Z" fill="#2b2721"/>
    <path d="M13,173.11l-0.54-.33A3,3,0,0,0,13,173.11Z" fill="#2b2721"/>
    <path d="M6.68,167.24l-0.09,0A0.11,0.11,0,0,0,6.68,167.24Z" fill="#2b2721"/>
    <path d="M5.31,165.44a10.37,10.37,0,0,0,1.2,1.74l0.08,0a5.29,5.29,0,0,1-.64-0.81A6.25,6.25,0,0,0,5.31,165.44Z" fill="#2b2721"/>
    <path d="M2,156.74s0.11,0.45.24,0.9l0.25,0.9c0-.33-0.1-0.75.17,0C2.11,156.29,2.64,159.07,2,156.74Z" fill="#2b2721"/>
    <path d="M1.26,151c0.18,1,.08,0,0.11,0C1.23,150.41,1.19,150.26,1.26,151Z" fill="#2b2721"/>
    <path d="M13.36,112.79l0,0.16C13.89,112.37,13.35,112.91,13.36,112.79Z" fill="#2b2721"/>
    <polygon points="18.68 106.76 18.05 107.2 17.86 107.52 18.68 106.76" fill="#2b2721"/>
    <polygon points="22.91 104.47 22.66 104.69 23.66 103.88 22.91 104.47" fill="#2b2721"/>
    <path d="M86.83,76.41l-0.27-.09C86.07,76.48,86,76.68,86.83,76.41Z" fill="#2b2721"/>
    <path d="M116.48,69.83a6.19,6.19,0,0,0,1.7-.23C117.5,69.7,116.82,69.75,116.48,69.83Z" fill="#2b2721"/>
    <polygon points="206.88 57.67 206.29 57.84 207.41 57.56 206.88 57.67" fill="#2b2721"/>
  </g>
</svg>
