<svg id="Layer_1" data-name="Layer 1" xmlns="http://www.w3.org/2000/svg" width="278" height="250" viewBox="0 0 278 250">
  <title>watercolour-line</title>
  <g>
    <path d="M18.51,248c0.25,0.08.16-.07-0.47-0.4l-0.52-.1Z" fill="#2b2721"/>
    <path d="M14.56,245.28c-0.73-.41-1.61-0.85-1.25-0.41,0.78,0.35.9,0.51,1.74,0.87a2.35,2.35,0,0,1,.89.69,13.28,13.28,0,0,0,1.33.68c-0.74-.57-1.77-1.11-2.81-1.76C14.26,245.16,14.5,245.27,14.56,245.28Z" fill="#2b2721"/>
    <path d="M13.51,183.89l-0.3.33Z" fill="#2b2721"/>
    <path d="M47.37,158.16a1.75,1.75,0,0,0-.4.26A1.63,1.63,0,0,0,47.37,158.16Z" fill="#2b2721"/>
    <path d="M53.94,155l-0.39.18A2.35,2.35,0,0,0,53.94,155Z" fill="#2b2721"/>
    <path d="M13.51,183.89l0.77-.84A5.08,5.08,0,0,0,13.51,183.89Z" fill="#2b2721"/>
    <path d="M7.21,239.14c0.16,0.18.3,0.33,0.43,0.46l-0.39-.45h0Z" fill="#2b2721"/>
    <path d="M4,200l-0.13.32a1.7,1.7,0,0,0,0,.29,2.75,2.75,0,0,1,.07-0.31Z" fill="#2b2721"/>
    <path d="M1.31,214.06a0.89,0.89,0,0,0-.17-0.57,2.82,2.82,0,0,1,.06.71A0.18,0.18,0,0,0,1.31,214.06Z" fill="#2b2721"/>
    <path d="M5.76,236.16L6,236.49Z" fill="#2b2721"/>
    <path d="M8.63,190.81a0.32,0.32,0,0,0,.11-0.09A0.19,0.19,0,0,0,8.63,190.81Z" fill="#2b2721"/>
    <path d="M200.47,8s0,0,0,0S200.37,8,200.47,8Z" fill="#2b2721"/>
    <path d="M184.71,2.18l0.23,0.06A0.14,0.14,0,0,0,185,2.18h-0.3Z" fill="#2b2721"/>
    <path d="M66.18,149.6l-0.06,0C65.8,149.77,66,149.69,66.18,149.6Z" fill="#2b2721"/>
    <path d="M184.6,117.46c-1.38.24,2.15-.74,0.09-0.33C184.89,117.13,182.9,117.83,184.6,117.46Z" fill="#2b2721"/>
    <path d="M7,238.83c-0.13-.15-0.26-0.31-0.38-0.47C6.77,238.58,6.89,238.72,7,238.83Z" fill="#2b2721"/>
    <path d="M184.69,117.13h0l-0.21,0Z" fill="#2b2721"/>
    <path d="M95.09,139a1.75,1.75,0,0,0-.32,0A0.91,0.91,0,0,0,95.09,139Z" fill="#2b2721"/>
    <path d="M73.35,146.38l0.54-.19Z" fill="#2b2721"/>
    <path d="M106.47,135.45a8,8,0,0,0,.81-0.21l-0.13,0A3.83,3.83,0,0,1,106.47,135.45Z" fill="#2b2721"/>
    <path d="M118.49,132.35l-0.23,0-0.38.1Z" fill="#2b2721"/>
    <path d="M235.28,22.45a3.34,3.34,0,0,1-.45-0.37C235,22.25,233.3,21.48,235.28,22.45Z" fill="#2b2721"/>
    <path d="M7.27,239.08A1,1,0,0,1,7,238.83l0.27,0.32S7.32,239.16,7.27,239.08Z" fill="#2b2721"/>
    <path d="M106.67,134.25l1.91-.5Z" fill="#2b2721"/>
    <path d="M261.29,85.19l0.36-.28A3.14,3.14,0,0,0,261.29,85.19Z" fill="#2b2721"/>
    <path d="M114.26,132.25c0.35,0,.72-0.1,1.1-0.18l0.21-.09Z" fill="#2b2721"/>
    <path d="M234.82,22.07h0Z" fill="#2b2721"/>
    <path d="M222.9,16.94c1.72,0.75.88,0.18,1.29,0.24,2.07,0.86.89,0.55,1.55,0.94,1.3,0.52,2.35.81,3.29,1.26,0.06,0.06.24,0.16,0,.09,1.41,0.48,4,1.87,5.6,2.45a0.85,0.85,0,0,1,.18.14c-0.21-.21-0.21-0.31-0.13-0.34a8.76,8.76,0,0,1,1.68.85,2.94,2.94,0,0,0-.75-0.29l0.81,0.35c0.63,0.51-1.1-.49-1.16-0.37,1.56,0.72,3.42,1.49,4.56,2.17,0.17,0.28-2.75-1.39-1.27-.43l-1.79-1c1.27,0.94-1.1-.57.05,0.33,2.37,1.25,2.7,1.3,5,2.6,0.57,0.21-.11-0.22.46,0,3.41,1.69,2.41,1.82,4.93,3a7.69,7.69,0,0,1,2.67,1.37l-0.68-.19c2.19,1.39,1.42.52,3.62,2.13-0.44-.2-1.74-1.07-1.42-0.83a13.21,13.21,0,0,0,2.23,1.34l0.14,0.3c1.16,0.74,2.35,1.58,3.59,2.39s2.47,1.73,3.65,2.7c-0.16-.07-0.6-0.36-0.08.14a49,49,0,0,1,8.44,8.32l1,1c0.2,0.26.32,0.52,0.08,0.26,0.83,1.17.12,0,.59,0.52s0.55,0.93.24,0.52l1.3,1.82A22.92,22.92,0,0,1,273.94,53a17.31,17.31,0,0,1,1.7,4.65l-0.18-.48c0.12,0.5.24,0.88,0.36,1.21s0.16,0.61.24,0.88a6.89,6.89,0,0,1,.31,2s0-.37,0-0.36v2.55l-0.11.85L276,66l-0.44,1.63A18.32,18.32,0,0,1,273,73.1a3.1,3.1,0,0,1-.43.88l-0.91,1.24c-0.32.43-.63,0.85-0.85,1.19a1.81,1.81,0,0,0-.41.67c-1.85,1.82-1.29,1.33-4,3.75a7.91,7.91,0,0,0-.83.92,10.22,10.22,0,0,1-1,1l-0.12-.1L263.3,83.8l-0.79.41s-0.21.19-.43,0.37l-0.45.35a2.68,2.68,0,0,1,.78-0.44,26.79,26.79,0,0,1-2.31,1.63,8.65,8.65,0,0,1-1.33.77l-0.52.39-1.19.81-1.73,1.18a8.93,8.93,0,0,1,1.07-.83c-1.8,1.33-.43.08-2.08,1.3,0.25-.12-0.08.16-0.1,0.21-0.93.44-3,1.58-4.43,2.46l0.24-.26c-1.34.78-2.83,1.48-4.31,2.28-0.75.39-1.5,0.8-2.27,1.18l-2.36,1.11c1.16-.48,1-0.2.05,0.25l-0.44,0c-0.56.37,1-.4-0.18,0.29-1.19.53-.87,0.2-0.22-0.16l-1.42.72a0.92,0.92,0,0,1,.28-0.28,12.33,12.33,0,0,1-1.58.71,10.13,10.13,0,0,0-1.78.79h-0.1c-3.22,1.36-4.64,2.06-7.3,3.07a11,11,0,0,1-1.8.94c-1,.35-2,0.73-3.12,1.1s-2.25.75-3.44,1.18c-1.65.66-.45,0.29-1.17,0.63-0.17-.08-2.53.78-1.33,0.26l-7.25,2.58c0.41-.08.86-0.21,0.65-0.09a4.34,4.34,0,0,1-1.44.36l0.17-.07a66.85,66.85,0,0,1-6.7,2c-2.29.61-4.47,1.23-6.08,1.81l0.18-.07-3.38,1.11c-1.58.43,0.92-.36-0.27-0.11-3.62,1.27-5.83,1.63-8.84,2.56-2.45.27-8.37,2.25-11.64,2.78l0.21,0a7.79,7.79,0,0,1-1.63.33c0.1,0,.92-0.15.41,0-1.74.46-3.52,0.91-5.32,1.34L161.17,122c-3.66.8-7.35,1.58-11,2.3-2.65.55-1.4,0.78-4.78,1.29l0.91-.37c-5.29,1.39-10.94,2.27-16.14,3.52a4,4,0,0,1,.82-0.26,24,24,0,0,0-4.1.93,1.59,1.59,0,0,1-.72,0c-1.13.16-2.76,0.75-3.37,0.77a2,2,0,0,1,.5-0.16c-0.71.21-3.37,0.75-2.64,0.73-2,.39-3.73,1-5.31,1.26-1,.4-3.36.77-3.62,1.07,0.08-.26-3.46.72-4.65,1.16,0.39-.18-1.09.22-0.63,0-1.4.39-2.67,0.79-2.39,0.84-2.65.47-5.1,1.7-6.64,1.81-4.09,1.37-7.86,2.67-11.52,4,0.06-.27,4.06-1.39,3.83-1.55-3.47,1.24-5.41,2.11-8.86,3.29-0.9.29,0.47-.27,0.76-0.42-3.43,1.32-6.68,2.43-9.68,3.74a4.45,4.45,0,0,1,.62-0.31,4.53,4.53,0,0,0-1.3.59l0.57-.26c1-.24-2.26,1.23-2.34,1.35,0.9-.69-3,1.16-1.55.16a1.6,1.6,0,0,0-.74.45c-0.59.22-.79,0.26-0.23-0.05-2.11.94-1.31,0.73-3.23,1.55a4.27,4.27,0,0,1,.54-0.37,34.59,34.59,0,0,1-3.5,1.7c0.08-.07-0.12,0,0.36-0.24-2.77,1.25-4.6,2.38-7.63,3.76,0.78-.63-1,0.44-1.29.35l-1.58.85,0.68-.24c-1.4.71-2.57,1.47-3.79,2l1-.61L46,158.14l1.5-.73c-1.35.84,0.26,0.13-1.6,1.08,0.36-.22-1.38.74-2.14,1.06h0A25.13,25.13,0,0,1,41.42,161c-0.29.1,0.1-.3-0.08-0.24-0.58.52-3.14,1.92-3.86,2.59,0.25-.2.22-0.3,0.11-0.26l-0.48.45c-0.64.35-.74,0.39-0.68,0.26-1.85,1.17.7-.19-1.52,1.15,0.16-.12.07-0.08,0.42-0.33-2.21,1.38-4.14,2.86-6.1,4.24-0.68.27,1.66-1.28,0.92-.93-2.8,2-5.58,4.49-8.12,6.66l0.48-.4c-0.16.52-2,1.52-3.1,2.8,0.29-.3.29-0.48,0.23-0.38a59.14,59.14,0,0,0-5.58,6l0.24-.36c-0.93,1-2.35,2.68-3.23,3.84-0.21.39-.72,1-0.33,0.7-3,3.4-4.57,7.27-6.44,10.78,0.2-.43.43-1.06,0.27-0.71,0,0-.36.77-0.64,1.58L3.3,200a5,5,0,0,0,.58-1c-0.09.43-.42,1.33-0.66,2.13,0.4-1.48-.18,0-0.45.56,0.07-.09,0,0.13.09,0.09-0.73,1.64.07,0.33-.66,2.64l0-.14c-0.2.89-.33,1.71-0.51,2.67-0.21.37,0.12-1,0-1-0.23,1.36-.29,2.7-0.53,3.92,0-.58.12-1.42,0.21-2a11,11,0,0,0-.49,2.48l0-.1-0.17,1.16c-0.07.58-.1,1.16-0.1,1.16l0.07-.59a14.58,14.58,0,0,1,.07,2.7,25.27,25.27,0,0,0,.18,3.13c-0.29-2.24-.14-0.37-0.3-0.53a5.38,5.38,0,0,1,0,1.25A25.59,25.59,0,0,0,1,221.8c0,0.08.18,1.16,0,.94,0.26,1.41,0-.35.11-0.24,0.06,0.27.12,0.55,0.17,0.84,0,0.13.06,0.34,0.07,0.4v0.47c0,0.65.06,1.33,0.13,2a17.13,17.13,0,0,0,1.1,4.43,17.89,17.89,0,0,0,1.28,2.68c0.37,0.69.79,1.33,1.46,2.39,0.35,0.78-.5-0.52-0.5-0.52a16.3,16.3,0,0,0,2,3.11c-0.2-.18-0.06.05,0.15,0.39a14.11,14.11,0,0,1,1.4,1.53,7.16,7.16,0,0,1-.81-0.68,33.75,33.75,0,0,0,2.68,2.59c0.18,0.3-.63-0.45-1-0.73a18.75,18.75,0,0,0,3.24,2.61l-0.67-.63c0.4,0.33.13,0.26-.18,0a3.82,3.82,0,0,1-1.34-1.26l0.35,0.29,0.36,0.28a5.38,5.38,0,0,0-.67-0.73c-0.28-.3-0.63-0.63-1-1a17,17,0,0,1-2.12-2.21L8,239.31S6.62,238,6.66,238c-0.18-.36-0.24-0.65.29,0.07-0.65-1.13-.71-0.91-1.24-1.89-0.05-.11,0-0.07.06,0s-0.18-.26-0.35-0.53l-0.34-.53c0.16,0.19,0-.25.38,0.43-0.25-.51-0.5-1-0.73-1.35l-0.57-1.1a5.31,5.31,0,0,1-.66-1.59l0.08,0.17c-0.6-1.45-.62-1.53-0.67-1.49s-0.07.18-.5-0.94c0,0,0-.41,0-0.82V227.6l-0.21-.27a2.16,2.16,0,0,1-.06-0.85c-0.28-1.18,0,.22-0.24-0.47,0-.39-0.06-0.86-0.08-1.34a10.68,10.68,0,0,0-.11-1.46,6.19,6.19,0,0,1-.16-1.88c-0.2-.54.14,1.49-0.2-0.15,0.15-.5-0.25-1.92-0.26-3.36,0.17,0.43.22,1.78,0.22,0.35a5.17,5.17,0,0,1-.15-1.86c0-.74,0-1.52,0-2.12a21.07,21.07,0,0,1,.22-4.63A54.44,54.44,0,0,1,2.68,204l0,0.06a15.1,15.1,0,0,1,.91-3.6,1.71,1.71,0,0,1-.14,1.09l0.41-1.26a10.34,10.34,0,0,1,.48-1.51v0.36c0.31-.82.61-1.66,1-2.53L6,195.29c0.23-.46.5-0.93,0.79-1.42-0.05-.18-1.18,1.43-0.1-0.74,0.1,0,.25-0.07,0,0.5a10,10,0,0,1,.52-1l-0.36.9c0.54-.88.16-0.53,0.59-1.24,0.08,0.06.38-.49,0.39-0.35a7.13,7.13,0,0,0-.53.89,17.35,17.35,0,0,1,1.39-2c-0.09,0-.11-0.07.23-0.66a5.88,5.88,0,0,1,1.06-1.26,8.48,8.48,0,0,0,.78-1.38,2.56,2.56,0,0,1,.58-0.58c0.26-.38.88-1.25,1.39-1.89s0.87-1.11.48-.76l-0.16.17,0.09-.12h0a60.27,60.27,0,0,1,6.3-6.72l0,0c1.23-1.29,2.9-2.69,3.79-3.61a1.57,1.57,0,0,1,.88-0.54,22.85,22.85,0,0,1,2.7-2.19,5,5,0,0,1-1.07.91,39.22,39.22,0,0,0,3.21-2.49c-0.44.48,1.17-.66,1.82-1.19l-1.05.66c0.75-.58,1.42-1.05,2.12-1.52l-0.28.39c3.05-1.92,5.23-3.92,7.74-5.09,0.75-.61-1.71,1-1.05.4,1.42-.88,3-1.53,3.49-1.8,2-1.07,1.72-1.28,3.83-2.39-0.3.09-.63,0.09,0.91-0.81s1.92-.76,1-0.22a1.6,1.6,0,0,1-.52.24c-0.46.28-1.07,0.64-.46,0.38l0.16-.16c0.75-.35,2.77-1.43,2.34-1.08,1.09-.63.43-0.33-0.41,0.07,1.93-.91,3-1.54,5-2.46-0.33.13-.65,0.21-0.33,0.05,2.92-1.36,1.23-.72,3.18-1.7,1.16-.45-0.31.38,1.65-0.62,1.25-.51.32,0-0.14,0.29a41.7,41.7,0,0,1,4.49-1.93l-0.94.47c0.56-.28,1-0.49,1.52-0.7l-0.6.14a5.24,5.24,0,0,1,1.06-.39c0.55-.33-0.53,0,0.59-0.59a22.35,22.35,0,0,1,2.61-1c-2.41,1,.33,0-1.69.92,0.38-.18.86-0.39,1.44-0.61,0.09,0-.07.06-0.22,0.14,2.34-.84,1-0.61,3.37-1.59-0.27.21,0.62-.07,1-0.24-1,.38-0.52,0,0.34-0.37,1.56-.55,1.65-0.72,2.46-1l-0.93.33a15.38,15.38,0,0,1,2.12-.94c0.12,0-1,.42-0.57.3,1.14-.61,2.76-0.89,4.39-1.6,0.8-.23.13,0.13,0.83-0.09,1.84-.78,2.07-0.63,4-1.41-0.61.09-.7,0.15,0.66-0.45l-3.23,1.24,2-.91c-1,.34-2,0.82-2.64,1,1-.45.87-0.39,0.37-0.31,1.4-.32,2.63-1.05,4.23-1.48l0,0.3c2.39-.68,4.12-1.57,7.21-2.49l-1,.27c0.37-.25,1.89-0.62,2.87-1a2.15,2.15,0,0,0,1-.11,25.27,25.27,0,0,0,2.48-1l1.41-.29c2.51-.69,2.77-1.12,5.18-1.77-0.7.31,0.42,0.07-1.17,0.6a7.71,7.71,0,0,0,1.52-.49c0.48-.08,2.19-0.75,3-0.87a5.55,5.55,0,0,1,1.32-.5c0.1,0,0,0,0,0s1.4-.45.58-0.34c2.56-.38,7-1.83,9.2-2.09,1.76-.46,3.9-1,5.51-1.35a0.43,0.43,0,0,1-.3.11c2.25-.4,1.31-0.59,3.87-1,1.33-.11-1.33.36-0.51,0.26,0.42,0.24,3.06-.66,4.81-0.83l-0.41.1c1.33-.16,3.17-0.77,5.32-1.19,0,0-.1,0,0,0.05,1.43-.47,4.19-1.07,6.24-1.56-0.61.26-.92,0.27-0.5,0.31,0.92-.22-0.31-0.14,1.52-0.58a12.64,12.64,0,0,1,2.16-.19l-1.73.38a23.63,23.63,0,0,0,3.16-.66l-0.1.1c2.65-.6,2.65-0.8,5.51-1.41H152.5c1.52-.53,1.33-0.17,2.86-0.66l0.51,0.08c1-.28,3.55-1,5.39-1.48-1,.38-3.15,1-4.46,1.35,1-.24,3.46-0.82,4-1a12.67,12.67,0,0,1-1.32.35,43.23,43.23,0,0,1,4.87-1.36c-0.14.23,1.19-.05,2.74-0.4a33.87,33.87,0,0,1,4.09-.85c3.54-1,7.12-1.67,11.25-2.83-1.55.1,1.21-.33,0.88-0.56a13.22,13.22,0,0,1,1.42-.37l3-.6c0.72-.1-0.9.31-0.79,0.35a16,16,0,0,1,2.34-.41c-0.31,0,.69-0.36,1.9-0.66l-1.73.35c2.9-1,2.61-.48,5.54-1.48L194,115a72.74,72.74,0,0,0,7-2.31c0.28,0,.66-0.08,0,0.15,3.63-1.07,8-2.71,10.8-3.52l-0.25.16a14.52,14.52,0,0,1,2-.73s-0.25.16,0.07,0.06,1.74-.71,2.64-1l-0.73.33c3.52-1.11,5.27-2.09,8.17-3.17,0.08,0.23,2.81-.77,4.17-1.26l0,0c4-1.49,6.7-2.92,10.34-4.54,1.17-.41,3.08-1.27,5.16-2.22s4.25-2.14,6.06-3c-0.56.24,0-.18,0.62-0.55,0.83-.42,2.17-1.41,2.14-1.16l-0.29.16a19.52,19.52,0,0,0,3.64-2l0.07-.36c3.61-1.66,8.4-5.93,10.21-7.1,0.71-.63,1.52-1.5,2.17-2.18L268,81.09c0.48-.45.92-0.84,1.3-1.23l1.07-1.19,1.14-1.29c0.4-.48.78-1.07,1.27-1.74l-0.31.6a9.92,9.92,0,0,0,1.05-1.8,11.31,11.31,0,0,1,.79-1.82l0.44-.35a19.2,19.2,0,0,0,2.53-9.35,1.24,1.24,0,0,1,.1.68V62c0-.31,0-0.64,0-1a8.21,8.21,0,0,0-.11-1c-0.17-1.22-.37-2.17-0.47-1.86a6.3,6.3,0,0,0-.44-1.86,8.91,8.91,0,0,0-.61-1.55l-0.64-1.39,0.23,0.2a15,15,0,0,0-.86-1.33c-0.26-.37-0.49-0.84-1-1.71-0.25-.41-0.14-0.41.18,0.14-0.83-1.39-.77-1-1.82-2.64l0.26,0.26,0.24,0.28a9.78,9.78,0,0,0-1.58-1.86c-0.17-.2-0.37-0.45-0.58-0.73l-0.68-.81a6.6,6.6,0,0,1-.81-1.14,12.79,12.79,0,0,1-1.56-1.42c-0.06-.13.21,0.1,0.35,0.22-1.86-2.05-3.08-2.72-4.41-4.08a0.57,0.57,0,0,0-.19-0.27c1.67,1.42,2.95,2.65,2.83,2.54,0.09-.09-1.22-1.3,0-0.48L263.56,39c-0.81-.6-1.64-1.23-2.29-1.8a1.63,1.63,0,0,1-.15-0.18l0.15,0.1a6.92,6.92,0,0,0-.87-0.66c-0.43-.35-0.7-0.57-1.12-0.9A17,17,0,0,0,257,33.75c0,0.16-1-.53-0.14.19a3.47,3.47,0,0,1,.63.42l0.32,0.2-0.06,0c0.48,0.33,1.07.8,1.76,1.31a15,15,0,0,1-2-1.39l-1.14-.52c-0.86-.87-2.74-2.25-2.95-2.52a56.26,56.26,0,0,0-7-3.95,3.42,3.42,0,0,1-.95-0.69c0.39,0.2.85,0.47,1.07,0.56a37.63,37.63,0,0,0-4.37-2.22c-1.66-1,1,.35-1.31-0.86l0.34,0.12c-4.47-2.71-7.73-3.46-12.81-6.22a3.65,3.65,0,0,1,.59.35c-5.91-2.91-12.48-5.28-18.44-7.85a17.55,17.55,0,0,0-3-1l-0.32-.28-1.87-.51c-2.61-.81-4.32-2-7.67-2.85l0.39,0.24c-1.17-.43-3.74-1.2-3.51-1.25a2.65,2.65,0,0,1-.86-0.23V4.71l-2.94-.81c-2.24-.77.45-0.19-2.84-1.24A14.6,14.6,0,0,0,184.81,2a4.74,4.74,0,0,1,1.27.51l-1.14-.29c-0.27.17-1.19,0.13,1.51,1.11l2,0.45L189,4.1l-1.61-.49a9.76,9.76,0,0,0,2.15.62,3.23,3.23,0,0,0,.76.37L192.22,5c0.2,0.16-.89-0.1.34,0.36,0.91,0.19-.78-0.47.69-0.06a5.47,5.47,0,0,0,1.68.66c0.13,0.11-.11.07-0.54,0,1,0.25,2.52.81,3,.87,0.9,0.44,3.2,1.07,3,1.25a24.85,24.85,0,0,1,2.59.73c-1.67-.32,3.23,1.18,2.71,1.31,1.25,0.2,4.24,1.47,6.33,2.15a2.85,2.85,0,0,1-.54-0.16c1.15,0.47,1.45.67,2.18,1a17.31,17.31,0,0,1,3,.83c1.34,0.74-.94-0.13-0.57.21,0-.18,2.5.85,2.07,0.53a6.68,6.68,0,0,1,1.39.82c0.28-.15,1,0.37,2,0.62a8.45,8.45,0,0,0,2,1C224.44,17.51,222.9,16.94,222.9,16.94Zm38.19,21.19h0l-0.7-.57Zm2.8,2.38c-0.33-.3-0.73-0.69-1.19-1.06-0.07-.12.07-0.07,0.36,0.17A7.3,7.3,0,0,0,263.89,40.5Zm-5.46-5.68a2.91,2.91,0,0,1,.67.55l-0.83-.61-0.07,0A0.78,0.78,0,0,1,258.43,34.83Z" fill="#2b2721"/>
    <path d="M257.46,34.36l-0.2-.13,0.27,0.23,0.2,0.08Z" fill="#2b2721"/>
    <path d="M13.15,184.28l0.05-.06-0.12.11Z" fill="#2b2721"/>
    <polygon points="264.44 82.61 264.46 82.63 264.69 82.41 264.44 82.61" fill="#2b2721"/>
    <path d="M2.77,201.65a1.33,1.33,0,0,0-.12.24A1.75,1.75,0,0,0,2.77,201.65Z" fill="#2b2721"/>
    <path d="M0.88,210.27l-0.19,1.24Z" fill="#2b2721"/>
    <path d="M0.57,217.06a0.33,0.33,0,0,0,.06.13h0Z" fill="#2b2721"/>
    <path d="M72.57,145.67l0.24-.1C73.37,145.32,73,145.48,72.57,145.67Z" fill="#2b2721"/>
    <path d="M43.75,159.55l0.86-.57A2.4,2.4,0,0,0,43.75,159.55Z" fill="#2b2721"/>
    <path d="M106.46,134.3h0l0.21-.06Z" fill="#2b2721"/>
    <path d="M45.92,158.27a13,13,0,0,0-1.31.71C45,158.76,45.51,158.51,45.92,158.27Z" fill="#2b2721"/>
    <path d="M11.48,243.48l0.25,0.22s0,0,0,0Z" fill="#2b2721"/>
    <path d="M11.78,243.71l0.29,0.22A2,2,0,0,0,11.78,243.71Z" fill="#2b2721"/>
    <path d="M12.68,244.39l-0.61-.47A4.12,4.12,0,0,0,12.68,244.39Z" fill="#2b2721"/>
    <path d="M5.51,236.71l-0.1-.06A0.14,0.14,0,0,0,5.51,236.71Z" fill="#2b2721"/>
    <path d="M4.11,234.34a24.74,24.74,0,0,0,1.22,2.26l0.08,0C5.09,236.35,4.5,234.84,4.11,234.34Z" fill="#2b2721"/>
    <path d="M1.89,223.23l0,0.35c0,0.31,0,.51,0,0.82C2,225,2,225.52,2,225.52c0-.4,0-0.91.15,0.1C2.1,222.78,2.08,226.26,1.89,223.23Z" fill="#2b2721"/>
    <path d="M1.25,216.25c0,1.21.08,0,.11,0C1.3,215.53,1.28,215.34,1.25,216.25Z" fill="#2b2721"/>
    <path d="M24.52,173.21v0.18C25.22,172.78,24.48,173.35,24.52,173.21Z" fill="#2b2721"/>
    <polygon points="31.9 166.81 31.09 167.27 30.8 167.61 31.9 166.81" fill="#2b2721"/>
    <polygon points="37.2 164.38 36.86 164.62 38.16 163.74 37.2 164.38" fill="#2b2721"/>
    <path d="M116.38,133l-0.31-.09C115.45,133.09,115.37,133.29,116.38,133Z" fill="#2b2721"/>
    <path d="M152.5,125.05a8.93,8.93,0,0,0,2-.39C153.73,124.83,152.91,124.94,152.5,125.05Z" fill="#2b2721"/>
    <polygon points="257.27 89.4 256.66 89.85 257.83 89.05 257.27 89.4" fill="#2b2721"/>
  </g>
</svg>
