<svg aria-hidden="true" style="position: absolute; width: 0; height: 0; overflow: hidden;" version="1.1"
  xmlns="http://www.w3.org/2000/svg"
  xmlns:xlink="http://www.w3.org/1999/xlink">
  <defs>
    <symbol id="icon-flower-hr" viewBox="0 0 120 20">
      <path d="M38.17,12.28c2.79,1,5.6,2,8.34,3.09a0.32,0.32,0,0,1-.43.25c-0.3-.06-0.6-0.14-0.9-0.2-0.85-.16-1.7-0.31-2.55-0.47-1-.21-2.1-0.41-3.14-0.65C38.26,14,37,13.7,35.79,13.38c-0.62-.16-1.24-0.35-1.85-0.55A7.69,7.69,0,0,0,32,12.47c-0.42,0-.84-0.13-1.26-0.19s-1.12-.15-1.68-0.19-1.14,0-1.71-.06L27,12c-1.17-.11-2.33-0.24-3.5-0.33s-2.25-.13-3.38-0.2c-1-.07-1.93-0.14-2.89-0.24C16.07,11.11,15,11,13.84,10.84l-1.36-.13a4.26,4.26,0,0,0,.3.57,2.24,2.24,0,0,1,.41,1.13c0.07,0.62.24,1.23,0.36,1.85,0.05,0.26.08,0.52,0.14,0.77a5.81,5.81,0,0,0,.23.75c0.23,0.61.48,1.22,0.72,1.83a0.83,0.83,0,0,0,.05.12,1.08,1.08,0,0,1,.2,1,2.51,2.51,0,0,1-1-.57,3.87,3.87,0,0,1-.63-0.67,2.84,2.84,0,0,1-.42-0.76c-0.3-.9-0.57-1.81-0.85-2.72a0.66,0.66,0,0,1,0-.21,3.94,3.94,0,0,0-1.08-2.65,1.9,1.9,0,0,0-1-.63,7.1,7.1,0,0,0-1.91-.21c-1.13,0-2.26,0-3.38.07-0.78,0-1.56.18-2.35,0.27-0.25,0-.49.08-0.74,0.09a0.7,0.7,0,0,1-.79-0.6,0.77,0.77,0,0,1,.69-0.85l1.49-.1,1.62-.13C5,9.09,5.62,9.1,6.2,9a23.65,23.65,0,0,1,3.42,0A2.38,2.38,0,0,0,11.77,8c0.66-1,1.27-2.07,1.86-3.13a8.73,8.73,0,0,1,.74-1.34,4.66,4.66,0,0,1,1.23-1.18c0.34-.2.64-0.46,1-0.68a4.68,4.68,0,0,1,1.61-.54L18.74,1a0.41,0.41,0,0,1-.18.58,4.47,4.47,0,0,0-1.27,1.24c-0.7.93-1.18,2-1.86,2.92a12,12,0,0,1-1.31,1.7,1.93,1.93,0,0,0-.28.39,4.7,4.7,0,0,1-1.12,1.34,0.81,0.81,0,0,0-.1.16c0.38,0.07.73,0.16,1.08,0.21,1.17,0.17,2.35.35,3.52,0.5s2.39,0.26,3.58.39c0.48,0.05,1,.12,1.44.15L26,10.77,30,11a0.53,0.53,0,0,0,.53-0.13,0.11,0.11,0,0,1,.08,0,8.53,8.53,0,0,0,1.72-.63c0.59-.16,1.16-0.4,1.75-0.57s1.08-.25,1.63-0.37c1-.22,2.08-0.48,3.14-0.62a13,13,0,0,1,2.92-.27,7.37,7.37,0,0,1,.86.18,9.27,9.27,0,0,1,1.86.64,2,2,0,0,1,.31.24,1.79,1.79,0,0,1-.34.14,4.51,4.51,0,0,1-.83.09,22.15,22.15,0,0,0-3.31.34c-0.85.1-1.69,0.33-2.55,0.43a5.09,5.09,0,0,0-1.52.38L36,10.95c0.38,0,.68.06,1,0.07,0.6,0,1.2,0,1.8,0q1.25,0,2.5.13c1.05,0.07,2.1.17,3.15,0.26,0.38,0,.75.11,1.13,0.15l1.92,0.16c0.51,0,1,.13,1.53.18,1.22,0.13,2.45.21,3.67,0.4a5.22,5.22,0,0,0,1.82-.06,12,12,0,0,0,2.77-.79,29.85,29.85,0,0,0,2.83-1.57,8.47,8.47,0,0,1,2-1,12.06,12.06,0,0,1,2.35-.54,7.38,7.38,0,0,1,1.31.05,8.05,8.05,0,0,1,.85.2,0.29,0.29,0,0,1,.26.31,0.41,0.41,0,0,1-.2.25,2,2,0,0,1-.41.16c-0.67.22-1.35,0.4-2,.66a13,13,0,0,0-1.46.79l-1.74,1c-0.39.22-.78,0.46-1.19,0.65a8.79,8.79,0,0,1-2.33.75,2.18,2.18,0,0,0-.27.08s0,0.06,0,.09c0.27,0,.53.09,0.8,0.12,1.37,0.15,2.74.3,4.11,0.43,0.65,0.06,1.32.07,2,.09,1.21,0,2.43.08,3.64,0.1,0.67,0,1.35,0,2,0a1.77,1.77,0,0,0,.86-0.28c-0.05-.16-0.09-0.31-0.15-0.45A1,1,0,0,1,71,12.08c0.23-.16.37-0.1,0.45,0.18s0.14,0.63.21,0.94a1.92,1.92,0,0,0,.11.27A1.42,1.42,0,0,0,72,13.32c0.23-.24.44-0.51,0.69-0.74a0.36,0.36,0,0,0,.07-0.51l-0.56-.84a1.63,1.63,0,0,1-.2-0.38,0.27,0.27,0,0,1,.11-0.21,0.2,0.2,0,0,1,.2,0,0.53,0.53,0,0,0,.66.19,0.92,0.92,0,0,1,.4.12l0.23-.46A2.83,2.83,0,0,1,73.83,10a0.25,0.25,0,0,1,.48.12,3.87,3.87,0,0,1,0,.83c0,0.2-.06.4-0.09,0.61a0.58,0.58,0,0,0,.5-0.08,2,2,0,0,1,1.33,0,0.36,0.36,0,0,1,.21.18,0.38,0.38,0,0,1-.19.25C75.8,12,75.52,12,75.21,12.1a1.86,1.86,0,0,0,.16.26c0.14,0.16.29,0.32,0.45,0.47a0.69,0.69,0,0,0,.23.12c0.48,0.19.52,0.36,0.17,0.76a0.79,0.79,0,0,0-.06.13c0.31,0,.61.05,0.9,0.06L81.5,14c0.19,0,.38,0,0.56-0.05a3.4,3.4,0,0,1,.47,0l1.87,0.2a0.37,0.37,0,0,0,.44-0.27A1.91,1.91,0,0,0,85,13.2a4.77,4.77,0,0,1,.12-1,0.81,0.81,0,0,1,.17-0.35,0.43,0.43,0,0,1,.51-0.14,0.36,0.36,0,0,1,.12.43c-0.05.26-.11,0.51-0.17,0.81a0.45,0.45,0,0,0,.19,0c0.18-.21.36-0.42,0.53-0.64a0.28,0.28,0,0,0,0-.43A4.52,4.52,0,0,0,86,11.54a0.57,0.57,0,0,1-.4-0.68,0.44,0.44,0,0,0-.08-0.24,3.46,3.46,0,0,1-.17-0.36,0.47,0.47,0,0,1,.55-0.67,1.87,1.87,0,0,1,1.47.83c0.17-.17.33-0.35,0.51-0.52s0.45-.23.58,0.13a1.77,1.77,0,0,1,.07.55,3.47,3.47,0,0,1-.07.5,2.67,2.67,0,0,0,.34.12l0.82,0.14a1.8,1.8,0,0,1,.54.16,0.56,0.56,0,0,1,.27.36c0,0.2-.2.23-0.36,0.24l-1.31.1-0.31,0a1.09,1.09,0,0,1-.29.81,1.17,1.17,0,0,1-.87-0.13l-0.51.57a1,1,0,0,1,.4.17,0.75,0.75,0,0,1,0,.38A0.42,0.42,0,0,0,87.31,14a3.65,3.65,0,0,1,1.33-.75,0.45,0.45,0,0,1,.16-0.07,0.56,0.56,0,0,1,.35.09,0.35,0.35,0,0,1,0,.34,4.14,4.14,0,0,1-.69.51,2.75,2.75,0,0,1-.52.18v0.1c0.4,0,.8.05,1.2,0l5.4-.11c0.2,0,.41,0,0.61-0.06,0.54,0,1.08-.11,1.62-0.14a0.88,0.88,0,0,0,.91-0.61,0.66,0.66,0,0,0,0-.5,3.85,3.85,0,0,1-.23-0.75c-0.07-.4.11-0.56,0.52-0.54a1.09,1.09,0,0,1,1,.67,1.53,1.53,0,0,0,.35.38l1.11-.58a0.33,0.33,0,0,0,.08-0.58,5.35,5.35,0,0,0-.47-0.32,0.59,0.59,0,0,1-.24-0.83,0.36,0.36,0,0,1,.51-0.19l0.31,0.13a0.4,0.4,0,0,0,.09-0.07c0.33-.52.75-0.51,1.05,0,0.07,0.12.12,0.26,0.2,0.44l0.23-.25a1.53,1.53,0,0,1,.29-0.26,0.32,0.32,0,0,1,.53.32,3.53,3.53,0,0,1-.3.86,1,1,0,0,0-.21.75l0.57,0.08a4.33,4.33,0,0,1,.47.1,0.34,0.34,0,0,1,.27.4,0.36,0.36,0,0,1-.35.34,4.61,4.61,0,0,1-.7-0.06l-0.87-.12-0.05.23c-0.07.3-.2,0.41-0.49,0.33a1.26,1.26,0,0,0-1,.3,1.6,1.6,0,0,0,.37,0,20.43,20.43,0,0,1,3.2-.13c0.67,0,1.35,0,2,0s1.46,0.05,2.2,0,1.31-.09,2-0.13a4,4,0,0,1-.1-0.73,0.61,0.61,0,0,1,.57-0.48,2.63,2.63,0,0,1-.39-0.23,0.35,0.35,0,0,1-.14-0.24,0.3,0.3,0,0,1,.21-0.18c0.3-.05.61-0.08,0.91-0.11l0.47,0c-0.14-.22-0.25-0.38-0.34-0.54a0.53,0.53,0,0,1,.12-0.78,0.58,0.58,0,0,1,.79.25,4,4,0,0,1,.25.65c0,0.08.07,0.15,0.14,0.31l0.38-.7a0.43,0.43,0,0,1,.59-0.23,0.33,0.33,0,0,1,.24.47c0,0.1,0,.2-0.06.3a0.3,0.3,0,0,0,0,.07l0.74,0.27a0.45,0.45,0,0,1-.44.4c-0.2,0-.41,0-0.61.06l-0.41.05,0,0.1,0.31,0.18a8.72,8.72,0,0,1,.79.55,0.44,0.44,0,0,1,.07.65l0.54-.07a0.62,0.62,0,0,0,.52-0.34,1.34,1.34,0,0,1,.43-0.43,0.3,0.3,0,0,1,.53.12,0.25,0.25,0,0,0,.35.15A2.12,2.12,0,0,1,116.9,13c0.53-.1.64,0,0.75,0.54a1.12,1.12,0,0,0,.18-0.11,0.42,0.42,0,0,1,.64-0.08,0.94,0.94,0,0,0,.41,0,0.41,0.41,0,0,1,.48.33,0.4,0.4,0,0,1-.43.4c-0.22,0-.43,0-0.7,0,0,0.31-.08.59-0.13,0.87a0.35,0.35,0,0,1-.46.34,2,2,0,0,1-.56-0.23,3.08,3.08,0,0,1-.4-0.33l-0.07.15A0.35,0.35,0,0,1,116,15a2,2,0,0,1-.23-0.37,0.58,0.58,0,0,0-.52-0.34l-1.84,0h-1.81a0.5,0.5,0,0,0-.11.12,3.31,3.31,0,0,0,1.6.08,0.74,0.74,0,0,1,.8.22c0.13,0.11.12,0.26,0,.31a0.87,0.87,0,0,1-.46,0,0.82,0.82,0,0,0-.59,0,0.55,0.55,0,0,1-.25,0,0.73,0.73,0,0,0-.63.14,0.34,0.34,0,0,0,.41.12,2,2,0,0,1,1,.05,0.55,0.55,0,0,1,.47.54A0.45,0.45,0,0,0,114,16a0.58,0.58,0,0,1,.32.73,0.62,0.62,0,0,1-.79.17c-0.26-.09-0.52-0.19-0.82-0.31a3.59,3.59,0,0,0-.26.42,0.3,0.3,0,0,1-.37.23,0.49,0.49,0,0,1-.26-0.3,4.54,4.54,0,0,1-.06-0.72,1.51,1.51,0,0,1-1.44-.19,0.75,0.75,0,0,1,.52-0.49,1.14,1.14,0,0,0,.77-0.82,0.75,0.75,0,0,0-.7.11,2.2,2.2,0,0,1-.41.25c-0.46.19-.69,0-0.62-0.48a0.19,0.19,0,0,0-.07-0.05c-0.59-.07-1.18-0.16-1.78-0.21-0.41,0-.82-0.05-1.23-0.05l-3.07,0a0.32,0.32,0,0,0-.21.05,1,1,0,0,1-.9.18h-0.5l-0.09.63a3.25,3.25,0,0,1,.39.06,0.54,0.54,0,0,0,.56-0.15,1.58,1.58,0,0,1,.89-0.45,0.32,0.32,0,1,1,.24.6l-0.57.37,0.5,0.4-0.42.11,0.1,0.24a3.73,3.73,0,0,1,.29.68,0.31,0.31,0,0,1-.47.38,1.94,1.94,0,0,1-.48-0.36,3.45,3.45,0,0,1-.29-0.35l-0.13.91a0.38,0.38,0,0,1-.16,0,1,1,0,0,0-.91-0.07,1,1,0,0,1-.31,0,1,1,0,0,1,.41-0.76l-0.16-.92a2.36,2.36,0,0,0-.4,0,0.3,0.3,0,0,0-.31.38c0,0.44-.15.59-0.57,0.52a1.38,1.38,0,0,1-.3-0.08,0.8,0.8,0,0,0-.75.05,1.42,1.42,0,0,1-.41.16,0.3,0.3,0,0,1-.4-0.36,4.61,4.61,0,0,1,.2-0.68c-0.11,0-.22-0.09-0.34-0.12s-0.43-.09-0.64-0.14c-0.39-.11-0.43-0.17-0.4-0.58l-8.1.17a0.74,0.74,0,0,1-1,.4c-0.14,0-.28,0-0.5,0l0.17,0.26c0.22,0.3.2,0.37-.14,0.57l-0.17.11c0.27,0.47.41,0.51,0.76,0.2a0.36,0.36,0,0,1,.44-0.07c0.24,0.13.07,0.32,0,.48,1.45,0.33,1.53.36,1.83,0.71a0.58,0.58,0,0,1-.66.2l-1.12-.21a0.76,0.76,0,0,0-.16,0,0.57,0.57,0,0,1-.66.46,0.35,0.35,0,0,0-.21.13s-0.06.14-.11,0.19c-0.39.38-.77,0.59-1.2,0A0.42,0.42,0,0,0,86,18.45c-0.55,0-.55-0.35-0.37-0.69a0.39,0.39,0,0,0-.09-0.56c-0.1-.09-0.18-0.2-0.26-0.29a1.43,1.43,0,0,1-.39-1c0-.07,0-0.14,0-0.22,0-.61,0-0.68-0.64-0.73s-1.37-.11-2.06-0.15-1.14,0-1.71,0l-1.58-.09h-2a4.31,4.31,0,0,0-1.25.12c0.18,0.15.32,0.24,0.43,0.36a0.42,0.42,0,0,1-.45.71,0.62,0.62,0,0,1-.16-0.07,0.56,0.56,0,0,0-.71,0,0.84,0.84,0,0,1-.87-0.11L73,15.07A0.85,0.85,0,0,0,72,15l0.42,0.11a7.13,7.13,0,0,1,.87.29c0.35,0.16.36,0.3,0.1,0.58l-0.09.14,0.23,0.17a3.53,3.53,0,0,1,.45.34c0.16,0.17.11,0.33-.11,0.4A0.71,0.71,0,0,1,73.19,17l-0.35-.24c0-.1,0-0.21,0-0.33a0.56,0.56,0,0,0-.41-0.6l-1-.37-0.05.08a1,1,0,0,0,.19.16,1.64,1.64,0,0,1,.85,1.21,0.54,0.54,0,0,1-.41.64,0.45,0.45,0,0,1-.61-0.26,2.71,2.71,0,0,1-.14-0.64c0-.27,0-0.55-0.08-0.83a0.63,0.63,0,0,0-.75-0.71l-2.5,0c-1.39,0-2.78,0-4.17-.2s-2.83-.25-4.24-0.38c-0.4,0-.8-0.11-1.22-0.12a3.32,3.32,0,0,0,1.2.56c1,0.22,2,.44,3,0.61s2.17,0.34,3.26.47a6.1,6.1,0,0,0,2.05-.06,1.53,1.53,0,0,1,1,.22,0.43,0.43,0,0,1,.14.33,0.37,0.37,0,0,1-.29.39,7.42,7.42,0,0,1-1.08.16c-0.86,0-1.73.06-2.59,0.06-0.51,0-1-.09-1.53-0.11a21.37,21.37,0,0,1-6-1.33,21.23,21.23,0,0,1-2-.8A16.43,16.43,0,0,1,54.06,14a2.14,2.14,0,0,0-1.43-.46,0.88,0.88,0,0,1-.35,0A23.16,23.16,0,0,0,48.46,13c-0.45,0-.9-0.13-1.35-0.15-0.72,0-1.43-.05-2.15-0.09-0.31,0-.61-0.06-0.92-0.1-1.06-.12-2.12-0.27-3.19-0.36-0.89-.08-1.78-0.09-2.67-0.12ZM13.44,15.56c0-.35,0-0.7-0.1-1C13.19,13.73,13,13,12.89,12.16a1.41,1.41,0,0,0-.6-0.91l0.09,0.37a6.76,6.76,0,0,1,.27,1.14,7,7,0,0,0,.54,2.29c0.07,0.17.16,0.34,0.25,0.5a0.59,0.59,0,0,0,.2.53A0.65,0.65,0,0,0,13.44,15.56ZM103.78,14a5,5,0,0,0-.61-0.05c-0.32,0-.64.05-1,0.08s-0.41,0-.61.07a0.93,0.93,0,0,0-.26.16,0.49,0.49,0,0,0,.56.08,6.07,6.07,0,0,1,1.6-.22,0.68,0.68,0,0,0,.26-0.12,4.32,4.32,0,0,0,.6.1l2.89,0.07,2.23,0a0.42,0.42,0,0,0,.44-0.2,4.51,4.51,0,0,0-.57-0.08l-1.62,0c-1,0-2,0-3,0C104.41,13.93,104.1,14,103.78,14ZM1,10.18a0.3,0.3,0,0,0,.32.27,5.85,5.85,0,0,0,.7,0c0.77-.08,1.54-0.19,2.31-0.26,0.32,0,.64,0,1,0,0.88,0,1.76-.08,2.63-0.06s1.86,0.11,2.79.19c1.18,0.11,2.36.25,3.54,0.36,0.74,0.07,1.49.09,2.23,0.14a2.7,2.7,0,0,1,1.2.21,0.57,0.57,0,0,0,.21,0c0.87,0.08,1.75.18,2.62,0.23,1.3,0.08,2.6.14,3.89,0.27,1.47,0.15,2.95.21,4.42,0.3,0.34,0,.69,0,1.1,0a0.74,0.74,0,0,0-.56-0.4c-0.26,0-.52-0.08-0.78-0.09-1.4-.09-2.8-0.17-4.21-0.27-1.11-.08-2.22-0.17-3.33-0.29-1.41-.14-2.83-0.29-4.23-0.48S14,9.81,12.62,9.6a1.52,1.52,0,0,0-.69,0,6.87,6.87,0,0,1-1.66.36A0.25,0.25,0,0,1,10,9.79,1.9,1.9,0,0,1,9.9,9.5L9.4,9.42A10.4,10.4,0,0,0,7,9.26L5.6,9.36,2,9.59a0.59,0.59,0,0,0-.29.1C1.47,9.83,1.28,10,1,10.18Zm52.32,3a0.37,0.37,0,0,0-.3-0.53c-0.1,0-.2-0.06-0.3-0.07L51,12.4l-2.57-.31L47.09,12c-0.47,0-.94-0.06-1.4-0.11-0.81-.09-1.63-0.21-2.44-0.28-1.28-.11-2.57-0.21-3.86-0.28-1-.05-2.05,0-3.07-0.07a5.74,5.74,0,0,0-2.21.17c-0.31.11-.64,0.17-1,0.27a0.52,0.52,0,0,0,.13.08h0.35a35.12,35.12,0,0,1,4,.07L39.33,12c1,0.08,2.1.16,3.15,0.25,0.73,0.07,1.45.18,2.18,0.24,1.46,0.13,2.92.22,4.38,0.35,1.26,0.11,2.52.25,3.78,0.38Zm-23-1.65a1.48,1.48,0,0,0,.92-0.07l2.33-.74a2.1,2.1,0,0,1,.22,0,4.15,4.15,0,0,0,1.49-.49,0.75,0.75,0,0,1,.24-0.1c0.86-.17,1.72-0.37,2.58-0.48s1.75-.13,2.62-0.18l2.45-.13,0.45-.06a2.24,2.24,0,0,0-.27-0.17,5.64,5.64,0,0,0-2.92-.4C39.64,8.83,38.81,9,38,9.14c-0.66.12-1.33,0.22-2,.38a7.53,7.53,0,0,0-2.36.64,0.82,0.82,0,0,1-.17,0l-2.06.73-1,.38Zm39.93,3.17a1.45,1.45,0,0,0-.93-0.35c-0.48,0-1-.06-1.44-0.07s-0.85,0-1.27,0l-3.33-.14c-0.45,0-.9-0.06-1.35-0.11l-1.87-.23c-1-.12-2-0.22-3-0.35-0.68-.09-1.35-0.23-2-0.34a1,1,0,0,0-.21,0,0.67,0.67,0,0,0,.64.41c0.41,0,.81.12,1.21,0.19,0.86,0.15,1.72.36,2.59,0.47,1.28,0.15,2.56.22,3.84,0.34a22.32,22.32,0,0,0,3.59.21,1.18,1.18,0,0,1,.26,0,22.58,22.58,0,0,0,3.11,0A0.62,0.62,0,0,0,70.28,14.74Zm-5.18-6,0-.12a2.32,2.32,0,0,0-.47,0c-0.59.09-1.18,0.2-1.77,0.31a5,5,0,0,0-1.92.82,13.55,13.55,0,0,1-1.19.73,18.87,18.87,0,0,1-2.16,1.16,7.29,7.29,0,0,0-.79.43,0.58,0.58,0,0,0,.34,0A3,3,0,0,1,57.76,12a4,4,0,0,0,1.7-.35,18.2,18.2,0,0,0,3-1.55,9.17,9.17,0,0,1,2.3-1.15A3.33,3.33,0,0,0,65.1,8.76ZM54.21,13.57l0,0.12a1.63,1.63,0,0,0,.21.19l0.49,0.29a10.26,10.26,0,0,0,1.16.61A24.58,24.58,0,0,0,59.59,16a11.17,11.17,0,0,1,1.19.3,16.62,16.62,0,0,0,4.35.51c0.57,0,1.14,0,1.71,0l0.8,0a0.32,0.32,0,0,0-.09-0.09l-2.1-.1c-0.41,0-.82-0.07-1.22-0.12s-0.81-.13-1.22-0.19a18.5,18.5,0,0,1-3.66-.9c-0.59-.22-1.19-0.42-1.78-0.62l-1-.35c-0.63-.23-1.26-0.48-1.89-0.71A2.52,2.52,0,0,0,54.21,13.57ZM17.13,1.82l0-.09a1.08,1.08,0,0,0-.27.09l-1.16.79a4.67,4.67,0,0,0-1.46,1.66L13.53,5.56a24.57,24.57,0,0,1-1.45,2.5,2.76,2.76,0,0,1-1.23,1.08,0.29,0.29,0,0,0-.27.28,1.88,1.88,0,0,0,1.36-.48A23.33,23.33,0,0,0,13.79,6.2a15.36,15.36,0,0,1,1.65-2.37,3.32,3.32,0,0,0,.26-0.35A5.92,5.92,0,0,1,17.13,1.82ZM42.65,14.65l0-.09-1.42-.44L39,13.4c-0.89-.28-1.79-0.55-2.69-0.82a5.15,5.15,0,0,0-1.7-.39c-0.36,0-.73,0-1.1,0a2.14,2.14,0,0,0-.27,0,0.48,0.48,0,0,0,.26.17c1.58,0.43,3.17.84,4.75,1.27S41.17,14.4,42.65,14.65Zm43.56,0.16c0.49,0,1,.11,1.48.13,0.7,0,1.4,0,2.1,0,1.61,0,3.21.07,4.82,0,0.64,0,1.29-.05,1.92-0.1s1.13-.12,1.7-0.18a2,2,0,0,0,.33-0.12,1.26,1.26,0,0,0-.26-0.09c-0.45,0-.9,0-1.35,0s-1,0-1.45.06-0.84.08-1.27,0.09c-1,0-1.9,0-2.85,0-0.76,0-1.52.05-2.28,0s-1.4-.07-2.1-0.11A1,1,0,0,0,86.21,14.81Zm-20-5.92-0.25,0a1.52,1.52,0,0,0-.26,0,6.56,6.56,0,0,0-2.49,1,24.4,24.4,0,0,1-3.21,1.8,4.69,4.69,0,0,1-2.19.53,0.78,0.78,0,0,0-.26,0,3.22,3.22,0,0,1-1.21.14,3.4,3.4,0,0,0-1.38.19,0.62,0.62,0,0,1-.29,0c-0.4-.06-0.44,0-0.64.37l0.47,0.18c0.23-.39.23-0.39,0.53-0.34a7.59,7.59,0,0,0,4.61-.68A26.18,26.18,0,0,0,63,10.22a6,6,0,0,1,1.25-.63C64.83,9.37,65.42,9.22,66,9A0.74,0.74,0,0,0,66.16,8.9ZM83.4,14.61V14.47a8.37,8.37,0,0,0-.93-0.16c-0.76,0-1.52-.06-2.28-0.09l-3.33-.12a4.18,4.18,0,0,0-.7,0,12.32,12.32,0,0,1-2.71.1,8.29,8.29,0,0,0-1.05,0,0.66,0.66,0,0,0-.3.06,0.27,0.27,0,0,0-.09.21,0.24,0.24,0,0,0,.15.12,0.44,0.44,0,0,0,.17,0,30.91,30.91,0,0,1,3.39-.13h0.13c0.77,0,1.55-.09,2.32-0.07,1.27,0,2.54.12,3.81,0.17C82.47,14.62,82.94,14.61,83.4,14.61ZM17.31,2.23l-0.09-.09a2.08,2.08,0,0,0-.36.29c-0.3.37-.57,0.77-0.88,1.14a20.21,20.21,0,0,0-2,2.86c-0.19.33-.35,0.67-0.54,1a2.83,2.83,0,0,1-.35.5,2.09,2.09,0,0,0-.44.79,1.33,1.33,0,0,0,.62-0.59c0.27-.35.48-0.74,0.76-1.07a16.62,16.62,0,0,0,1.45-1.93A16.86,16.86,0,0,1,17,2.74,3,3,0,0,0,17.31,2.23Zm-6.2,8.65a1.86,1.86,0,0,0,.13.27,4.78,4.78,0,0,1,.88,1.75c0.15,0.58.15,1.17,0.35,1.75s0.35,1.47.65,2.17a1.41,1.41,0,0,0,.7.72c-0.35-1-.65-1.86-1-2.74a5.66,5.66,0,0,1-.44-2A2.54,2.54,0,0,0,12,11.44,1.1,1.1,0,0,0,11.11,10.88Zm90.62,1.28a1.06,1.06,0,0,0,.38-0.2,10.84,10.84,0,0,0,.64-1,0.64,0.64,0,0,0,0-.31,0.58,0.58,0,0,0-.26.11,6.24,6.24,0,0,0-.36.65c-0.06.12-.09,0.26-0.33,0.19a4.56,4.56,0,0,0-.09-0.61,1.83,1.83,0,0,0-.25-0.54,0.35,0.35,0,0,0-.31-0.07,0.35,0.35,0,0,0-.13.25,2.93,2.93,0,0,0,0,.46l-0.58-.37c-0.13-.07-0.27-0.17-0.38,0a0.28,0.28,0,0,0,.09.39,0.84,0.84,0,0,0,.86.25l0.2,0.4C101.57,11.68,101.57,11.68,101.73,12.16Zm-14.43-.43a4.27,4.27,0,0,0,2.62.09,1.38,1.38,0,0,0-.45-0.21c-0.27-.06-0.55-0.1-0.82-0.14a0.74,0.74,0,0,0-.66.12,0.21,0.21,0,0,1-.35-0.08c0.3-.38.88-0.71,0.5-1.38C87.43,10.47,87.52,11.16,87.31,11.73ZM112.61,16a2.52,2.52,0,0,0,.39.39,4.75,4.75,0,0,0,.76.39,0.32,0.32,0,0,0,.25-0.1,0.27,0.27,0,0,0-.07-0.22,4.43,4.43,0,0,0-.44-0.35,5,5,0,0,1-.46-0.33c-0.32-.29-0.31-0.3-0.67-0.1l-0.15.08A3.6,3.6,0,0,0,112,17a0.57,0.57,0,0,0,.36-0.43A0.68,0.68,0,0,1,112.61,16ZM87.15,11.35A1.33,1.33,0,0,0,85.81,9.8a0.25,0.25,0,0,0-.24.26,0.74,0.74,0,0,0,.58.72,3.74,3.74,0,0,1,.64.25A2.15,2.15,0,0,1,87.15,11.35ZM75.24,12.87a5.62,5.62,0,0,0-1-.13,1.08,1.08,0,0,0-.5.31c-0.11.09,0,.19,0,0.31a0.45,0.45,0,0,1-.07.31,1.53,1.53,0,0,1-.21.26c0.33,0.19.34-.15,0.52-0.24l0.38,0.25Zm11,5.21a5.33,5.33,0,0,0,.43.53,0.44,0.44,0,0,0,.33.13A0.51,0.51,0,0,0,87.37,18a0.73,0.73,0,0,0-.64-0.46,1.07,1.07,0,0,0-.82.33,0.58,0.58,0,0,0,0,.26ZM36,12.07l0,0.14c0.55,0.18,1.1.38,1.65,0.55s1.35,0.39,2,.59l1.37,0.42,0-.1A36.51,36.51,0,0,0,36,12.07Zm62.11,1.38,0.1,0.06,0.49-.78a0.73,0.73,0,0,0-1.07-.61,0.92,0.92,0,0,0,.53,1Zm12.42-1.54,0,0.1a2,2,0,0,1,.57.37,0.56,0.56,0,0,0,.7.19,0.52,0.52,0,0,0,.32-0.54A4.17,4.17,0,0,0,110.58,11.91Zm-39.51,2a1.13,1.13,0,0,0,0-1.42C70.61,12.75,70.6,13.27,71.07,13.86Zm3-3.53-0.15,0c-0.15.37-.29,0.75-0.46,1.12a0.83,0.83,0,0,1-.48.71,0.64,0.64,0,0,0,.69-0.34A2.14,2.14,0,0,0,74.08,10.33ZM85.25,16a0.48,0.48,0,0,0,.13.65,1.31,1.31,0,0,0,.83.63A1.53,1.53,0,0,0,85.25,16ZM71.57,16a2,2,0,0,0,0,1,0.31,0.31,0,0,0,.39.26,0.37,0.37,0,0,0,.22-0.43A1.3,1.3,0,0,0,71.57,16Zm15.36,1.09a1.38,1.38,0,0,0-.66-1.22,1.08,1.08,0,0,0,0,.34c0.07,0.25.17,0.49,0.25,0.74S86.72,17.23,86.93,17.12Zm25.67-4.65c-0.13.33-.13,0.35,0.12,0.45l0.92,0.38a1.08,1.08,0,0,0,.25,0A1.87,1.87,0,0,0,112.61,12.47Zm-0.44-.91a0.84,0.84,0,0,0-.28-1,0.4,0.4,0,0,0-.32,0,0.28,0.28,0,0,0-.08.26A1.27,1.27,0,0,0,112.16,11.57ZM87.54,16.18a0.65,0.65,0,0,0-.08-0.2c-0.27-.24-0.54-0.48-0.83-0.69a0.4,0.4,0,0,0-.52,0A2.51,2.51,0,0,0,87.54,16.18Zm26.16-2.45s0-.06,0-0.09c-0.3-.12-0.59-0.25-0.9-0.35a0.26,0.26,0,0,0-.39.22,0.27,0.27,0,0,0,.33.27C113.06,13.78,113.38,13.75,113.7,13.73ZM99,14.88h0.14a5.79,5.79,0,0,0,.2-0.56,0.33,0.33,0,0,0-.22-0.38,0.45,0.45,0,0,0-.32.05,0.25,0.25,0,0,0-.07.38C98.84,14.53,98.93,14.71,99,14.88Zm16.88-1.14a1.25,1.25,0,0,0,1.34-.31A1.14,1.14,0,0,0,115.9,13.74ZM110.69,16a0.89,0.89,0,0,0,1.28-.33A1.38,1.38,0,0,0,110.69,16Zm-6.94,1.26a2,2,0,0,0-.84-1.18A1.05,1.05,0,0,0,103.74,17.25Zm-4-1.42c0,0.24-.12.51,0.2,0.65a0.39,0.39,0,0,0,.48,0c0.16-.17-0.06-0.28-0.13-0.41A0.41,0.41,0,0,0,99.75,15.83Zm-0.21-.68,0.6-.2a0.18,0.18,0,0,0,.1-0.13c0-.34.2-0.33,0.44-0.32a0.24,0.24,0,0,0,.29-0.27A1.92,1.92,0,0,0,99.53,15.15Zm-13-1.88-0.06-.08-1.38,1.07A1.72,1.72,0,0,0,86.58,13.27Zm15.63-.64a2.07,2.07,0,0,0,1.34.22A1.54,1.54,0,0,0,102.22,12.63Zm-3.66,4.05c0.64,0,.79-0.23.6-0.77A0.9,0.9,0,0,0,98.55,16.68Zm12-3a1.13,1.13,0,0,0,.25-0.24,0.52,0.52,0,0,0-.17-0.58,0.3,0.3,0,0,0-.26,0,0.56,0.56,0,0,0,0,.35A2.52,2.52,0,0,0,110.55,13.65Zm-12,2,0-.09C98,15,98,15,97.47,15.39Zm-23.5-2a1.19,1.19,0,0,0,1.05-.21A0.69,0.69,0,0,0,75,13.59Zm25.85,1.33a0.84,0.84,0,0,0-.46.52l1-.21Zm1.49,1.73a1.28,1.28,0,0,0-.77.72,3.22,3.22,0,0,0,.63-0.31,0.26,0.26,0,0,0,.11-0.12A1.47,1.47,0,0,0,102.39,16.64Zm-28-1.81,0,0.1L75,15.17A0.17,0.17,0,0,0,75.26,15a0.29,0.29,0,0,0-.19-0.22A5.49,5.49,0,0,0,74.36,14.83Zm38.52-3.27a0.75,0.75,0,0,0,.66-0.54,0.22,0.22,0,0,0-.06-0.18,0.25,0.25,0,0,0-.21.06C113.14,11.08,113,11.29,112.88,11.56Zm-76.24-1.3a2.36,2.36,0,0,0-1.24.35A2,2,0,0,0,36.65,10.26Zm51.23,2.56,0.22-.66-0.71.24Zm30,2.17a1,1,0,0,0-.88-0.38A0.87,0.87,0,0,0,117.89,15ZM87.84,14a0.77,0.77,0,0,0,.92-0.52ZM75.61,11.74V11.64a1,1,0,0,0-1,.28Zm10,0.31a0.62,0.62,0,0,0-.25.76A0.62,0.62,0,0,0,85.59,12ZM86,15.88a1,1,0,0,0-.6-0.61A0.87,0.87,0,0,0,86,15.88ZM99.76,13a0.81,0.81,0,0,0,.72-0.38A0.93,0.93,0,0,0,99.76,13Zm2.06,3.31a0.54,0.54,0,0,0,.62-0.35A0.54,0.54,0,0,0,101.82,16.3ZM88,18.07L88.12,18A0.75,0.75,0,0,0,88,17.71a0.55,0.55,0,0,0-.24-0.09,0.5,0.5,0,0,0,0,.25A1,1,0,0,0,88,18.07Zm-23.19-1.8v-0.1l-1-.14v0Zm53.6-2.44a0.52,0.52,0,0,0,.63-0.07A0.54,0.54,0,0,0,118.44,13.83Zm-18.27.25L100.1,14c-0.37.05-.38,0.06-0.33,0.38Zm15.78-1a0.48,0.48,0,0,0-.43.45C115.71,13.4,116,13.42,115.95,13.07Zm-4.43.5c0.36,0.12.36,0.11,0.39-.26ZM75.93,15.69c0.06-.21,0-0.32-0.15-0.34a0.88,0.88,0,0,0-.31.18Zm11.88-.43a0.73,0.73,0,0,0-.55,0A0.51,0.51,0,0,0,87.82,15.26Zm-13.59,0-0.49-.17,0,0.09A0.41,0.41,0,0,0,74.22,15.26Zm-6.57,1V16.4l0.51,0v-0.1Zm5.46-3.44c-0.23-.15-0.33,0-0.49.18Zm43.21,1.28c-0.23-.07-0.36-0.12-0.4.09a0.44,0.44,0,0,0,.07.15ZM73.6,12.8c0.16-.12.21-0.22,0.11-0.33a0.48,0.48,0,0,0-.23,0Zm16,5,0.05-.08-0.56-.11v0Zm21.64-4.52,0.13,0c0.08-.14,0-0.25-0.2-0.37Zm-36.28-.81V12.36l-0.29,0v0.07Zm11.64-1-0.09.08a0.33,0.33,0,0,0,.39.2Zm17,3.81c-0.18-.08-0.29-0.06-0.35.21Zm-28.7-1.32V14l0.42,0v-0.1Zm-36.38-4V10l0.24,0s0,0,0,0H38.47ZM37.69,10l0,0.1,0.21,0V10H37.69Zm49,2.45,0,0.07L87,12.52l0-.08Z"/>
    </symbol>
  </defs>
</svg>